{
.appVersion = "3124";
.formatVersion = 3;
DisplayStrings = (
"ᙆᙇᙿᣵ᐀᙮"
);
axes = (
{
name = Weight;
tag = wght;
}
);
customParameters = (
{
name = vendorID;
value = GOOG;
},
{
name = panose;
value = (
2,
11,
5,
2,
4,
5,
4,
2,
2,
4
);
},
{
name = unicodeRanges;
value = (
0,
1,
2,
5,
6,
45,
77
);
},
{
name = codePageRanges;
value = (
"1252"
);
},
{
name = fsType;
value = (
);
}
);
date = "2022-04-04 11:53:41 +0000";
familyName = "Sans Canadian Aboriginal";
features = (
{
code = "script DFLT;
language dflt;
lookup SUB_0 {
	sub uni1513 by g727;
	sub uni1514 by g728;
	sub uni1515 by g729;
	sub uni1516 by g730;
	sub uni151D by g731;
	sub uni151E by g732;
	sub uni151F by g733;
	sub uni1520 by g734;
	sub uni1521 by g735;
	sub uni1522 by g736;
	sub uni1523 by g737;
	sub uni1524 by g738;
	sub uni1595 by g739;
	sub uni18C0 by g740;
	sub uni18C1 by g741;
	sub uni18C2 by g742;
} SUB_0;
script cans;
language dflt;
lookup SUB_0;
";
tag = salt;
}
);
fontMaster = (
{
axesValues = (
26
);
customParameters = (
{
name = typoAscender;
value = 1069;
},
{
name = typoDescender;
value = -293;
},
{
name = typoLineGap;
value = 0;
},
{
name = winAscent;
value = 1069;
},
{
name = winDescent;
value = 293;
},
{
name = hheaAscender;
value = 1069;
},
{
name = hheaDescender;
value = -293;
},
{
name = strikeoutPosition;
value = 289;
},
{
name = strikeoutSize;
value = 50;
}
);
guides = (
{
pos = (517,304);
},
{
pos = (517,410);
},
{
locked = 1;
pos = (230,357);
},
{
pos = (334,546);
}
);
id = m01;
metricValues = (
{
over = 15;
pos = 1069;
},
{
over = 15;
pos = 714;
},
{
over = 15;
pos = 481;
},
{
over = -15;
},
{
over = -15;
pos = -293;
},
{
}
);
name = Thin;
userData = {
GSOffsetHorizontal = 5;
GSOffsetKeepCompatible = 1;
GSOffsetVertical = 5;
};
},
{
axesValues = (
193
);
customParameters = (
{
name = typoAscender;
value = 1069;
},
{
name = typoDescender;
value = -293;
},
{
name = typoLineGap;
value = 0;
},
{
name = winAscent;
value = 1069;
},
{
name = winDescent;
value = 293;
},
{

glyphs = (
{
glyphname = idotless;
lastChange = "2022-04-04 12:28:08 +0000";
layers = (
{
background = {
shapes = (
{
closed = 1;
nodes = (
(121,528,l),
(95,528,l),
(95,0,l),
(121,0,l),
(121,0,l)
);
}
);
};
layerId = m01;
shapes = (
{
closed = 1;
nodes = (
(121,528,l),
(95,528,l),
(95,0,l),
(121,0,l),
(121,0,l)
);
}
);
width = 216;
},
{
background = {
shapes = (
{
closed = 1;
nodes = (
(258,553,l),
(67,553,l),
(67,0,l),
(258,0,l),
(258,0,l)
);
}
);
};
layerId = "A1461942-0433-4891-A171-8512F51D8C86";
shapes = (
{
closed = 1;
nodes = (
(258,553,l),
(67,553,l),
(67,0,l),
(258,0,l),
(258,0,l)
);
}
);
width = 325;
}
);
note = dotlessi;
unicode = 305;
},
{
color = 3;
glyphname = "acuteFinal-canadian";
lastChange = "2022-05-09 09:46:35 +0000";
layers = (
{
background = {
shapes = (
{
closed = 1;
nodes = (
(565,0,l),
(565,13,l),
(230,714,l),
(205,714,l),
(-130,13,l),
(-130,0,l)
);
},
{
closed = 1;
nodes = (
(222,695,l),
(214,695,l),
(536,14,l),
(536,25,l),
(-100,25,l),
(-100,14,l)
);
}
);
};
layerId = m01;
shapes = (
{
closed = 1;
nodes = (
(59,357,l),
(230,714,l),
(204,714,l),
(33,357,l)
);
}
);
width = 263;
},
{
background = {
shapes = (
{
closed = 1;
nodes = (
(341,714,l),
(219,714,l),
(25,357,l),
(147,357,l)
);
}
);
};
layerId = "A1461942-0433-4891-A171-8512F51D8C86";
shapes = (
{
closed = 1;
nodes = (
(154,357,l),
(348,714,l),
(219,714,l),
(25,357,l)
);
}
);
width = 373;
}
);
note = uni141F;
unicode = 5151;
},
{
color = 3;
glyphname = "graveFinal-canadian";
lastChange = "2022-05-09 08:48:54 +0000";
layers = (
{
background = {
shapes = (
{
closed = 1;
nodes = (
(57,714,l),
(29,714,l),
(205,352,l),
(233,352,l),
(233,352,l)
);
}
);
};
layerId = m01;
shapes = (
{
closed = 1;
nodes = (
(229,357,l),
(58,714,l),
(33,714,l),
(204,357,l)
);
}
);
width = 262;
},
{
background = {
shapes = (
{
closed = 1;
nodes = (
(137,714,l),
(19,714,l),
(229,317,l),
(347,317,l),
(347,317,l)
);
}
);
};
layerId = "A1461942-0433-4891-A171-8512F51D8C86";
shapes = (
{
closed = 1;
nodes = (
(341,357,l),
(147,714,l),
(25,714,l),
(219,357,l)
);
}
);
width = 366;
}
);
note = uni1420;
unicode = 5152;
},
{
color = 3;
glyphname = "ringBottomhalfFinal-canadian";
lastChange = "2022-05-10 15:48:17 +0000";
layers = (
{
background = {
shapes = (
{
closed = 1;
nodes = (
(273,393,o),
(307,455,o),
(307,572,cs),
(307,714,l),
(283,714,l),
(283,582,ls),
(283,462,o),
(252,413,o),
(163,413,cs),
(74,413,o),
(43,462,o),
(43,582,cs),
(43,714,l),
(19,714,l),
(19,572,ls),
(19,455,o),
(52,393,o),
(163,393,cs)
);
}
);
};
layerId = m01;
shapes = (
{
closed = 1;
nodes = (
(291,351,o),
(349,412,o),
(349,519,cs),
(349,714,l),
(325,714,l),
(325,518,ls),
(325,419,o),
(278,373,o),
(199,373,cs),
(121,373,o),
(73,421,o),
(73,517,cs),
(73,714,l),
(49,714,l),
(49,516,ls),
(49,412,o),
(109,351,o),
(199,351,cs)
);
}
);
width = 398;
},
{
background = {
shapes = (
{
closed = 1;
nodes = (
(316,355,o),
(366,392,o),
(387,459,cs),
(397,492,o),
(402,532,o),
(402,579,cs),
(402,714,l),
(283,714,l),
(283,541,ls),
(283,485,o),
(256,463,o),
(220,463,cs),
(185,463,o),
(158,485,o),
(158,541,cs),
(158,714,l),
(39,714,l),
(39,569,ls),
(39,418,o),
(100,355,o),
(220,355,cs)
);
}
);
};
layerId = "A1461942-0433-4891-A171-8512F51D8C86";
shapes = (
{
closed = 1;
nodes = (
(326,351,o),
(392,419,o),
(392,531,cs),
(392,714,l),
(276,714,l),
(276,530,ls),
(276,478,o),
(254,455,o),
(215,455,cs),
(177,455,o),
(155,479,o),
(155,530,cs),
(155,714,l),
(39,714,l),
(39,531,ls),
(39,417,o),
(106,351,o),
(216,351,cs)
);
}
);
width = 431;
}
);
note = uni1421;
unicode = 5153;
},
{
color = 3;
glyphname = "ringTophalfFinal-canadian";
lastChange = "2022-05-10 15:48:08 +0000";
layers = (
{
background = {
shapes = (
{
closed = 1;
nodes = (
(73,532,ls),
(73,652,o),
(103.667,701,o),
(193,701,cs),
(282.333,701,o),
(313,652,o),
(313,532,cs),
(313,400,l),
(337,400,l),
(337,542,ls),
(337,659.592,o),
(303.135,721,o),
(193,721,cs),
(82.333,721,o),
(49,659.333,o),
(49,542,cs),
(49,400,l),
(73,400,l),
(73,400,l)
);
}
);
};
layerId = m01;
shapes = (
{
closed = 1;
nodes = (
(73,357,l),
(73,553,ls),
(73,652,o),
(120,698,o),
(199,698,cs),
(277,698,o),
(325,650,o),
(325,554,cs),
(325,357,l),
(349,357,l),
(349,555,ls),
(349,659,o),
(289,720,o),
(199,720,cs),
(107,720,o),
(49,659,o),
(49,552,cs),
(49,357,l)
);
}
);
width = 398;
},
{
background = {
shapes = (
{
closed = 1;
nodes = (
(148,540,ls),
(148,596,o),
(175.333,618,o),
(210,618,cs),
(246,618,o),
(273,596,o),
(273,540,cs),
(273,367,l),
(392,367,l),
(392,502,ls),
(392,595.333,o),
(374.167,663,o),
(321.5,699,cs),
(295.167,717,o),
(258,726,o),
(210,726,cs),
(90,726,o),
(29,662.667,o),
(29,512,cs),
(29,367,l),
(148,367,l),
(148,367,l)
);
}
);
};
layerId = "A1461942-0433-4891-A171-8512F51D8C86";
shapes = (
{
closed = 1;
nodes = (
(155,357,l),
(155,541,ls),
(155,593,o),
(177,616,o),
(216,616,cs),
(254,616,o),
(276,592,o),
(276,541,cs),
(276,357,l),
(392,357,l),
(392,540,ls),
(392,654,o),
(325,720,o),
(215,720,cs),
(105,720,o),
(39,652,o),
(39,540,cs),
(39,357,l)
);
}
);
width = 431;
}
);
note = uni1422;
unicode = 5154;
},
{
color = 3;
glyphname = "ringRighthalfFinal-canadian";
lastChange = "2022-05-09 09:03:43 +0000";
layers = (
{
background = {
shapes = (
{
closed = 1;
nodes = (
(231,382,o),
(290,437,o),
(290,548,cs),
(290,659,o),
(231,714,o),
(111,714,cs),
(19,714,l),
(19,692,l),
(110,692,ls),
(227,692,o),
(266,639,o),
(266,548,cs),
(266,457,o),
(227,404,o),
(110,404,cs),
(19,404,l),
(19,382,l),
(111,382,l),
(111,382,l)
);
}
);
};
layerId = m01;
shapes = (
{
closed = 1;
nodes = (
(133,357,ls),
(240,357,o),
(304,427,o),
(304,536,cs),
(304,645,o),
(240,714,o),
(130,714,cs),
(49,714,l),
(49,692,l),
(130,692,ls),
(229,692,o),
(281,635,o),
(281,536,cs),
(281,437,o),
(229,379,o),
(130,379,cs),
(49,379,l),
(49,357,l)
);
}
);
width = 353;
},
{
background = {
shapes = (
{
closed = 1;
nodes = (
(263,317,o),
(339,379,o),
(339,518,cs),
(339,655,o),
(266,714,o),
(103,714,cs),
(9,714,l),
(9,606,l),
(110,606,ls),
(188,606,o),
(221,580,o),
(221,517,cs),
(221,450,o),
(185,425,o),
(94,425,cs),
(9,425,l),
(9,317,l),
(91,317,l),
(91,317,l)
);
}
);
};
layerId = "A1461942-0433-4891-A171-8512F51D8C86";
shapes = (
{
closed = 1;
nodes = (
(151,357,ls),
(270,357,o),
(339,425,o),
(339,536,cs),
(339,648,o),
(270,714,o),
(151,714,cs),
(39,714,l),
(39,611,l),
(143,611,ls),
(194,611,o),
(223,587,o),
(223,536,cs),
(223,486,o),
(194,460,o),
(143,460,cs),
(39,460,l),
(39,357,l)
);
}
);
width = 378;
}
);
note = uni1423;
unicode = 5155;
},
{
color = 3;
glyphname = "ringFinal-canadian";
lastChange = "2022-05-09 11:25:14 +0000";
layers = (
{
background = {
shapes = (
{
closed = 1;
nodes = (
(296.324,401,o),
(366,470.441,o),
(366,558,cs),
(366,645.58,o),
(294.737,714,o),
(207,714,cs),
(120.697,714,o),
(49,645.444,o),
(49,558,cs),
(49,470.575,o),
(119.106,401,o),
(207,401,cs)
);
},
{
closed = 1;
nodes = (
(131.666,423,o),
(73,483.35,o),
(73,559,cs),
(73,634.242,o),
(133.201,693,o),
(207,693,cs),
(281.204,693,o),
(342,634.201,o),
(342,559,cs),
(342,484.923,o),
(282.053,423,o),
(207,423,cs)
);
}
);
};
layerId = m01;
shapes = (
{
closed = 1;
nodes = (
(341,351,o),
(423,430,o),
(423,536,cs),
(423,642,o),
(339,720,o),
(235,720,cs),
(131,720,o),
(49,642,o),
(49,536,cs),
(49,430,o),
(129,351,o),
(235,351,cs)
);
},
{
closed = 1;
nodes = (
(140,373,o),
(72,442,o),
(72,536,cs),
(72,630,o),
(142,698,o),
(235,698,cs),
(328,698,o),
(400,630,o),
(400,536,cs),
(400,442,o),
(330,373,o),
(235,373,cs)
);
}
);
width = 472;
},
{
background = {
shapes = (
{
closed = 1;
nodes = (
(351,315,o),
(434,403,o),
(434,518,cs),
(434,634,o),
(350,721,o),
(228,721,cs),
(106,721,o),
(22,634,o),
(22,518,cs),
(22,403,o),
(106,315,o),
(228,315,cs)
);
},
{
closed = 1;
nodes = (
(174,423,o),
(140,459,o),
(140,518,cs),
(140,573,o),
(173,613,o),
(228,613,cs),
(283,613,o),
(316,576,o),
(316,519,cs),
(316,460,o),
(282,423,o),
(228,423,cs)
);
}
);
};
layerId = "A1461942-0433-4891-A171-8512F51D8C86";
shapes = (
{
closed = 1;
nodes = (
(340,351,o),
(419,430,o),
(419,536,cs),
(419,642,o),
(338,720,o),
(229,720,cs),
(120,720,o),
(39,642,o),
(39,536,cs),
(39,430,o),
(118,351,o),
(229,351,cs)
);
},
{
closed = 1;
nodes = (
(182,455,o),
(155,492,o),
(155,536,cs),
(155,580,o),
(183,616,o),
(229,616,cs),
(273,616,o),
(303,580,o),
(303,536,cs),
(303,492,o),
(274,455,o),
(229,455,cs)
);
}
);
width = 458;
}
);
note = uni1424;
unicode = 5156;
},
{
color = 3;
glyphname = "doubleacuteFinal-canadian";
lastChange = "2022-05-09 09:45:30 +0000";
layers = (
{
background = {
shapes = (
{
closed = 1;
nodes = (
(361,714,l),
(333,714,l),
(157,352,l),
(185,352,l),
(185,352,l)
);
},
{
closed = 1;
nodes = (
(233,714,l),
(205,714,l),
(29,352,l),
(57,352,l),
(57,352,l)
);
}
);
};
layerId = m01;
shapes = (
{
closed = 1;
nodes = (
(230,714,l),
(204,714,l),
(33,357,l),
(59,357,l)
);
},
{
closed = 1;
nodes = (
(360,714,l),
(334,714,l),
(163,357,l),
(189,357,l)
);
}
);
width = 393;
},
{
background = {
shapes = (
{
closed = 1;
nodes = (
(530,714,l),
(412,714,l),
(202,317,l),
(320,317,l),
(320,317,l)
);
},
{
closed = 1;
nodes = (
(347,714,l),
(229,714,l),
(19,317,l),
(137,317,l),
(137,317,l)
);
}
);
};
layerId = "A1461942-0433-4891-A171-8512F51D8C86";
shapes = (
{
closed = 1;
nodes = (
(348,714,l),
(219,714,l),
(25,357,l),
(154,357,l)
);
},
{
closed = 1;
nodes = (
(542,714,l),
(413,714,l),
(219,357,l),
(348,357,l)
);
}
);
width = 567;
}
);
note = uni1425;
unicode = 5157;
},
{
color = 3;
glyphname = "doubleshortverticalstrokesFinal-canadian";
lastChange = "2022-05-09 09:46:47 +0000";
layers = (
{
background = {
shapes = (
{
closed = 1;
nodes = (
(226,714,l),
(202,714,l),
(202,352,l),
(226,352,l),
(226,352,l)
);
},
{
closed = 1;
nodes = (
(73,714,l),
(49,714,l),
(49,352,l),
(73,352,l),
(73,352,l)
);
}
);
};
layerId = m01;
shapes = (
{
closed = 1;
nodes = (
(73,714,l),
(49,714,l),
(49,357,l),
(73,357,l)
);
},
{
closed = 1;
nodes = (
(192,714,l),
(168,714,l),
(168,357,l),
(192,357,l)
);
}
);
width = 241;
},
{
background = {
shapes = (
{
closed = 1;
nodes = (
(345,714,l),
(227,714,l),
(227,317,l),
(345,317,l),
(345,317,l)
);
},
{
closed = 1;
nodes = (
(157,714,l),
(39,714,l),
(39,317,l),
(157,317,l),
(157,317,l)
);
}
);
};
layerId = "A1461942-0433-4891-A171-8512F51D8C86";
shapes = (
{
closed = 1;
nodes = (
(155,714,l),
(39,714,l),
(39,357,l),
(155,357,l)
);
},
{
closed = 1;
nodes = (
(326,714,l),
(210,714,l),
(210,357,l),
(326,357,l)
);
}
);
width = 365;
}
);
note = uni1426;
unicode = 5158;
},
{
color = 3;
glyphname = "middledotFinal-canadian";
lastChange = "2022-05-09 09:49:37 +0000";
layers = (
{
background = {
shapes = (
{
closed = 1;
nodes = (
(122,324,o),
(136,338,o),
(136,357,cs),
(136,376,o),
(122,390,o),
(103,390,cs),
(84,390,o),
(69,376,o),
(69,357,cs),
(69,338,o),
(84,324,o),
(103,324,cs)
);
}
);
};
layerId = m01;
shapes = (
{
closed = 1;
nodes = (
(117,331,o),
(131,344,o),
(131,362,cs),
(131,380,o),
(117,393,o),
(100,393,cs),
(83,393,o),
(69,380,o),
(69,362,cs),
(69,344,o),
(83,331,o),
(100,331,cs)
);
}
);
width = 200;
},
{
background = {
shapes = (
{
closed = 1;
nodes = (
(180,274,o),
(217,311,o),
(217,358,cs),
(217,405,o),
(180,442,o),
(133,442,cs),
(86,442,o),
(49,405,o),
(49,358,cs),
(49,311,o),
(86,274,o),
(133,274,cs)
);
}
);
};
layerId = "A1461942-0433-4891-A171-8512F51D8C86";
shapes = (
{
closed = 1;
nodes = (
(184,275,o),
(223,314,o),
(223,362,cs),
(223,410,o),
(184,449,o),
(136,449,cs),
(88,449,o),
(49,410,o),
(49,362,cs),
(49,314,o),
(88,275,o),
(136,275,cs)
);
}
);
width = 272;
}
);
note = uni1427;
unicode = 5159;
},
{
color = 3;
glyphname = "shorthorizontalstrokeFinal-canadian";
lastChange = "2022-05-09 14:01:34 +0000";
layers = (
{
background = {
shapes = (
{
closed = 1;
nodes = (
(406,544,l),
(49,544,l),
(49,522,l),
(406,522,l),
(406,522,l)
);
}
);
};
layerId = m01;
shapes = (
{
closed = 1;
nodes = (
(405,526,l),
(405,548,l),
(49,548,l),
(49,526,l)
);
}
);
width = 454;
},
{
background = {
shapes = (
{
closed = 1;
nodes = (
(407,591,l),
(39,591,l),
(39,485,l),
(407,485,l),
(407,485,l)
);
}
);
};
layerId = "A1461942-0433-4891-A171-8512F51D8C86";
shapes = (
{
closed = 1;
nodes = (
(407,485,l),
(407,589,l),
(39,589,l),
(39,485,l)
);
}
);
width = 446;
}
);
note = uni1428;
unicode = 5160;
},
{
color = 3;
glyphname = "plusFinal-canadian";
lastChange = "2022-05-09 14:01:23 +0000";
layers = (
{
background = {
shapes = (
{
closed = 1;
nodes = (
(239,522,l),
(405,522,l),
(405,544,l),
(239,544,l),
(239,714,l),
(215,714,l),
(215,544,l),
(49,544,l),
(49,522,l),
(215,522,l),
(215,352,l),
(239,352,l),
(239,352,l)
);
}
);
};
layerId = m01;
shapes = (
{
closed = 1;
nodes = (
(240,357,l),
(240,714,l),
(216,714,l),
(216,357,l)
);
},
{
closed = 1;
nodes = (
(405,526,l),
(405,548,l),
(49,548,l),
(49,526,l)
);
}
);
width = 454;
},
{
background = {
shapes = (
{
closed = 1;
nodes = (
(269,474,l),
(401,474,l),
(401,580,l),
(269,580,l),
(269,714,l),
(153,714,l),
(153,580,l),
(19,580,l),
(19,474,l),
(153,474,l),
(153,328,l),
(269,328,l),
(269,328,l)
);
}
);
};
layerId = "A1461942-0433-4891-A171-8512F51D8C86";
shapes = (
{
closed = 1;
nodes = (
(281,357,l),
(281,714,l),
(167,714,l),
(167,357,l)
);
},
{
closed = 1;
nodes = (
(407,485,l),
(407,589,l),
(39,589,l),
(39,485,l)
);
}
);
width = 446;
}
);
note = uni1429;
unicode = 5161;
},
{
color = 3;
glyphname = "downtackFinal-canadian";
lastChange = "2022-05-09 14:01:26 +0000";
layers = (
{
background = {
shapes = (
{
closed = 1;
nodes = (
(208,692,l),
(343,692,l),
(343,714,l),
(49,714,l),
(49,692,l),
(184,692,l),
(184,352,l),
(208,352,l),
(208,352,l)
);
}
);
};
layerId = m01;
shapes = (
{
closed = 1;
nodes = (
(240,357,l),
(240,704,l),
(216,704,l),
(216,357,l)
);
},
{
closed = 1;
nodes = (
(405,692,l),
(405,714,l),
(49,714,l),
(49,692,l)
);
}
);
width = 454;
},
{
background = {
shapes = (
{
closed = 1;
nodes = (
(269,608,l),
(392,608,l),
(392,714,l),
(29,714,l),
(29,608,l),
(153,608,l),
(153,325,l),
(269,325,l),
(269,325,l)
);
}
);
};
layerId = "A1461942-0433-4891-A171-8512F51D8C86";
shapes = (
{
closed = 1;
nodes = (
(282,357,l),
(282,704,l),
(166,704,l),
(166,357,l)
);
},
{
closed = 1;
nodes = (
(407,610,l),
(407,714,l),
(39,714,l),
(39,610,l)
);
}
);
width = 446;
}
);
note = uni142A;
unicode = 5162;
},
{
color = 3;
glyphname = "thFinalWoodScree-canadian";
lastChange = "2022-05-09 10:05:34 +0000";
layers = (
{
background = {
shapes = (
{
closed = 1;
nodes = (
(223,714,l),
(197,714,l),
(197,377,l),
(223,377,l),
(223,377,l)
);
},
{
closed = 1;
nodes = (
(371,485,l),
(49,485,l),
(49,460,l),
(371,460,l),
(371,460,l)
);
},
{
closed = 1;
nodes = (
(371,631,l),
(49,631,l),
(49,606,l),
(371,606,l),
(371,606,l)
);
}
);
};
layerId = m01;
shapes = (
{
closed = 1;
nodes = (
(240,357,l),
(240,714,l),
(216,714,l),
(216,357,l)
);
},
{
closed = 1;
nodes = (
(405,471,l),
(405,493,l),
(49,493,l),
(49,471,l)
);
},
{
closed = 1;
nodes = (
(405,580,l),
(405,602,l),
(49,602,l),
(49,580,l)
);
}
);
width = 454;
},
{
background = {
shapes = (
{
closed = 1;
nodes = (
(272,714,l),
(156,714,l),
(156,308,l),
(272,308,l),
(272,308,l)
);
},
{
closed = 1;
nodes = (
(397,479,l),
(29,479,l),
(29,374,l),
(397,374,l),
(397,374,l)
);
},
{
closed = 1;
nodes = (
(397,648,l),
(29,648,l),
(29,542,l),
(397,542,l),
(397,542,l)
);
}
);
};
layerId = "A1461942-0433-4891-A171-8512F51D8C86";
shapes = (
{
closed = 1;
nodes = (
(281,357,l),
(281,714,l),
(167,714,l),
(167,357,l)
);
},
{
closed = 1;
nodes = (
(407,409,l),
(407,511,l),
(39,511,l),
(39,409,l)
);
},
{
closed = 1;
nodes = (
(407,561,l),
(407,663,l),
(39,663,l),
(39,561,l)
);
}
);
width = 446;
}
);
note = uni167E;
unicode = 5758;
},
{
glyphname = "ringSmallFinal-canadian";
lastChange = "2022-04-04 12:28:08 +0000";
layers = (
{
background = {
shapes = (
{
closed = 1;
nodes = (
(285.333,806,o),
(321,842,o),
(321,886,cs),
(321,931.333,o),
(285.333,967,o),
(240,967,cs),
(196,967,o),
(159,932.333,o),
(159,887,cs),
(159,841.667,o),
(194.667,806,o),
(240,806,cs)
);
},
{
closed = 1;
nodes = (
(208,827,o),
(182,854,o),
(182,886,cs),
(182,919.333,o),
(208,946,o),
(240,946,cs),
(273.333,946,o),
(298,917.667,o),
(298,887,cs),
(298,855,o),
(273.333,827,o),
(240,827,cs)
);
}
);
};
layerId = m01;
shapes = (
{
closed = 1;
nodes = (
(285.333,806,o),
(321,842,o),
(321,886,cs),
(321,931.333,o),
(285.333,967,o),
(240,967,cs),
(196,967,o),
(159,932.333,o),
(159,887,cs),
(159,841.667,o),
(194.667,806,o),
(240,806,cs)
);
},
{
closed = 1;
nodes = (
(208,827,o),
(182,854,o),
(182,886,cs),
(182,919.333,o),
(208,946,o),
(240,946,cs),
(273.333,946,o),
(298,917.667,o),
(298,887,cs),
(298,855,o),
(273.333,827,o),
(240,827,cs)
);
}
);
width = 480;
},
{
background = {
shapes = (
{
closed = 1;
nodes = (
(299.667,789,o),
(344,832.333,o),
(344,891,cs),
(344,949.667,o),
(299.667,993,o),
(241,993,cs),
(182.333,993,o),
(139,949.667,o),
(139,891,cs),
(139,832.333,o),
(182.333,789,o),
(241,789,cs)
);
},
{
closed = 1;
nodes = (
(218.333,852,o),
(204,869.667,o),
(204,891,cs),
(204,913.667,o),
(218.333,930,o),
(241,930,cs),
(263.667,930,o),
(279,913.667,o),
(279,891,cs),
(279,869.667,o),
(263.667,852,o),
(241,852,cs)
);
}
);
};
layerId = "A1461942-0433-4891-A171-8512F51D8C86";
shapes = (
{
closed = 1;
nodes = (
(299.667,789,o),
(344,832.333,o),
(344,891,cs),
(344,949.667,o),
(299.667,993,o),
(241,993,cs),
(182.333,993,o),
(139,949.667,o),
(139,891,cs),
(139,832.333,o),
(182.333,789,o),
(241,789,cs)
);
},
{
closed = 1;
nodes = (
(218.333,852,o),
(204,869.667,o),
(204,891,cs),
(204,913.667,o),
(218.333,930,o),
(241,930,cs),
(263.667,930,o),
(279,913.667,o),
(279,891,cs),
(279,869.667,o),
(263.667,852,o),
(241,852,cs)
);
}
);
width = 483;
}
);
note = uni18DE;
unicode = 6366;
},
{
glyphname = "raiseddotFinal-canadian";
lastChange = "2022-04-04 12:28:08 +0000";
layers = (
{
background = {
shapes = (
{
closed = 1;
nodes = (
(211.667,806,o),
(226,820.333,o),
(226,839,cs),
(226,857.667,o),
(211.667,872,o),
(193,872,cs),
(174.333,872,o),
(159,857.667,o),
(159,839,cs),
(159,820.333,o),
(174.333,806,o),
(193,806,cs)
);
}
);
};
layerId = m01;
shapes = (
{
closed = 1;
nodes = (
(211.667,806,o),
(226,820.333,o),
(226,839,cs),
(226,857.667,o),
(211.667,872,o),
(193,872,cs),
(174.333,872,o),
(159,857.667,o),
(159,839,cs),
(159,820.333,o),
(174.333,806,o),
(193,806,cs)
);
}
);
width = 385;
},
{
background = {
shapes = (
{
closed = 1;
nodes = (
(269.667,789,o),
(307,826.333,o),
(307,873,cs),
(307,919.667,o),
(269.667,957,o),
(223,957,cs),
(176.333,957,o),
(139,919.667,o),
(139,873,cs),
(139,826.333,o),
(176.333,789,o),
(223,789,cs)
);
}
);
};
layerId = "A1461942-0433-4891-A171-8512F51D8C86";
shapes = (
{
closed = 1;
nodes = (
(269.667,789,o),
(307,826.333,o),
(307,873,cs),
(307,919.667,o),
(269.667,957,o),
(223,957,cs),
(176.333,957,o),
(139,919.667,o),
(139,873,cs),
(139,826.333,o),
(176.333,789,o),
(223,789,cs)
);
}
);
width = 446;
}
);
note = uni18DF;
unicode = 6367;
},
{
color = 1;
glyphname = "e-canadian";
lastChange = "2022-04-13 16:01:31 +0000";
layers = (
{
background = {
shapes = (
{
closed = 1;
nodes = (
(738,701,l),
(738,714,l),
(59,714,l),
(59,701,l),
(387,-12,l),
(410,-12,l),
(410,-12,l)
);
},
{
closed = 1;
nodes = (
(704,689,l),
(398,16,l),
(93,689,l),
(93,689,l)
);
}
);
};
layerId = m01;
shapes = (
{
closed = 1;
nodes = (
(59,714,l),
(59,701,l),
(394,0,l),
(419,0,l),
(754,701,l),
(754,714,l)
);
},
{
closed = 1;
nodes = (
(411,19,l),
(89,700,l),
(89,689,l),
(725,689,l),
(725,700,l),
(403,19,l)
);
}
);
width = 813;
},
{
background = {
shapes = (
{
closed = 1;
nodes = (
(803,669,l),
(803,714,l),
(39,714,l),
(39,669,l),
(393,-12,l),
(449,-12,l),
(449,-12,l)
);
},
{
closed = 1;
nodes = (
(560,558,l),
(421,279,l),
(282,558,l),
(282,558,l)
);
}
);
};
guides = (
{
angle = 61.4496;
pos = (595,598);
}
);
layerId = "A1461942-0433-4891-A171-8512F51D8C86";
shapes = (
{
closed = 1;
nodes = (
(39,714,l),
(39,669,l),
(403,0,l),
(459,0,l),
(823,669,l),
(823,714,l)
);
},
{
closed = 1;
nodes = (
(458,241,l),
(271,598,l),
(247,557,l),
(615,557,l),
(599,598,l),
(412,241,l)
);
}
);
width = 862;
}
);
note = uni1401;
unicode = 5121;
},
{
color = 1;
glyphname = "i-canadian";
lastChange = "2022-04-13 16:01:21 +0000";
layers = (
{
background = {
shapes = (
{
closed = 1;
nodes = (
(750,13,l),
(419,726,l),
(394,726,l),
(63,13,l),
(63,0,l),
(749,0,l)
);
},
{
closed = 1;
nodes = (
(716,25,l),
(98,25,l),
(407,698,l)
);
}
);
};
layerId = m01;
shapes = (
{
closed = 1;
nodes = (
(754,0,l),
(754,13,l),
(419,714,l),
(394,714,l),
(59,13,l),
(59,0,l)
);
},
{
closed = 1;
nodes = (
(411,695,l),
(403,695,l),
(725,14,l),
(725,25,l),
(89,25,l),
(89,14,l)
);
}
);
width = 813;
},
{
background = {
shapes = (
{
closed = 1;
nodes = (
(823,0,l),
(823,45,l),
(459,729,l),
(403,729,l),
(39,45,l),
(39,0,l)
);
},
{
closed = 1;
nodes = (
(400,482,l),
(587,116,l),
(615,157,l),
(247,157,l),
(267,116,l),
(454,482,l)
);
}
);
};
guides = (
{
angle = 118.5504;
pos = (587,116);
}
);
layerId = "A1461942-0433-4891-A171-8512F51D8C86";
shapes = (
{
closed = 1;
nodes = (
(823,0,l),
(823,45,l),
(459,714,l),
(403,714,l),
(39,45,l),
(39,0,l)
);
},
{
closed = 1;
nodes = (
(404,462,l),
(591,116,l),
(615,157,l),
(247,157,l),
(263,116,l),
(450,462,l)
);
}
);
width = 862;
}
);
note = uni1403;
unicode = 5123;
},
{
color = 1;
glyphname = "o-canadian";
lastChange = "2022-04-13 16:02:17 +0000";
layers = (
{
background = {
shapes = (
{
closed = 1;
nodes = (
(92,-12,l),
(705,347,l),
(705,367,l),
(92,726,l),
(79,726,l),
(79,-12,l)
);
},
{
closed = 1;
nodes = (
(104,696,l),
(93,698,l),
(686,352,l),
(686,362,l),
(93,16,l),
(104,17,l)
);
}
);
};
layerId = m01;
shapes = (
{
closed = 1;
nodes = (
(92,0,l),
(705,347,l),
(705,367,l),
(92,714,l),
(79,714,l),
(79,0,l)
);
},
{
closed = 1;
nodes = (
(104,684,l),
(93,685,l),
(686,351,l),
(686,364,l),
(93,30,l),
(104,29,l)
);
}
);
width = 744;
},
{
background = {
shapes = (
{
closed = 1;
nodes = (
(1799,336,l),
(1799,381,l),
(1204,725,l),
(1159,725,l),
(1159,-10,l),
(1204,-10,l),
(1204,-10,l)
);
},
{
closed = 1;
nodes = (
(1550,358,l),
(1313,231,l),
(1313,485,l),
(1313,485,l)
);
},
{
closed = 1;
nodes = (
(85,-12,l),
(698,347,l),
(698,367,l),
(85,726,l),
(72,726,l),
(72,-11,l)
);
},
{
closed = 1;
nodes = (
(86,16,l),
(97,17,l),
(97,696,l),
(86,698,l),
(679,352,l),
(679,362,l)
);
},
{
closed = 1;
nodes = (
(104,0,l),
(714,329,l),
(714,385,l),
(104,714,l),
(59,714,l),
(59,0,l)
);
},
{
closed = 1;
nodes = (
(225,505,l),
(176,505,l),
(470,345,l),
(470,373,l),
(176,214,l),
(225,214,l)
);
}
);
};
guides = (
{
angle = 151.6601;
pos = (409,378);
},
{
angle = 28.3399;
pos = (470,373);
}
);
layerId = "A1461942-0433-4891-A171-8512F51D8C86";
shapes = (
{
closed = 1;
nodes = (
(104,0,l),
(714,329,l),
(714,385,l),
(104,714,l),
(59,714,l),
(59,0,l)
);
},
{
closed = 1;
nodes = (
(225,505,l),
(176,505,l),
(478,345,l),
(478,373,l),
(176,214,l),
(225,214,l)
);
}
);
width = 743;
}
);
note = uni1405;
unicode = 5125;
},
{
color = 1;
glyphname = "a-canadian";
lastChange = "2022-04-13 16:02:12 +0000";
layers = (
{
background = {
shapes = (
{
closed = 1;
nodes = (
(675,-12,l),
(675,726,l),
(662,726,l),
(49,367,l),
(49,347,l),
(662,-12,l)
);
},
{
closed = 1;
nodes = (
(661,16,l),
(68,362,l),
(68,352,l),
(661,698,l),
(650,696,l),
(650,15,l)
);
}
);
};
guides = (
{
angle = 209.5128;
pos = (68,350);
},
{
angle = -29.5128;
pos = (68,363);
}
);
layerId = m01;
shapes = (
{
closed = 1;
nodes = (
(675,0,l),
(675,714,l),
(662,714,l),
(49,367,l),
(49,347,l),
(662,0,l)
);
},
{
closed = 1;
nodes = (
(660,28,l),
(68,363,l),
(68,351,l),
(659,685,l),
(650,685,l),
(650,28,l)
);
}
);
width = 754;
},
{
background = {
shapes = (
{
closed = 1;
nodes = (
(1459,725,l),
(1414,725,l),
(819,381,l),
(819,336,l),
(1414,-10,l),
(1459,-10,l),
(1459,-10,l)
);
},
{
closed = 1;
nodes = (
(1305,485,l),
(1305,231,l),
(1068,358,l),
(1068,358,l)
);
},
{
closed = 1;
nodes = (
(684,0,l),
(684,714,l),
(639,714,l),
(29,385,l),
(29,329,l),
(639,0,l)
);
},
{
closed = 1;
nodes = (
(567,214,l),
(273,373,l),
(273,345,l),
(567,504,l),
(518,504,l),
(518,214,l)
);
}
);
};
guides = (
{
angle = 208.3399;
pos = (273,345);
},
{
angle = -28.3399;
pos = (273,373);
}
);
layerId = "A1461942-0433-4891-A171-8512F51D8C86";
shapes = (
{
closed = 1;
nodes = (
(684,0,l),
(684,714,l),
(639,714,l),
(29,385,l),
(29,329,l),
(639,0,l)
);
},
{
closed = 1;
nodes = (
(567,214,l),
(265,373,l),
(265,345,l),
(567,504,l),
(518,504,l),
(518,214,l)
);
}
);
width = 743;
}
);
note = uni140A;
unicode = 5130;
},
{
color = 3;
glyphname = "ai-canadian";
lastChange = "2022-05-09 10:19:58 +0000";
layers = (
{
background = {
shapes = (
{
closed = 1;
nodes = (
(283,351,o),
(341,409,o),
(341,516,cs),
(341,714,l),
(318,714,l),
(318,515,ls),
(318,416,o),
(270,373,o),
(195,373,cs),
(121,373,o),
(72,418,o),
(72,514,cs),
(72,714,l),
(49,714,l),
(49,513,ls),
(49,409,o),
(109,351,o),
(195,351,cs)
);
},
{
closed = 1;
nodes = (
(552,351,o),
(610,409,o),
(610,516,cs),
(610,714,l),
(587,714,l),
(587,515,ls),
(587,416,o),
(539,373,o),
(464,373,cs),
(390,373,o),
(341,418,o),
(341,514,cs),
(341,714,l),
(318,714,l),
(318,513,ls),
(318,409,o),
(378,351,o),
(464,351,cs)
);
}
);
};
layerId = m01;
shapes = (
{
closed = 1;
nodes = (
(269,351,o),
(318,394,o),
(331,476,c),
(318,476,l),
(333,395,o),
(383,351,o),
(458,351,cs),
(546,351,o),
(602,409,o),
(602,516,cs),
(602,714,l),
(579,714,l),
(579,515,ls),
(579,416,o),
(533,373,o),
(458,373,cs),
(384,373,o),
(337,418,o),
(337,514,cs),
(337,714,l),
(314,714,l),
(314,515,ls),
(314,416,o),
(268,373,o),
(193,373,cs),
(119,373,o),
(72,418,o),
(72,514,cs),
(72,714,l),
(49,714,l),
(49,513,ls),
(49,409,o),
(107,351,o),
(193,351,cs)
);
}
);
width = 651;
},
{
background = {
shapes = (
{
closed = 1;
nodes = (
(320,351,o),
(384,419,o),
(384,531,cs),
(384,714,l),
(268,714,l),
(268,527,ls),
(268,476,o),
(248,455,o),
(211,455,cs),
(175,455,o),
(155,477,o),
(155,527,cs),
(155,714,l),
(39,714,l),
(39,531,ls),
(39,417,o),
(104,351,o),
(212,351,cs)
);
},
{
closed = 1;
nodes = (
(549,351,o),
(613,419,o),
(613,531,cs),
(613,714,l),
(497,714,l),
(497,527,ls),
(497,476,o),
(477,455,o),
(440,455,cs),
(404,455,o),
(384,477,o),
(384,527,cs),
(384,714,l),
(268,714,l),
(268,531,ls),
(268,417,o),
(333,351,o),
(441,351,cs)
);
}
);
};
layerId = "A1461942-0433-4891-A171-8512F51D8C86";
shapes = (
{
closed = 1;
nodes = (
(271,351,o),
(315,371,o),
(346,416,c),
(307,416,l),
(336,371,o),
(383,351,o),
(441,351,cs),
(549,351,o),
(613,419,o),
(613,531,cs),
(613,714,l),
(497,714,l),
(497,527,ls),
(497,476,o),
(477,455,o),
(440,455,cs),
(404,455,o),
(384,477,o),
(384,527,cs),
(384,714,l),
(268,714,l),
(268,527,ls),
(268,476,o),
(248,455,o),
(211,455,cs),
(175,455,o),
(155,477,o),
(155,527,cs),
(155,714,l),
(39,714,l),
(39,531,ls),
(39,417,o),
(104,351,o),
(212,351,cs)
);
}
);
width = 652;
}
);
note = uni141C;
unicode = 5148;
},
{
color = 3;
glyphname = "ycreew-canadian";
lastChange = "2022-05-09 10:29:23 +0000";
layers = (
{
background = {
shapes = (
{
closed = 1;
nodes = (
(432.158,526,o),
(472,571.549,o),
(472,622,cs),
(472,676.484,o),
(430.484,718,o),
(376,718,cs),
(325.306,718,o),
(280,678.085,o),
(280,622,cs),
(280,568.548,o),
(322.492,526,o),
(377,526,cs)
);
},
{
closed = 1;
nodes = (
(201.085,356,o),
(241,401.306,o),
(241,452,cs),
(241,506.334,o),
(199.056,548,o),
(146,548,cs),
(93.581,548,o),
(49,508.162,o),
(49,452,cs),
(49,398.717,o),
(91.717,356,o),
(145,356,cs)
);
},
{
closed = 1;
nodes = (
(103.667,378,o),
(72,410.667,o),
(72,452,cs),
(72,493.333,o),
(103.667,526,o),
(145,526,cs),
(186.333,526,o),
(218,493.333,o),
(218,452,cs),
(218,410.667,o),
(186.333,378,o),
(145,378,cs)
);
},
{
closed = 1;
nodes = (
(334.667,548,o),
(303,580.667,o),
(303,622,cs),
(303,663.333,o),
(334.667,696,o),
(376,696,cs),
(417.333,696,o),
(449,663.333,o),
(449,622,cs),
(449,580.667,o),
(417.333,548,o),
(376,548,cs)
);
}
);
};
layerId = m01;
shapes = (
{
closed = 1;
nodes = (
(366,528,o),
(409,570,o),
(409,624,cs),
(409,678,o),
(368,720,o),
(314,720,cs),
(260,720,o),
(217,678,o),
(217,624,cs),
(217,570,o),
(260,528,o),
(313,528,cs)
);
},
{
closed = 1;
nodes = (
(198,351,o),
(241,393,o),
(241,447,cs),
(241,501,o),
(200,543,o),
(146,543,cs),
(92,543,o),
(49,501,o),
(49,447,cs),
(49,393,o),
(92,351,o),
(145,351,cs)
);
},
{
closed = 1;
nodes = (
(102,372,o),
(71,406,o),
(71,447,cs),
(71,488,o),
(102,522,o),
(145,522,cs),
(188,522,o),
(219,488,o),
(219,447,cs),
(219,406,o),
(188,372,o),
(145,372,cs)
);
},
{
closed = 1;
nodes = (
(270,549,o),
(239,583,o),
(239,624,cs),
(239,665,o),
(270,699,o),
(313,699,cs),
(356,699,o),
(387,665,o),
(387,624,cs),
(387,583,o),
(356,549,o),
(313,549,cs)
);
}
);
width = 458;
},
{
background = {
shapes = (
{
closed = 1;
nodes = (
(1353,456,o),
(1409,513,o),
(1409,589,cs),
(1409,665,o),
(1351,720,o),
(1273,720,cs),
(1195,720,o),
(1137,665,o),
(1137,589,cs),
(1137,513,o),
(1194,456,o),
(1273,456,cs)
);
},
{
closed = 1;
nodes = (
(1055,351,o),
(1111,408,o),
(1111,484,cs),
(1111,560,o),
(1053,615,o),
(975,615,cs),
(897,615,o),
(839,560,o),
(839,484,cs),
(839,408,o),
(896,351,o),
(975,351,cs)
);
},
{
closed = 1;
nodes = (
(944,430,o),
(926,454,o),
(926,484,cs),
(926,513,o),
(945,537,o),
(975,537,cs),
(1004,537,o),
(1024,513,o),
(1024,484,cs),
(1024,454,o),
(1004,430,o),
(975,430,cs)
);
},
{
closed = 1;
nodes = (
(1242,535,o),
(1224,559,o),
(1224,589,cs),
(1224,618,o),
(1243,642,o),
(1273,642,cs),
(1302,642,o),
(1322,618,o),
(1322,589,cs),
(1322,559,o),
(1302,535,o),
(1273,535,cs)
);
},
{
closed = 1;
nodes = (
(376,528,o),
(419,570,o),
(419,624,cs),
(419,678,o),
(378,720,o),
(324,720,cs),
(270,720,o),
(227,678,o),
(227,624,cs),
(227,570,o),
(270,528,o),
(323,528,cs)
);
},
{
closed = 1;
nodes = (
(188,351,o),
(231,393,o),
(231,447,cs),
(231,501,o),
(190,543,o),
(136,543,cs),
(82,543,o),
(39,501,o),
(39,447,cs),
(39,393,o),
(82,351,o),
(135,351,cs)
);
},
{
closed = 1;
nodes = (
(92,372,o),
(61,406,o),
(61,447,cs),
(61,488,o),
(92,522,o),
(135,522,cs),
(178,522,o),
(209,488,o),
(209,447,cs),
(209,406,o),
(178,372,o),
(135,372,cs)
);
},
{
closed = 1;
nodes = (
(280,549,o),
(249,583,o),
(249,624,cs),
(249,665,o),
(280,699,o),
(323,699,cs),
(366,699,o),
(397,665,o),
(397,624,cs),
(397,583,o),
(366,549,o),
(323,549,cs)
);
}
);
};
layerId = "A1461942-0433-4891-A171-8512F51D8C86";
shapes = (
{
closed = 1;
nodes = (
(374,528,o),
(415,569,o),
(415,625,cs),
(415,680,o),
(373,720,o),
(316,720,cs),
(259,720,o),
(217,680,o),
(217,625,cs),
(217,569,o),
(258,528,o),
(316,528,cs)
);
},
{
closed = 1;
nodes = (
(196,351,o),
(237,392,o),
(237,448,cs),
(237,503,o),
(195,543,o),
(138,543,cs),
(81,543,o),
(39,503,o),
(39,448,cs),
(39,392,o),
(80,351,o),
(138,351,cs)
);
},
{
closed = 1;
nodes = (
(117,410,o),
(104,427,o),
(104,448,cs),
(104,468,o),
(117,484,o),
(138,484,cs),
(158,484,o),
(172,468,o),
(172,448,cs),
(172,427,o),
(158,410,o),
(138,410,cs)
);
},
{
closed = 1;
nodes = (
(294,587,o),
(282,604,o),
(282,625,cs),
(282,645,o),
(295,661,o),
(316,661,cs),
(336,661,o),
(350,645,o),
(350,625,cs),
(350,604,o),
(336,587,o),
(316,587,cs)
);
}
);
width = 454;
}
);
note = uni141D;
unicode = 5149;
},
{
color = 3;
glyphname = "glottalstop-canadian";
lastChange = "2022-05-09 10:50:27 +0000";
layers = (
{
background = {
shapes = (
{
closed = 1;
nodes = (
(421,357,l),
(421,366,l),
(254,714,l),
(240,714,l),
(73,366,l),
(73,357,l)
);
},
{
closed = 1;
nodes = (
(257,705,l),
(237,705,l),
(398,364,l),
(406,378,l),
(88,378,l),
(96,364,l)
);
}
);
};
layerId = m01;
shapes = (
{
closed = 1;
nodes = (
(397,357,l),
(397,366,l),
(230,714,l),
(216,714,l),
(49,366,l),
(49,357,l)
);
},
{
closed = 1;
nodes = (
(233,700,l),
(213,700,l),
(374,364,l),
(382,378,l),
(64,378,l),
(72,364,l)
);
}
);
width = 446;
},
{
background = {
shapes = (
{
closed = 1;
nodes = (
(534,357,l),
(534,380,l),
(352,714,l),
(324,714,l),
(142,380,l),
(142,357,l)
);
},
{
closed = 1;
nodes = (
(315,588,l),
(408,415,l),
(430,446,l),
(246,446,l),
(264,415,l),
(358,588,l)
);
}
);
};
layerId = "A1461942-0433-4891-A171-8512F51D8C86";
shapes = (
{
closed = 1;
nodes = (
(431,357,l),
(431,380,l),
(249,714,l),
(221,714,l),
(39,380,l),
(39,357,l)
);
},
{
closed = 1;
nodes = (
(255,588,l),
(212,588,l),
(305,415,l),
(327,446,l),
(143,446,l),
(161,415,l)
);
}
);
width = 470;
}
);
note = uni141E;
unicode = 5150;
},
{
color = 1;
glyphname = "pe-canadian";
lastChange = "2022-04-13 16:08:06 +0000";
layers = (
{
background = {
shapes = (
{
closed = 1;
nodes = (
(1638,701,l),
(1638,714,l),
(1615,714,l),
(1298,16,l),
(982,714,l),
(959,714,l),
(959,701,l),
(1287,-12,l),
(1310,-12,l),
(1310,-12,l)
);
},
{
closed = 1;
nodes = (
(59,714,l),
(59,701,l),
(394,-12,l),
(419,-12,l),
(754,701,l),
(753,714,l)
);
},
{
closed = 1;
nodes = (
(411,7,l),
(89,700,l),
(89,689,l),
(725,689,l),
(725,700,l),
(403,7,l)
);
}
);
};
layerId = m01;
shapes = (
{
closed = 1;
nodes = (
(419,0,l),
(754,701,l),
(754,714,l),
(731,714,l),
(403,19,l),
(411,19,l),
(83,714,l),
(59,714,l),
(59,701,l),
(394,0,l)
);
}
);
width = 813;
},
{
background = {
shapes = (
{
closed = 1;
nodes = (
(1897,669,l),
(1897,714,l),
(1728,714,l),
(1518,299,l),
(1308,714,l),
(1139,714,l),
(1139,669,l),
(1495,-12,l),
(1540,-12,l),
(1540,-12,l)
);
},
{
closed = 1;
nodes = (
(651,714,l),
(398,232,l),
(463,232,l),
(216,714,l),
(39,714,l),
(39,669,l),
(403,-15,l),
(459,-15,l),
(823,669,l),
(823,714,l)
);
}
);
};
layerId = "A1461942-0433-4891-A171-8512F51D8C86";
shapes = (
{
closed = 1;
nodes = (
(459,0,l),
(823,669,l),
(823,714,l),
(655,714,l),
(403,244,l),
(468,244,l),
(220,714,l),
(39,714,l),
(39,669,l),
(403,0,l)
);
}
);
width = 862;
}
);
note = uni142F;
unicode = 5167;
},
{
color = 1;
glyphname = "pi-canadian";
lastChange = "2022-04-13 16:07:51 +0000";
layers = (
{
background = {
shapes = (
{
closed = 1;
nodes = (
(398,698,l),
(715,0,l),
(738,0,l),
(738,13,l),
(410,726,l),
(387,726,l),
(59,13,l),
(59,0,l),
(82,0,l),
(82,0,l)
);
}
);
};
layerId = m01;
shapes = (
{
closed = 1;
nodes = (
(82,0,l),
(410,695,l),
(402,695,l),
(730,0,l),
(754,0,l),
(754,13,l),
(419,714,l),
(394,714,l),
(59,13,l),
(59,0,l)
);
}
);
width = 813;
},
{
background = {
shapes = (
{
closed = 1;
nodes = (
(211,0,l),
(466,482,l),
(399,482,l),
(646,0,l),
(823,0,l),
(823,45,l),
(459,729,l),
(403,729,l),
(39,45,l),
(39,0,l)
);
}
);
};
layerId = "A1461942-0433-4891-A171-8512F51D8C86";
shapes = (
{
closed = 1;
nodes = (
(212,0,l),
(467,470,l),
(400,470,l),
(647,0,l),
(823,0,l),
(823,45,l),
(459,714,l),
(403,714,l),
(39,45,l),
(39,0,l)
);
}
);
width = 862;
}
);
note = uni1431;
unicode = 5169;
},
{
color = 1;
glyphname = "po-canadian";
lastChange = "2022-04-22 15:03:59 +0000";
layers = (
{
background = {
shapes = (
{
closed = 1;
nodes = (
(1173,348,l),
(1173,366,l),
(559,725,l),
(549,725,l),
(549,702,l),
(1139,357,l),
(549,12,l),
(549,-12,l),
(559,-12,l),
(559,-12,l)
);
},
{
closed = 1;
nodes = (
(82,-12,l),
(695,347,l),
(695,367,l),
(82,726,l),
(69,726,l),
(69,-12,l)
);
},
{
closed = 1;
nodes = (
(94,696,l),
(83,698,l),
(676,352,l),
(676,362,l),
(83,16,l),
(94,17,l)
);
}
);
};
layerId = m01;
shapes = (
{
closed = 1;
nodes = (
(92,0,l),
(695,347,l),
(695,367,l),
(92,714,l),
(79,714,l),
(79,693,l),
(676,351,l),
(676,363,l),
(79,21,l),
(79,0,l)
);
}
);
width = 744;
},
{
background = {
shapes = (
{
closed = 1;
nodes = (
(1279,336,l),
(1279,379,l),
(684,725,l),
(639,725,l),
(639,568,l),
(1029,357,l),
(639,148,l),
(639,-10,l),
(684,-10,l),
(684,-10,l)
);
},
{
closed = 1;
nodes = (
(104,-15,l),
(724,329,l),
(724,385,l),
(104,729,l),
(59,729,l),
(59,-15,l)
);
},
{
closed = 1;
nodes = (
(225,521,l),
(176,509,l),
(476,343,l),
(476,371,l),
(176,205,l),
(225,193,l)
);
}
);
};
layerId = "A1461942-0433-4891-A171-8512F51D8C86";
shapes = (
{
closed = 1;
nodes = (
(104,0,l),
(714,329,l),
(714,385,l),
(104,714,l),
(59,714,l),
(59,546,l),
(470,330,l),
(470,386,l),
(59,170,l),
(59,0,l)
);
}
);
width = 743;
}
);
note = uni1433;
unicode = 5171;
},
{
color = 1;
glyphname = "pa-canadian";
lastChange = "2022-05-06 09:02:22 +0000";
layers = (
{
background = {
shapes = (
{
closed = 1;
nodes = (
(675,0,l),
(675,714,l),
(662,714,l),
(49,367,l),
(49,347,l),
(662,0,l)
);
},
{
closed = 1;
nodes = (
(660,28,l),
(68,363,l),
(68,351,l),
(659,685,l),
(650,685,l),
(650,28,l)
);
}
);
};
layerId = m01;
shapes = (
{
closed = 1;
nodes = (
(665,0,l),
(665,21,l),
(68,363,l),
(68,351,l),
(665,693,l),
(665,714,l),
(652,714,l),
(49,367,l),
(49,347,l),
(652,0,l)
);
}
);
width = 744;
},
{
background = {
shapes = (
{
closed = 1;
nodes = (
(684,-15,l),
(684,143,l),
(263,374,l),
(263,338,l),
(684,569,l),
(684,729,l),
(639,729,l),
(19,385,l),
(19,329,l),
(639,-15,l)
);
}
);
};
layerId = "A1461942-0433-4891-A171-8512F51D8C86";
shapes = (
{
closed = 1;
nodes = (
(684,0,l),
(684,168,l),
(273,384,l),
(273,328,l),
(684,544,l),
(684,714,l),
(639,714,l),
(29,385,l),
(29,329,l),
(639,0,l)
);
}
);
width = 743;
}
);
note = uni1438;
unicode = 5176;
},
{
color = 3;
glyphname = "p-canadian";
lastChange = "2022-05-10 12:27:36 +0000";
layers = (
{
background = {
shapes = (
{
closed = 1;
nodes = (
(357,357,l),
(357,376,l),
(59,547,l),
(59,525,l),
(357,696,l),
(357,714,l),
(345,714,l),
(49,543,l),
(49,529,l),
(345,357,l)
);
}
);
};
layerId = m01;
shapes = (
{
closed = 1;
nodes = (
(357,357,l),
(357,376,l),
(69,542,l),
(69,530,l),
(357,695,l),
(357,714,l),
(345,714,l),
(49,543,l),
(49,529,l),
(345,357,l)
);
}
);
width = 406;
},
{
background = {
shapes = (
{
closed = 1;
nodes = (
(228,540,l),
(398,632,l),
(398,753,l),
(29,555,l),
(29,525,l),
(398,327,l),
(398,448,l),
(398,448,l)
);
}
);
};
layerId = "A1461942-0433-4891-A171-8512F51D8C86";
shapes = (
{
closed = 1;
nodes = (
(367,357,l),
(367,451,l),
(161,559,l),
(161,511,l),
(367,619,l),
(367,714,l),
(344,714,l),
(39,550,l),
(39,522,l),
(344,357,l)
);
}
);
width = 406;
}
);
note = uni1449;
unicode = 5193;
},
{
color = 3;
glyphname = "pWestCree-canadian";
lastChange = "2022-05-09 11:08:57 +0000";
layers = (
{
background = {
shapes = (
{
closed = 1;
nodes = (
(93,714,l),
(69,714,l),
(69,352,l),
(93,352,l),
(93,352,l)
);
}
);
};
layerId = m01;
shapes = (
{
closed = 1;
nodes = (
(73,357,l),
(73,714,l),
(49,714,l),
(49,357,l)
);
}
);
width = 122;
},
{
background = {
shapes = (
{
closed = 1;
nodes = (
(165,714,l),
(49,714,l),
(49,325,l),
(165,325,l),
(165,325,l)
);
}
);
};
layerId = "A1461942-0433-4891-A171-8512F51D8C86";
shapes = (
{
closed = 1;
nodes = (
(155,357,l),
(155,714,l),
(39,714,l),
(39,357,l)
);
}
);
width = 194;
}
);
note = uni144A;
unicode = 5194;
},
{
color = 3;
glyphname = "hCarrier-canadian";
lastChange = "2022-05-09 12:45:01 +0000";
layers = (
{
background = {
shapes = (
{
closed = 1;
nodes = (
(968,488,ls),
(968,559,o),
(930,600,o),
(869,600,cs),
(830,600,o),
(788,587,o),
(764,572,c),
(764,545,l),
(785,560,o),
(823,577,o),
(864,577,cs),
(915,577,o),
(944,547,o),
(944,480,cs),
(944,342,l),
(968,342,l),
(968,342,l)
);
},
{
closed = 1;
nodes = (
(773,714,l),
(749,714,l),
(749,342,l),
(773,342,l),
(773,342,l)
);
},
{
closed = 1;
nodes = (
(236,183,o),
(282,234,o),
(282,310,cs),
(282,386,o),
(235,436,o),
(166,436,cs),
(111,436,o),
(69,403,o),
(59,358,c),
(62,354,l),
(62,546,l),
(49,546,l),
(49,312,ls),
(49,233,o),
(94,183,o),
(165,183,cs)
);
},
{
closed = 1;
nodes = (
(102,196,o),
(62,239,o),
(62,309,cs),
(62,379,o),
(102,423,o),
(166,423,cs),
(228,423,o),
(269,379,o),
(269,310,cs),
(269,240,o),
(229,196,o),
(166,196,cs)
);
}
);
};
color = 6;
layerId = m01;
shapes = (
{
closed = 1;
nodes = (
(73,189,l),
(73,335,ls),
(73,392,o),
(112,426,o),
(169,426,cs),
(222,426,o),
(252,395,o),
(252,330,cs),
(252,189,l),
(276,189,l),
(276,335,ls),
(276,406,o),
(235,448,o),
(168,448,cs),
(112,448,o),
(66,413,o),
(62,359,c),
(73,359,l),
(73,546,l),
(49,546,l),
(49,189,l)
);
}
);
width = 325;
},
{
background = {
shapes = (
{
closed = 1;
nodes = (
(1173,503,ls),
(1173,590,o),
(1117,625,o),
(1044,625,cs),
(1004,625,o),
(957,613,o),
(917,589,c),
(917,490,l),
(949,514,o),
(977,519,o),
(1004,519,cs),
(1032,519,o),
(1057,505,o),
(1057,452,cs),
(1057,326,l),
(1173,326,l),
(1173,326,l)
);
},
{
closed = 1;
nodes = (
(945,714,l),
(829,714,l),
(829,326,l),
(945,326,l),
(945,326,l)
);
},
{
closed = 1;
nodes = (
(277,348,o),
(336,401,o),
(336,486,cs),
(336,567,o),
(282,621,o),
(210,621,cs),
(173,621,o),
(146,607,o),
(139,594,c),
(145,590,l),
(145,714,l),
(49,714,l),
(49,491,ls),
(49,404,o),
(103,348,o),
(193,348,cs)
);
},
{
closed = 1;
nodes = (
(163,429,o),
(144,450,o),
(144,484,cs),
(144,519,o),
(164,540,o),
(193,540,cs),
(222,540,o),
(241,519,o),
(241,484,cs),
(241,450,o),
(222,429,o),
(193,429,cs)
);
}
);
};
color = 6;
layerId = "A1461942-0433-4891-A171-8512F51D8C86";
shapes = (
{
closed = 1;
nodes = (
(145,189,l),
(145,290,ls),
(145,326,o),
(163,349,o),
(196,349,cs),
(227,349,o),
(242,327,o),
(242,288,cs),
(242,189,l),
(358,189,l),
(358,303,ls),
(358,407,o),
(290,453,o),
(220,453,cs),
(173,453,o),
(131,430,o),
(121,404,c),
(145,378,l),
(145,546,l),
(29,546,l),
(29,189,l)
);
}
);
width = 387;
}
);
note = uni144B;
unicode = 5195;
},
{
color = 3;
glyphname = "te-canadian";
lastChange = "2022-04-26 09:30:55 +0000";
layers = (
{
background = {
shapes = (
{
closed = 1;
nodes = (
(1387,-10,o),
(1480,117,o),
(1480,338,cs),
(1480,714,l),
(1454,714,l),
(1454,338,ls),
(1454,136,o),
(1376,15,o),
(1180,15,cs),
(1051,15,o),
(970,70,o),
(933,167,cs),
(914,215,o),
(905,272,o),
(905,339,cs),
(905,714,l),
(879,714,l),
(879,339,ls),
(879,195,o),
(920,89,o),
(1009,33,cs),
(1053,4,o),
(1110,-10,o),
(1179,-10,cs)
);
},
{
closed = 1;
nodes = (
(646,925,l),
(646,430,l),
(654,439,l),
(628,556,o),
(521,640,o),
(379,640,cs),
(200,640,o),
(79,509,o),
(79,314,cs),
(79,118,o),
(198,-11,o),
(379,-11,cs),
(563,-11,o),
(680,118,o),
(680,320,cs),
(680,925,l)
);
},
{
closed = 1;
nodes = (
(548,614,o),
(654,497,o),
(654,314,cs),
(654,129,o),
(550,15,o),
(379,15,cs),
(211,15,o),
(105,132,o),
(105,315,cs),
(105,499,o),
(213,614,o),
(379,614,cs)
);
}
);
};
layerId = m01;
shapes = (
{
closed = 1;
nodes = (
(563,-12,o),
(679,115,o),
(679,329,cs),
(679,714,l),
(653,714,l),
(653,325,ls),
(653,127,o),
(550,14,o),
(379,14,cs),
(211,14,o),
(105,127,o),
(105,324,cs),
(105,714,l),
(79,714,l),
(79,323,ls),
(79,115,o),
(198,-12,o),
(379,-12,cs)
);
}
);
width = 758;
},
{
background = {
shapes = (
{
closed = 1;
nodes = (
(1583,-12,o),
(1679,63,o),
(1720,199,cs),
(1741,266,o),
(1751,347,o),
(1751,442,cs),
(1751,714,l),
(1560,714,l),
(1560,379,ls),
(1560,217,o),
(1511,151,o),
(1405,151,cs),
(1301,151,o),
(1250,219,o),
(1250,379,cs),
(1250,714,l),
(1059,714,l),
(1059,420,ls),
(1059,120,o),
(1177,-12,o),
(1404,-12,cs)
);
},
{
closed = 1;
nodes = (
(533,893,l),
(533,584,l),
(548,594,l),
(536,628,o),
(469,662,o),
(384,662,cs),
(193,662,o),
(59,523,o),
(59,320,cs),
(59,114,o),
(197,-15,o),
(413,-15,cs),
(636,-15,o),
(771,123,o),
(771,341,cs),
(771,893,l)
);
},
{
closed = 1;
nodes = (
(512,498,o),
(578,436,o),
(578,324,cs),
(578,213,o),
(517,149,o),
(415,149,cs),
(314,149,o),
(252,213,o),
(252,324,cs),
(252,436,o),
(318,498,o),
(415,498,cs)
);
}
);
};
layerId = "A1461942-0433-4891-A171-8512F51D8C86";
shapes = (
{
closed = 1;
nodes = (
(634,-15,o),
(767,121,o),
(767,347,cs),
(767,714,l),
(574,714,l),
(574,341,ls),
(574,215,o),
(520,152,o),
(413,152,cs),
(309,152,o),
(252,219,o),
(252,341,cs),
(252,714,l),
(59,714,l),
(59,347,ls),
(59,117,o),
(189,-15,o),
(414,-15,cs)
);
}
);
width = 826;
}
);
note = uni144C;
unicode = 5196;
},
{
color = 3;
glyphname = "ti-canadian";
lastChange = "2022-04-07 20:59:46 +0000";
layers = (
{
background = {
shapes = (
{
closed = 1;
nodes = (
(105,377,ls),
(105,510.333,o),
(140.667,608.833,o),
(222,661.5,cs),
(262.667,687.833,o),
(315.333,701,o),
(380,701,cs),
(575.651,701,o),
(654,580.387,o),
(654,378,cs),
(654,0,l),
(680,0,l),
(680,378,ls),
(680,598.866,o),
(586.908,726,o),
(379,726,cs),
(240.333,726,o),
(152.5,668.167,o),
(110.5,563.5,cs),
(89.5,511.167,o),
(79,449,o),
(79,377,cs),
(79,0,l),
(105,0,l),
(105,0,l)
);
}
);
};
layerId = m01;
shapes = (
{
closed = 1;
nodes = (
(195,726,o),
(79,599,o),
(79,385,cs),
(79,0,l),
(105,0,l),
(105,389,ls),
(105,587,o),
(208,700,o),
(379,700,cs),
(547,700,o),
(653,587,o),
(653,390,cs),
(653,0,l),
(679,0,l),
(679,391,ls),
(679,599,o),
(560,726,o),
(379,726,cs)
);
}
);
width = 758;
},
{
background = {
shapes = (
{
closed = 1;
nodes = (
(250,335,ls),
(250,494.693,o),
(300.852,563,o),
(405,563,cs),
(510.413,563,o),
(560,497.115,o),
(560,335,cs),
(560,0,l),
(751,0,l),
(751,272,ls),
(751,461.333,o),
(714.167,598.833,o),
(613.5,671.5,cs),
(563.167,707.833,o),
(493.333,726,o),
(404,726,cs),
(176.598,726,o),
(59,594.033,o),
(59,294,cs),
(59,0,l),
(250,0,l),
(250,0,l)
);
}
);
};
layerId = "A1461942-0433-4891-A171-8512F51D8C86";
shapes = (
{
closed = 1;
nodes = (
(198,729,o),
(59,595,o),
(59,368,cs),
(59,0,l),
(252,0,l),
(252,373,ls),
(252,495,o),
(315,562,o),
(418,562,cs),
(519,562,o),
(574,495,o),
(574,373,cs),
(574,0,l),
(767,0,l),
(767,367,ls),
(767,595,o),
(638,729,o),
(423,729,cs)
);
}
);
width = 826;
}
);
note = uni144E;
unicode = 5198;
},
{
color = 3;
glyphname = "to-canadian";
lastChange = "2022-05-05 16:32:43 +0000";
layers = (
{
background = {
shapes = (
{
closed = 1;
nodes = (
(1080,0,o),
(1198,118,o),
(1198,358,cs),
(1198,598,o),
(1081,714,o),
(818,714,cs),
(679,714,l),
(679,689,l),
(808,689,ls),
(983,689,o),
(1087,641,o),
(1135,542,cs),
(1159,493,o),
(1171,431,o),
(1171,357,cs),
(1171,209,o),
(1126,110,o),
(1019,62,cs),
(966,37,o),
(895,25,o),
(808,25,cs),
(679,25,l),
(679,0,l),
(818,0,l),
(818,0,l)
);
},
{
closed = 1;
nodes = (
(588,576,o),
(461,714,o),
(247,714,cs),
(79,714,l),
(79,689,l),
(251,689,ls),
(449,689,o),
(562,564,o),
(562,358,cs),
(562,154,o),
(449,25,o),
(252,25,cs),
(79,25,l),
(79,0,l),
(253,0,ls),
(461,0,o),
(588,142,o),
(588,357,cs)
);
}
);
};
layerId = m01;
shapes = (
{
closed = 1;
nodes = (
(588,576,o),
(460,714,o),
(244,714,cs),
(79,714,l),
(79,689,l),
(248,689,ls),
(448,689,o),
(562,564,o),
(562,358,cs),
(562,152,o),
(448,25,o),
(249,25,cs),
(79,25,l),
(79,0,l),
(250,0,ls),
(460,0,o),
(588,140,o),
(588,358,cs)
);
}
);
width = 667;
},
{
background = {
shapes = (
{
closed = 1;
nodes = (
(408,0,o),
(543,44,o),
(612,149,cs),
(647,201,o),
(664,270,o),
(664,357,cs),
(664,532,o),
(592,632,o),
(459,679,cs),
(392,702,o),
(311,714,o),
(216,714,cs),
(58,714,l),
(58,558,l),
(214,558,ls),
(375,558,o),
(470,503,o),
(470,357,cs),
(470,260,o),
(428,202,o),
(352,176,cs),
(314,163,o),
(268,156,o),
(214,156,cs),
(58,156,l),
(58,0,l),
(216,0,l),
(216,0,l)
);
}
);
};
layerId = "A1461942-0433-4891-A171-8512F51D8C86";
shapes = (
{
closed = 1;
nodes = (
(658,581,o),
(521,714,o),
(283,714,cs),
(59,714,l),
(59,547,l),
(270,547,ls),
(395,547,o),
(467,481,o),
(467,358,cs),
(467,235,o),
(395,167,o),
(270,167,cs),
(59,167,l),
(59,0,l),
(283,0,ls),
(521,0,o),
(658,135,o),
(658,358,cs)
);
}
);
width = 717;
}
);
note = uni1450;
unicode = 5200;
},
{
color = 3;
glyphname = "ta-canadian";
lastChange = "2022-05-05 16:32:34 +0000";
layers = (
{
background = {
shapes = (
{
closed = 1;
nodes = (
(598,25,l),
(469,25,ls),
(294.333,25,o),
(190,73.333,o),
(142,172,cs),
(118,221.333,o),
(106,283,o),
(106,357,cs),
(106,505,o),
(151.333,603.833,o),
(258,652.5,cs),
(311.333,676.833,o),
(381.667,689,o),
(469,689,cs),
(598,689,l),
(598,714,l),
(459,714,ls),
(196.061,714,o),
(79,598.118,o),
(79,358,cs),
(79,117.865,o),
(196.69,0,o),
(459,0,cs),
(598,0,l),
(598,0,l)
);
}
);
};
layerId = m01;
shapes = (
{
closed = 1;
nodes = (
(79,140,o),
(207,0,o),
(417,0,cs),
(588,0,l),
(588,25,l),
(418,25,ls),
(219,25,o),
(105,152,o),
(105,358,cs),
(105,564,o),
(219,689,o),
(419,689,cs),
(588,689,l),
(588,714,l),
(423,714,ls),
(207,714,o),
(79,576,o),
(79,358,cs)
);
}
);
width = 667;
},
{
background = {
shapes = (
{
closed = 1;
nodes = (
(675,156,l),
(519,156,ls),
(412,156,o),
(334,180,o),
(294,240,cs),
(273,269,o),
(263,308,o),
(263,357,cs),
(263,500,o),
(355,558,o),
(519,558,cs),
(675,558,l),
(675,714,l),
(517,714,ls),
(328,714,o),
(192,670,o),
(122,566,cs),
(87,514,o),
(69,444,o),
(69,357,cs),
(69,184,o),
(140,82,o),
(274,35,cs),
(341,12,o),
(422,0,o),
(517,0,cs),
(675,0,l),
(675,0,l)
);
}
);
};
layerId = "A1461942-0433-4891-A171-8512F51D8C86";
shapes = (
{
closed = 1;
nodes = (
(59,133,o),
(196,0,o),
(434,0,cs),
(658,0,l),
(658,167,l),
(447,167,ls),
(322,167,o),
(250,233,o),
(250,356,cs),
(250,479,o),
(322,547,o),
(447,547,cs),
(658,547,l),
(658,714,l),
(434,714,ls),
(196,714,o),
(59,579,o),
(59,356,cs)
);
}
);
width = 717;
}
);
note = uni1455;
unicode = 5205;
},
{
color = 3;
glyphname = "t-canadian";
lastChange = "2022-05-09 12:49:30 +0000";
layers = (
{
background = {
shapes = (
{
closed = 1;
nodes = (
(130.048,364,o),
(74,419.047,o),
(74,528,cs),
(74,638.02,o),
(130.237,692,o),
(264,692,c),
(264,714,l),
(118.832,714,o),
(49,655.614,o),
(49,528,cs),
(49,400,o),
(118.667,342,o),
(264,342,c),
(264,364,l),
(264,364,l)
);
}
);
};
layerId = m01;
shapes = (
{
closed = 1;
nodes = (
(304,357,l),
(304,379,l),
(223,379,ls),
(124,379,o),
(72,436,o),
(72,535,cs),
(72,634,o),
(124,692,o),
(223,692,cs),
(304,692,l),
(304,714,l),
(220,714,ls),
(113,714,o),
(49,644,o),
(49,535,cs),
(49,426,o),
(113,357,o),
(223,357,cs)
);
}
);
width = 353;
},
{
background = {
shapes = (
{
closed = 1;
nodes = (
(230,425,o),
(184.167,432.333,o),
(163.5,459,cs),
(153.167,472.333,o),
(148,491.667,o),
(148,517,cs),
(148,567.667,o),
(165.5,590.833,o),
(211.5,599.5,cs),
(234.5,603.833,o),
(266,606,o),
(306,606,c),
(306,714,l),
(176.667,714,o),
(95.5,692.167,o),
(57.5,635.5,cs),
(38.5,607.167,o),
(29,568,o),
(29,518,cs),
(29,370,o),
(112.667,317,o),
(306,317,c),
(306,425,l),
(306,425,l)
);
}
);
};
layerId = "A1461942-0433-4891-A171-8512F51D8C86";
shapes = (
{
closed = 1;
nodes = (
(339,357,l),
(339,460,l),
(235,460,ls),
(184,460,o),
(155,484,o),
(155,535,cs),
(155,585,o),
(184,611,o),
(235,611,cs),
(339,611,l),
(339,714,l),
(227,714,ls),
(108,714,o),
(39,646,o),
(39,535,cs),
(39,423,o),
(108,357,o),
(227,357,cs)
);
}
);
width = 378;
}
);
note = uni1466;
unicode = 5222;
},
{
color = 4;
glyphname = "ke-canadian";
lastChange = "2022-04-22 08:45:27 +0000";
layers = (
{
background = {
shapes = (
{
closed = 1;
nodes = (
(520,470,ls),
(520,633,o),
(437,726,o),
(297,726,cs),
(159,726,o),
(85,632,o),
(85,477,cs),
(85,311,o),
(170,213,o),
(308,213,cs),
(413,213,o),
(473,270,o),
(494,339,c),
(494,0,l),
(520,0,l),
(520,0,l)
);
},
{
closed = 1;
nodes = (
(186,238,o),
(112,323,o),
(112,476,cs),
(112,620,o),
(176,701,o),
(297,701,cs),
(423,701,o),
(494,618,o),
(494,470,cs),
(494,467,ls),
(494,317,o),
(423,238,o),
(307,238,cs)
);
},
{
closed = 1;
nodes = (
(-165,469,ls),
(-165,626,o),
(-256,726,o),
(-398,726,cs),
(-539,726,o),
(-631,626,o),
(-631,470,cs),
(-631,314,o),
(-539,214,o),
(-398,214,cs),
(-275,214,o),
(-199,293,o),
(-185,372,c),
(-191,384,l),
(-191,0,l),
(-165,0,l)
);
},
{
closed = 1;
nodes = (
(-522,239,o),
(-605,325,o),
(-605,470,cs),
(-605,615,o),
(-522,701,o),
(-398,701,cs),
(-274,701,o),
(-191,617,o),
(-191,471,cs),
(-191,325,o),
(-274,239,o),
(-398,239,cs)
);
}
);
};
layerId = m01;
shapes = (
{
closed = 1;
nodes = (
(535,469,ls),
(535,626,o),
(444,726,o),
(302,726,cs),
(161,726,o),
(69,625,o),
(69,472,cs),
(69,321,o),
(163,221,o),
(302,221,cs),
(412,221,o),
(495,286,o),
(515,377,c),
(509,384,l),
(509,0,l),
(535,0,l)
);
},
{
closed = 1;
nodes = (
(177,246,o),
(95,334,o),
(95,474,cs),
(95,612,o),
(175,701,o),
(302,701,cs),
(430,701,o),
(509,614,o),
(509,474,cs),
(509,335,o),
(429,246,o),
(302,246,cs)
);
}
);
width = 614;
},
{
background = {
shapes = (
{
closed = 1;
nodes = (
(430,0,l),
(621,0,l),
(621,443,ls),
(621,618,o),
(513,729,o),
(339,729,cs),
(167,729,o),
(49,620,o),
(49,452,cs),
(49,292,o),
(157,185,o),
(297,185,cs),
(375,185,o),
(439,222,o),
(450,261,c),
(437,395,l),
(412,362,o),
(368,347,o),
(335,347,cs),
(278,347,o),
(238,387,o),
(238,455,cs),
(238,527,o),
(277,567,o),
(334,567,cs),
(391,567,o),
(430,527,o),
(430,457,cs)
);
}
);
};
layerId = "A1461942-0433-4891-A171-8512F51D8C86";
shapes = (
{
closed = 1;
nodes = (
(621,443,ls),
(621,618,o),
(513,729,o),
(339,729,cs),
(167,729,o),
(49,620,o),
(49,452,cs),
(49,292,o),
(157,185,o),
(307,185,cs),
(378,185,o),
(432,213,o),
(442,240,c),
(430,248,l),
(430,0,l),
(621,0,l)
);
},
{
closed = 1;
nodes = (
(278,347,o),
(238,387,o),
(238,457,cs),
(238,527,o),
(275,567,o),
(335,567,cs),
(395,567,o),
(432,527,o),
(432,457,cs),
(432,387,o),
(392,347,o),
(335,347,cs)
);
}
);
width = 680;
}
);
note = uni146B;
unicode = 5227;
},
{
color = 4;
glyphname = "ki-canadian";
lastChange = "2022-04-08 16:32:06 +0000";
layers = (
{
background = {
shapes = (
{
closed = 1;
nodes = (
(805,339,l),
(828,270,o),
(886,213,o),
(991,213,cs),
(1131,213,o),
(1214,313,o),
(1214,477,cs),
(1214,632,o),
(1140,726,o),
(1002,726,cs),
(862,726,o),
(779,633,o),
(779,470,cs),
(779,0,l),
(805,0,l),
(805,0,l)
);
},
{
closed = 1;
nodes = (
(876,238,o),
(805,317,o),
(805,467,cs),
(805,470,ls),
(805,614,o),
(876,701,o),
(1002,701,cs),
(1123,701,o),
(1187,620,o),
(1187,476,cs),
(1187,323,o),
(1115,238,o),
(992,238,cs)
);
},
{
closed = 1;
nodes = (
(105,0,l),
(105,384,l),
(99,372,l),
(119,280,o),
(202,214,o),
(312,214,cs),
(453,214,o),
(545,315,o),
(545,470,cs),
(545,625,o),
(453,726,o),
(312,726,cs),
(170,726,o),
(79,626,o),
(79,469,cs),
(79,0,l)
);
},
{
closed = 1;
nodes = (
(185,239,o),
(105,329,o),
(105,471,cs),
(105,613,o),
(184,701,o),
(312,701,cs),
(439,701,o),
(519,612,o),
(519,470,cs),
(519,328,o),
(439,239,o),
(312,239,cs)
);
}
);
};
layerId = m01;
shapes = (
{
closed = 1;
nodes = (
(105,0,l),
(105,384,l),
(99,377,l),
(120,286,o),
(202,221,o),
(312,221,cs),
(451,221,o),
(545,321,o),
(545,474,cs),
(545,625,o),
(453,726,o),
(312,726,cs),
(170,726,o),
(79,626,o),
(79,469,cs),
(79,0,l)
);
},
{
closed = 1;
nodes = (
(185,246,o),
(105,335,o),
(105,474,cs),
(105,614,o),
(184,701,o),
(312,701,cs),
(439,701,o),
(519,612,o),
(519,474,cs),
(519,334,o),
(437,246,o),
(312,246,cs)
);
}
);
width = 614;
},
{
background = {
shapes = (
{
closed = 1;
nodes = (
(1050,217,l),
(1070,208,o),
(1104,200,o),
(1149,200,cs),
(1268,200,o),
(1348,252,o),
(1389,332,cs),
(1409,372,o),
(1419,416,o),
(1419,463,cs),
(1419,582,o),
(1353,726,o),
(1136,726,cs),
(928,726,o),
(859,593,o),
(859,457,cs),
(859,0,l),
(1050,0,l),
(1050,0,l)
);
},
{
closed = 1;
nodes = (
(1091,361,o),
(1068,383,o),
(1058,409,cs),
(1053,422,o),
(1050,433,o),
(1050,443,cs),
(1050,474,ls),
(1050,528,o),
(1077,565,o),
(1137,565,cs),
(1198,565,o),
(1225,526,o),
(1225,465,cs),
(1225,404,o),
(1199,361,o),
(1136,361,cs)
);
},
{
closed = 1;
nodes = (
(250,0,l),
(250,248,l),
(238,240,l),
(248,213,o),
(302,185,o),
(373,185,cs),
(523,185,o),
(631,294,o),
(631,458,cs),
(631,624,o),
(515,729,o),
(349,729,cs),
(175,729,o),
(59,618,o),
(59,443,cs),
(59,0,l)
);
},
{
closed = 1;
nodes = (
(289,349,o),
(250,388,o),
(250,457,cs),
(250,526,o),
(286,565,o),
(345,565,cs),
(404,565,o),
(440,526,o),
(440,457,cs),
(440,388,o),
(401,349,o),
(345,349,cs)
);
}
);
};
layerId = "A1461942-0433-4891-A171-8512F51D8C86";
shapes = (
{
closed = 1;
nodes = (
(250,0,l),
(250,248,l),
(238,240,l),
(248,213,o),
(302,185,o),
(373,185,cs),
(523,185,o),
(631,294,o),
(631,458,cs),
(631,624,o),
(515,729,o),
(349,729,cs),
(175,729,o),
(59,618,o),
(59,443,cs),
(59,0,l)
);
},
{
closed = 1;
nodes = (
(288,347,o),
(248,387,o),
(248,457,cs),
(248,527,o),
(285,567,o),
(345,567,cs),
(405,567,o),
(442,527,o),
(442,457,cs),
(442,387,o),
(402,347,o),
(345,347,cs)
);
}
);
width = 680;
}
);
note = uni146D;
unicode = 5229;
},
{
color = 4;
glyphname = "ko-canadian";
lastChange = "2022-04-13 12:10:56 +0000";
layers = (
{
background = {
shapes = (
{
closed = 1;
nodes = (
(1121,-12,o),
(1204,81,o),
(1204,244,cs),
(1204,714,l),
(1178,714,l),
(1178,375,l),
(1157,446,o),
(1097,501,o),
(992,501,cs),
(854,501,o),
(769,403,o),
(769,237,cs),
(769,82,o),
(843,-12,o),
(981,-12,cs)
);
},
{
closed = 1;
nodes = (
(860,13,o),
(796,94,o),
(796,238,cs),
(796,391,o),
(870,476,o),
(991,476,cs),
(1107,476,o),
(1178,397,o),
(1178,247,cs),
(1178,244,ls),
(1178,96,o),
(1107,13,o),
(981,13,cs)
);
},
{
closed = 1;
nodes = (
(509,714,l),
(509,330,l),
(515,342,l),
(495,434,o),
(412,500,o),
(302,500,cs),
(163,500,o),
(69,399,o),
(69,246,cs),
(69,90,o),
(161,-12,o),
(302,-12,cs),
(444,-12,o),
(535,88,o),
(535,245,cs),
(535,714,l)
);
},
{
closed = 1;
nodes = (
(429,475,o),
(509,385,o),
(509,243,cs),
(509,101,o),
(430,13,o),
(302,13,cs),
(175,13,o),
(95,103,o),
(95,244,cs),
(95,386,o),
(177,475,o),
(302,475,cs)
);
}
);
};
layerId = m01;
shapes = (
{
closed = 1;
nodes = (
(509,714,l),
(509,330,l),
(515,337,l),
(495,428,o),
(412,493,o),
(302,493,cs),
(163,493,o),
(69,391,o),
(69,240,cs),
(69,88,o),
(161,-12,o),
(302,-12,cs),
(444,-12,o),
(535,88,o),
(535,245,cs),
(535,714,l)
);
},
{
closed = 1;
nodes = (
(429,468,o),
(509,379,o),
(509,240,cs),
(509,100,o),
(430,13,o),
(302,13,cs),
(175,13,o),
(95,102,o),
(95,241,cs),
(95,380,o),
(177,468,o),
(302,468,cs)
);
}
);
width = 604;
},
{
background = {
shapes = (
{
closed = 1;
nodes = (
(1240,-12,o),
(1309,121,o),
(1309,257,cs),
(1309,714,l),
(1118,714,l),
(1118,497,l),
(1098,506,o),
(1066,514,o),
(1019,514,cs),
(900,514,o),
(820,462,o),
(780,383,cs),
(759,343,o),
(749,299,o),
(749,251,cs),
(749,132,o),
(815,-12,o),
(1032,-12,cs)
);
},
{
closed = 1;
nodes = (
(970,149,o),
(943,188,o),
(943,249,cs),
(943,310,o),
(969,353,o),
(1032,353,cs),
(1077,353,o),
(1101,331,o),
(1111,306,cs),
(1116,293,o),
(1118,282,o),
(1118,271,cs),
(1118,240,ls),
(1118,186,o),
(1092,149,o),
(1031,149,cs)
);
},
{
closed = 1;
nodes = (
(430,714,l),
(430,466,l),
(442,474,l),
(432,501,o),
(378,529,o),
(310,529,cs),
(157,529,o),
(49,417,o),
(49,254,cs),
(49,89,o),
(160,-15,o),
(333,-15,cs),
(512,-15,o),
(621,96,o),
(621,271,cs),
(621,714,l)
);
},
{
closed = 1;
nodes = (
(391,365,o),
(430,326,o),
(430,257,cs),
(430,188,o),
(394,149,o),
(335,149,cs),
(276,149,o),
(240,188,o),
(240,257,cs),
(240,326,o),
(279,365,o),
(335,365,cs)
);
}
);
};
layerId = "A1461942-0433-4891-A171-8512F51D8C86";
shapes = (
{
closed = 1;
nodes = (
(430,714,l),
(430,466,l),
(442,474,l),
(432,501,o),
(378,529,o),
(310,529,cs),
(157,529,o),
(49,417,o),
(49,254,cs),
(49,89,o),
(160,-15,o),
(333,-15,cs),
(512,-15,o),
(621,96,o),
(621,271,cs),
(621,714,l)
);
},
{
closed = 1;
nodes = (
(392,367,o),
(432,327,o),
(432,257,cs),
(432,187,o),
(395,147,o),
(335,147,cs),
(275,147,o),
(238,187,o),
(238,257,cs),
(238,327,o),
(278,367,o),
(335,367,cs)
);
}
);
width = 680;
}
);
note = uni146F;
unicode = 5231;
},
{
color = 4;
glyphname = "ka-canadian";
lastChange = "2022-04-07 09:30:19 +0000";
layers = (
{
background = {
shapes = (
{
closed = 1;
nodes = (
(1140,-12,o),
(1214,82,o),
(1214,237,cs),
(1214,401,o),
(1131,501,o),
(991,501,cs),
(886,501,o),
(828,446,o),
(805,375,c),
(805,714,l),
(779,714,l),
(779,244,ls),
(779,81,o),
(862,-12,o),
(1002,-12,cs)
);
},
{
closed = 1;
nodes = (
(876,13,o),
(805,100,o),
(805,244,cs),
(805,247,ls),
(805,397,o),
(876,476,o),
(992,476,cs),
(1115,476,o),
(1187,391,o),
(1187,238,cs),
(1187,94,o),
(1123,13,o),
(1002,13,cs)
);
},
{
closed = 1;
nodes = (
(453,-12,o),
(545,90,o),
(545,244,cs),
(545,399,o),
(451,500,o),
(312,500,cs),
(202,500,o),
(119,434,o),
(99,342,c),
(105,330,l),
(105,714,l),
(79,714,l),
(79,245,ls),
(79,88,o),
(169,-12,o),
(311,-12,cs)
);
},
{
closed = 1;
nodes = (
(184,13,o),
(105,101,o),
(105,243,cs),
(105,385,o),
(185,475,o),
(312,475,cs),
(437,475,o),
(519,386,o),
(519,244,cs),
(519,103,o),
(439,13,o),
(312,13,cs)
);
}
);
};
layerId = m01;
shapes = (
{
closed = 1;
nodes = (
(453,-12,o),
(545,89,o),
(545,241,cs),
(545,393,o),
(451,493,o),
(312,493,cs),
(202,493,o),
(119,428,o),
(99,337,c),
(105,330,l),
(105,714,l),
(79,714,l),
(79,245,ls),
(79,88,o),
(169,-12,o),
(311,-12,cs)
);
},
{
closed = 1;
nodes = (
(184,13,o),
(105,100,o),
(105,240,cs),
(105,379,o),
(185,468,o),
(312,468,cs),
(437,468,o),
(519,380,o),
(519,241,cs),
(519,102,o),
(439,13,o),
(312,13,cs)
);
}
);
width = 614;
},
{
background = {
shapes = (
{
closed = 1;
nodes = (
(1453,-12,o),
(1519,132,o),
(1519,251,cs),
(1519,347,o),
(1478,430,o),
(1398,478,cs),
(1358,502,o),
(1308,514,o),
(1249,514,cs),
(1204,514,o),
(1170,506,o),
(1150,497,c),
(1150,714,l),
(959,714,l),
(959,257,ls),
(959,121,o),
(1028,-12,o),
(1236,-12,cs)
);
},
{
closed = 1;
nodes = (
(1180,149,o),
(1150,181,o),
(1150,240,cs),
(1150,271,ls),
(1150,292,o),
(1159,320,o),
(1184,339,cs),
(1196,348,o),
(1213,353,o),
(1236,353,cs),
(1299,353,o),
(1325,310,o),
(1325,249,cs),
(1325,188,o),
(1298,149,o),
(1237,149,cs)
);
},
{
closed = 1;
nodes = (
(512,-15,o),
(631,90,o),
(631,259,cs),
(631,420,o),
(523,529,o),
(380,529,cs),
(307,529,o),
(253,501,o),
(238,474,c),
(250,466,l),
(250,714,l),
(59,714,l),
(59,271,ls),
(59,96,o),
(167,-15,o),
(345,-15,cs)
);
},
{
closed = 1;
nodes = (
(286,149,o),
(250,188,o),
(250,257,cs),
(250,326,o),
(289,365,o),
(345,365,cs),
(401,365,o),
(440,326,o),
(440,257,cs),
(440,188,o),
(404,149,o),
(345,149,cs)
);
}
);
};
layerId = "A1461942-0433-4891-A171-8512F51D8C86";
shapes = (
{
closed = 1;
nodes = (
(512,-15,o),
(631,90,o),
(631,259,cs),
(631,420,o),
(523,529,o),
(380,529,cs),
(307,529,o),
(253,501,o),
(238,474,c),
(250,466,l),
(250,714,l),
(59,714,l),
(59,271,ls),
(59,96,o),
(167,-15,o),
(345,-15,cs)
);
},
{
closed = 1;
nodes = (
(285,147,o),
(248,187,o),
(248,257,cs),
(248,327,o),
(288,367,o),
(345,367,cs),
(402,367,o),
(442,327,o),
(442,257,cs),
(442,187,o),
(405,147,o),
(345,147,cs)
);
}
);
width = 680;
}
);
note = uni1472;
unicode = 5234;
},
{
color = 3;
glyphname = "k-canadian";
lastChange = "2022-05-10 10:14:58 +0000";
layers = (
{
background = {
shapes = (
{
closed = 1;
nodes = (
(250,351,o),
(304,407,o),
(304,488,cs),
(304,568,o),
(250,622,o),
(177,622,cs),
(118,622,o),
(72,582,o),
(63,528,c),
(73,516,l),
(73,714,l),
(49,714,l),
(49,487,ls),
(49,403,o),
(102,351,o),
(176,351,cs)
);
},
{
closed = 1;
nodes = (
(110,372,o),
(71,415,o),
(71,487,cs),
(71,556,o),
(115,601,o),
(176,601,cs),
(239,601,o),
(282,556,o),
(282,488,cs),
(282,418,o),
(240,372,o),
(177,372,cs)
);
}
);
};
layerId = m01;
shapes = (
{
closed = 1;
nodes = (
(250,351,o),
(304,407,o),
(304,488,cs),
(304,568,o),
(250,622,o),
(177,622,cs),
(118,622,o),
(72,582,o),
(63,528,c),
(73,516,l),
(73,714,l),
(49,714,l),
(49,487,ls),
(49,403,o),
(102,351,o),
(176,351,cs)
);
},
{
closed = 1;
nodes = (
(111,373,o),
(72,416,o),
(72,487,cs),
(72,555,o),
(116,600,o),
(176,600,cs),
(238,600,o),
(281,555,o),
(281,488,cs),
(281,419,o),
(239,373,o),
(177,373,cs)
);
}
);
width = 353;
},
{
background = {
shapes = (
{
closed = 1;
nodes = (
(275,351,o),
(334,403,o),
(334,487,cs),
(334,568,o),
(280,622,o),
(209,622,cs),
(172,622,o),
(146,608,o),
(138,594,c),
(144,591,l),
(144,714,l),
(49,714,l),
(49,493,ls),
(49,406,o),
(103,351,o),
(191,351,cs)
);
},
{
closed = 1;
nodes = (
(162,432,o),
(143,452,o),
(143,486,cs),
(143,521,o),
(163,541,o),
(191,541,cs),
(220,541,o),
(240,521,o),
(240,486,cs),
(240,452,o),
(221,432,o),
(191,432,cs)
);
}
);
};
layerId = "A1461942-0433-4891-A171-8512F51D8C86";
shapes = (
{
closed = 1;
nodes = (
(277,351,o),
(344,403,o),
(344,487,cs),
(344,568,o),
(288,622,o),
(217,622,cs),
(178,622,o),
(150,604,o),
(141,588,c),
(153,588,l),
(153,714,l),
(39,714,l),
(39,496,ls),
(39,410,o),
(100,351,o),
(197,351,cs)
);
},
{
closed = 1;
nodes = (
(166,437,o),
(147,455,o),
(147,486,cs),
(147,518,o),
(167,536,o),
(193,536,cs),
(220,536,o),
(240,518,o),
(240,486,cs),
(240,455,o),
(220,437,o),
(193,437,cs)
);
}
);
width = 383;
}
);
note = uni1483;
unicode = 5251;
},
{
color = 3;
glyphname = "kw-canadian";
lastChange = "2022-05-10 10:14:42 +0000";
layers = (
{
background = {
shapes = (
{
closed = 1;
nodes = (
(251,351,o),
(304,403,o),
(304,487,cs),
(304,714,l),
(280,714,l),
(280,516,l),
(290,528,l),
(281,582,o),
(235,622,o),
(176,622,cs),
(103,622,o),
(49,568,o),
(49,488,cs),
(49,407,o),
(103,351,o),
(177,351,cs)
);
},
{
closed = 1;
nodes = (
(113,372,o),
(71,418,o),
(71,488,cs),
(71,556,o),
(114,601,o),
(177,601,cs),
(238,601,o),
(282,556,o),
(282,487,cs),
(282,415,o),
(243,372,o),
(176,372,cs)
);
}
);
};
layerId = m01;
shapes = (
{
closed = 1;
nodes = (
(251,351,o),
(304,403,o),
(304,487,cs),
(304,714,l),
(280,714,l),
(280,516,l),
(290,528,l),
(281,582,o),
(235,622,o),
(176,622,cs),
(103,622,o),
(49,568,o),
(49,488,cs),
(49,407,o),
(103,351,o),
(177,351,cs)
);
},
{
closed = 1;
nodes = (
(114,373,o),
(72,419,o),
(72,488,cs),
(72,555,o),
(115,600,o),
(177,600,cs),
(237,600,o),
(281,555,o),
(281,487,cs),
(281,416,o),
(242,373,o),
(176,373,cs)
);
}
);
width = 353;
},
{
background = {
shapes = (
{
closed = 1;
nodes = (
(258,305,o),
(303,338,o),
(323,383,cs),
(332,406,o),
(337,429,o),
(337,453,cs),
(337,714,l),
(227,714,l),
(227,598,l),
(213,602,o),
(197,604,o),
(178,604,cs),
(98,604,o),
(54,572,o),
(34,526,cs),
(24,503,o),
(19,478,o),
(19,453,cs),
(19,405,o),
(38,356,o),
(84,327,cs),
(107,312,o),
(138,305,o),
(178,305,cs)
);
},
{
closed = 1;
nodes = (
(144,396,o),
(124,418,o),
(124,451,cs),
(124,490,o),
(143,511,o),
(176,511,cs),
(209,511,o),
(228,490,o),
(228,451,cs),
(228,418,o),
(209,396,o),
(176,396,cs)
);
}
);
};
layerId = "A1461942-0433-4891-A171-8512F51D8C86";
shapes = (
{
closed = 1;
nodes = (
(283,351,o),
(344,410,o),
(344,496,cs),
(344,714,l),
(230,714,l),
(230,585,l),
(252,585,l),
(243,603,o),
(215,622,o),
(176,622,cs),
(95,622,o),
(39,568,o),
(39,487,cs),
(39,403,o),
(106,351,o),
(186,351,cs)
);
},
{
closed = 1;
nodes = (
(163,437,o),
(143,455,o),
(143,486,cs),
(143,518,o),
(163,536,o),
(190,536,cs),
(216,536,o),
(236,518,o),
(236,486,cs),
(236,455,o),
(217,437,o),
(190,437,cs)
);
}
);
width = 383;
}
);
note = uni1484;
unicode = 5252;
},
{
color = 3;
glyphname = "ce-canadian";
lastChange = "2022-04-22 09:29:37 +0000";
layers = (
{
background = {
shapes = (
{
closed = 1;
nodes = (
(1348,462,ls),
(1348,651,o),
(1267,724,o),
(1113,724,cs),
(959,724,o),
(869,652,o),
(869,460,cs),
(869,410,l),
(895,410,l),
(895,458,ls),
(895,636,o),
(974,699,o),
(1113,699,cs),
(1255,699,o),
(1322,634,o),
(1322,470,cs),
(1322,0,l),
(1348,0,l),
(1348,0,l)
);
},
{
closed = 1;
nodes = (
(535,472,ls),
(535,625,o),
(443,726,o),
(302,726,cs),
(161,726,o),
(69,625,o),
(69,472,cs),
(69,410,l),
(95,410,l),
(95,472,ls),
(95,612,o),
(175,701,o),
(302,701,cs),
(429,701,o),
(509,612,o),
(509,472,cs),
(509,0,l),
(535,0,l)
);
}
);
};
layerId = m01;
shapes = (
{
closed = 1;
nodes = (
(533,0,l),
(533,469,ls),
(533,628,o),
(444,726,o),
(303,726,cs),
(158,726,o),
(69,628,o),
(69,469,cs),
(69,410,l),
(95,410,l),
(95,469,ls),
(95,615,o),
(172,701,o),
(303,701,cs),
(430,701,o),
(507,615,o),
(507,472,cs),
(507,0,l)
);
}
);
width = 612;
},
{
background = {
shapes = (
{
closed = 1;
nodes = (
(1406,413,ls),
(1406,561,o),
(1379,651,o),
(1300,694,cs),
(1260,715,o),
(1203,726,o),
(1130,726,cs),
(985,726,o),
(905,685,o),
(872,593,cs),
(855,547,o),
(847,487,o),
(847,413,cs),
(847,394,l),
(1046,394,l),
(1046,450,ls),
(1046,531,o),
(1069,565,o),
(1130,565,cs),
(1192,565,o),
(1213,531,o),
(1213,450,cs),
(1213,0,l),
(1406,0,l),
(1406,0,l)
);
},
{
closed = 1;
nodes = (
(613,0,l),
(613,440,ls),
(613,626,o),
(508,726,o),
(336,726,cs),
(158,726,o),
(47,618,o),
(47,448,cs),
(47,387,l),
(238,387,l),
(238,448,ls),
(238,522,o),
(270,562,o),
(331,562,cs),
(390,562,o),
(422,523,o),
(422,452,cs),
(422,0,l)
);
}
);
};
layerId = "A1461942-0433-4891-A171-8512F51D8C86";
shapes = (
{
closed = 1;
nodes = (
(613,0,l),
(613,443,ls),
(613,629,o),
(508,729,o),
(336,729,cs),
(158,729,o),
(49,621,o),
(49,441,cs),
(49,390,l),
(240,390,l),
(240,451,ls),
(240,525,o),
(272,563,o),
(331,563,cs),
(388,563,o),
(420,526,o),
(420,450,cs),
(420,0,l)
);
}
);
width = 672;
}
);
note = uni1489;
unicode = 5257;
},
{
color = 3;
glyphname = "ci-canadian";
lastChange = "2022-04-05 12:04:48 +0000";
layers = (
{
background = {
shapes = (
{
closed = 1;
nodes = (
(805,470,ls),
(805,634,o),
(872,699,o),
(1014,699,cs),
(1153,699,o),
(1232,636,o),
(1232,458,cs),
(1232,410,l),
(1258,410,l),
(1258,460,ls),
(1258,591,o),
(1217,666,o),
(1145,699,cs),
(1108,716,o),
(1065,724,o),
(1014,724,cs),
(860,724,o),
(779,651,o),
(779,462,cs),
(779,0,l),
(805,0,l),
(805,0,l)
);
},
{
closed = 1;
nodes = (
(105,0,l),
(105,472,ls),
(105,615,o),
(182,701,o),
(309,701,cs),
(440,701,o),
(517,615,o),
(517,469,cs),
(517,410,l),
(543,410,l),
(543,469,ls),
(543,628,o),
(454,726,o),
(309,726,cs),
(168,726,o),
(79,628,o),
(79,469,cs),
(79,0,l)
);
}
);
};
layerId = m01;
shapes = (
{
closed = 1;
nodes = (
(105,0,l),
(105,472,ls),
(105,615,o),
(182,701,o),
(313,701,cs),
(443,701,o),
(517,615,o),
(517,469,cs),
(517,410,l),
(543,410,l),
(543,469,ls),
(543,627,o),
(456,726,o),
(313,726,cs),
(168,726,o),
(79,628,o),
(79,469,cs),
(79,0,l)
);
}
);
width = 612;
},
{
layerId = "A1461942-0433-4891-A171-8512F51D8C86";
shapes = (
{
closed = 1;
nodes = (
(252,0,l),
(252,450,ls),
(252,525,o),
(287,563,o),
(345,563,cs),
(401,563,o),
(432,527,o),
(432,454,cs),
(432,390,l),
(623,390,l),
(623,441,ls),
(623,621,o),
(523,729,o),
(349,729,cs),
(167,729,o),
(59,622,o),
(59,441,cs),
(59,0,l)
);
}
);
width = 672;
}
);
note = uni148B;
unicode = 5259;
},
{
color = 3;
glyphname = "co-canadian";
lastChange = "2022-04-05 11:08:44 +0000";
layers = (
{
background = {
shapes = (
{
closed = 1;
nodes = (
(467.62,-10,o),
(548,63.476,o),
(548,252,cs),
(548,714,l),
(522,714,l),
(522,244,ls),
(522,79.807,o),
(454.881,15,o),
(313,15,cs),
(174.38,15,o),
(95,78.202,o),
(95,256,cs),
(95,304,l),
(69,304,l),
(69,254,ls),
(69,62.449,o),
(158.558,-10,o),
(313,-10,cs)
);
}
);
};
layerId = m01;
shapes = (
{
closed = 1;
nodes = (
(444,-12,o),
(533,81,o),
(533,247,cs),
(533,714,l),
(507,714,l),
(507,244,ls),
(507,95,o),
(430,13,o),
(303,13,cs),
(169,13,o),
(95,97,o),
(95,247,cs),
(95,304,l),
(69,304,l),
(69,243,ls),
(69,86,o),
(155,-12,o),
(303,-12,cs)
);
}
);
width = 612;
},
{
background = {
shapes = (
{
closed = 1;
nodes = (
(478.667,-12,o),
(553.167,29,o),
(584.5,121,cs),
(600.167,167,o),
(608,227,o),
(608,301,cs),
(608,714,l),
(415,714,l),
(415,264,ls),
(415,184.188,o),
(395.128,149,o),
(332,149,cs),
(271.502,149,o),
(248,183.038,o),
(248,264,cs),
(248,320,l),
(49,320,l),
(49,301,ls),
(49,153,o),
(78.333,62.667,o),
(161,20,cs),
(202.333,-1.333,o),
(259.333,-12,o),
(332,-12,cs)
);
}
);
};
layerId = "A1461942-0433-4891-A171-8512F51D8C86";
shapes = (
{
closed = 1;
nodes = (
(506,-15,o),
(613,85,o),
(613,271,cs),
(613,714,l),
(420,714,l),
(420,260,ls),
(420,186,o),
(389,151,o),
(331,151,cs),
(270,151,o),
(240,189,o),
(240,273,cs),
(240,324,l),
(49,324,l),
(49,273,ls),
(49,94,o),
(149,-15,o),
(335,-15,cs)
);
}
);
width = 672;
}
);
note = uni148D;
unicode = 5261;
},
{
color = 3;
glyphname = "ca-canadian";
lastChange = "2022-05-09 13:32:53 +0000";
layers = (
{
background = {
shapes = (
{
closed = 1;
nodes = (
(415.333,-10,o),
(489.167,20.667,o),
(528.5,98,cs),
(548.167,136.667,o),
(558,188.667,o),
(558,254,cs),
(558,304,l),
(532,304,l),
(532,256,ls),
(532,78.202,o),
(452.62,15,o),
(314,15,cs),
(172.119,15,o),
(105,79.807,o),
(105,244,cs),
(105,714,l),
(79,714,l),
(79,252,ls),
(79,63.476,o),
(159.38,-10,o),
(314,-10,cs)
);
}
);
};
layerId = m01;
shapes = (
{
closed = 1;
nodes = (
(458,-12,o),
(543,83,o),
(543,245,cs),
(543,304,l),
(517,304,l),
(517,247,ls),
(517,95,o),
(444,13,o),
(313,13,cs),
(179,13,o),
(105,97,o),
(105,242,cs),
(105,714,l),
(79,714,l),
(79,245,ls),
(79,81,o),
(168,-12,o),
(313,-12,cs)
);
}
);
width = 612;
},
{
background = {
shapes = (
{
closed = 1;
nodes = (
(512,-15,o),
(631,90,o),
(631,259,cs),
(631,420,o),
(523,529,o),
(380,529,cs),
(307,529,o),
(253,501,o),
(238,474,c),
(250,466,l),
(250,714,l),
(59,714,l),
(59,271,ls),
(59,96,o),
(167,-15,o),
(345,-15,cs)
);
},
{
closed = 1;
nodes = (
(285,147,o),
(248,187,o),
(248,257,cs),
(248,327,o),
(288,367,o),
(345,367,cs),
(402,367,o),
(442,327,o),
(442,257,cs),
(442,187,o),
(405,147,o),
(345,147,cs)
);
}
);
};
layerId = "A1461942-0433-4891-A171-8512F51D8C86";
shapes = (
{
closed = 1;
nodes = (
(519,-15,o),
(623,93,o),
(623,273,cs),
(623,324,l),
(432,324,l),
(432,268,ls),
(432,187,o),
(401,151,o),
(344,151,cs),
(284,151,o),
(252,190,o),
(252,271,cs),
(252,714,l),
(59,714,l),
(59,271,ls),
(59,88,o),
(159,-15,o),
(344,-15,cs)
);
}
);
width = 672;
}
);
note = uni1490;
unicode = 5264;
},
{
color = 3;
glyphname = "c-canadian";
lastChange = "2022-05-10 10:15:37 +0000";
layers = (
{
background = {
shapes = (
{
closed = 1;
nodes = (
(250,351,o),
(304,407,o),
(304,488,cs),
(304,568,o),
(250,622,o),
(177,622,cs),
(118,622,o),
(72,582,o),
(63,528,c),
(73,516,l),
(73,714,l),
(49,714,l),
(49,487,ls),
(49,403,o),
(102,351,o),
(176,351,cs)
);
},
{
closed = 1;
nodes = (
(110,372,o),
(71,415,o),
(71,487,cs),
(71,556,o),
(115,601,o),
(176,601,cs),
(239,601,o),
(282,556,o),
(282,488,cs),
(282,418,o),
(240,372,o),
(177,372,cs)
);
}
);
};
layerId = m01;
shapes = (
{
closed = 1;
nodes = (
(249,351,o),
(304,397,o),
(304,483,cs),
(304,500,l),
(281,500,l),
(281,479,ls),
(281,409,o),
(239,373,o),
(176,373,cs),
(112,373,o),
(73,410,o),
(73,489,cs),
(73,714,l),
(49,714,l),
(49,491,ls),
(49,399,o),
(100,351,o),
(177,351,cs)
);
}
);
width = 353;
},
{
background = {
shapes = (
{
closed = 1;
nodes = (
(300,305,o),
(356,365.667,o),
(356,467,cs),
(356,519,l),
(243,519,l),
(243,483,ls),
(243,441.667,o),
(230.667,413,o),
(196,413,cs),
(161.333,413,o),
(148,441.667,o),
(148,483,cs),
(148,714,l),
(39,714,l),
(39,483,ls),
(39,365.667,o),
(92,305,o),
(196,305,cs)
);
}
);
};
layerId = "A1461942-0433-4891-A171-8512F51D8C86";
shapes = (
{
closed = 1;
nodes = (
(289,351,o),
(348,405,o),
(348,491,cs),
(348,510,l),
(240,510,l),
(240,490,ls),
(240,456,o),
(224,437,o),
(196,437,cs),
(169,437,o),
(155,457,o),
(155,487,cs),
(155,714,l),
(39,714,l),
(39,506,ls),
(39,404,o),
(92,351,o),
(197,351,cs)
);
}
);
width = 387;
}
);
note = uni14A1;
unicode = 5281;
},
{
color = 3;
glyphname = "thSayisi-canadian";
lastChange = "2022-05-10 10:15:42 +0000";
layers = (
{
background = {
shapes = (
{
closed = 1;
nodes = (
(241,351,o),
(285,399,o),
(285,479,cs),
(285,714,l),
(261,714,l),
(261,484,ls),
(261,410,o),
(230,372,o),
(168,372,cs),
(103,372,o),
(72,409,o),
(72,479,cs),
(72,500,l),
(49,500,l),
(49,480,ls),
(49,395,o),
(92,351,o),
(166,351,cs)
);
}
);
};
layerId = m01;
shapes = (
{
closed = 1;
nodes = (
(253,351,o),
(304,399,o),
(304,491,cs),
(304,714,l),
(280,714,l),
(280,489,ls),
(280,410,o),
(241,373,o),
(177,373,cs),
(114,373,o),
(72,409,o),
(72,479,cs),
(72,500,l),
(49,500,l),
(49,483,ls),
(49,397,o),
(104,351,o),
(176,351,cs)
);
}
);
width = 353;
},
{
background = {
shapes = (
{
closed = 1;
nodes = (
(293,305,o),
(346,365.667,o),
(346,483,cs),
(346,714,l),
(237,714,l),
(237,483,ls),
(237,441.667,o),
(223.667,413,o),
(189,413,cs),
(154.333,413,o),
(142,441.667,o),
(142,483,cs),
(142,519,l),
(29,519,l),
(29,467,ls),
(29,365.667,o),
(85,305,o),
(189,305,cs)
);
}
);
};
layerId = "A1461942-0433-4891-A171-8512F51D8C86";
shapes = (
{
closed = 1;
nodes = (
(294,351,o),
(348,404,o),
(348,506,cs),
(348,714,l),
(232,714,l),
(232,490,ls),
(232,457,o),
(218,437,o),
(191,437,cs),
(162,437,o),
(147,456,o),
(147,490,cs),
(147,510,l),
(39,510,l),
(39,491,ls),
(39,405,o),
(97,351,o),
(191,351,cs)
);
}
);
width = 385;
}
);
note = uni14A2;
unicode = 5282;
},
{
color = 4;
glyphname = "me-canadian";
lastChange = "2022-05-05 13:23:26 +0000";
layers = (
{
background = {
shapes = (
{
closed = 1;
nodes = (
(469,714,l),
(37,714,l),
(37,689,l),
(443,689,l),
(443,0,l),
(469,0,l),
(469,0,l)
);
}
);
};
layerId = m01;
shapes = (
{
closed = 1;
nodes = (
(469,0,l),
(469,714,l),
(59,714,l),
(59,689,l),
(443,689,l),
(443,0,l)
);
}
);
width = 548;
},
{
background = {
shapes = (
{
closed = 1;
nodes = (
(565,714,l),
(34,714,l),
(34,558,l),
(372,558,l),
(372,0,l),
(565,0,l),
(565,0,l)
);
}
);
};
layerId = "A1461942-0433-4891-A171-8512F51D8C86";
shapes = (
{
closed = 1;
nodes = (
(565,0,l),
(565,714,l),
(39,714,l),
(39,547,l),
(372,547,l),
(372,0,l)
);
}
);
width = 624;
}
);
note = uni14A3;
unicode = 5283;
},
{
color = 4;
glyphname = "mi-canadian";
lastChange = "2022-05-05 13:23:26 +0000";
layers = (
{
background = {
shapes = (
{
closed = 1;
nodes = (
(105,689,l),
(511,689,l),
(511,714,l),
(79,714,l),
(79,0,l),
(105,0,l),
(105,0,l)
);
}
);
};
layerId = m01;
shapes = (
{
closed = 1;
nodes = (
(105,0,l),
(105,689,l),
(489,689,l),
(489,714,l),
(79,714,l),
(79,0,l)
);
}
);
width = 548;
},
{
background = {
shapes = (
{
closed = 1;
nodes = (
(272,558,l),
(610,558,l),
(610,714,l),
(79,714,l),
(79,0,l),
(272,0,l),
(272,0,l)
);
}
);
};
layerId = "A1461942-0433-4891-A171-8512F51D8C86";
shapes = (
{
closed = 1;
nodes = (
(252,0,l),
(252,547,l),
(585,547,l),
(585,714,l),
(59,714,l),
(59,0,l)
);
}
);
width = 624;
}
);
note = uni14A5;
unicode = 5285;
},
{
color = 4;
glyphname = "mo-canadian";
lastChange = "2022-05-05 13:23:26 +0000";
layers = (
{
background = {
shapes = (
{
closed = 1;
nodes = (
(491,714,l),
(465,714,l),
(465,25,l),
(59,25,l),
(59,0,l),
(491,0,l),
(491,0,l)
);
}
);
};
layerId = m01;
shapes = (
{
closed = 1;
nodes = (
(469,0,l),
(469,714,l),
(443,714,l),
(443,25,l),
(59,25,l),
(59,0,l)
);
}
);
width = 548;
},
{
background = {
shapes = (
{
closed = 1;
nodes = (
(590,714,l),
(397,714,l),
(397,156,l),
(59,156,l),
(59,0,l),
(590,0,l),
(590,0,l)
);
}
);
};
layerId = "A1461942-0433-4891-A171-8512F51D8C86";
shapes = (
{
closed = 1;
nodes = (
(565,0,l),
(565,714,l),
(372,714,l),
(372,167,l),
(39,167,l),
(39,0,l)
);
}
);
width = 624;
}
);
note = uni14A7;
unicode = 5287;
},
{
color = 4;
glyphname = "ma-canadian";
lastChange = "2022-05-05 13:23:26 +0000";
layers = (
{
background = {
shapes = (
{
closed = 1;
nodes = (
(511,25,l),
(105,25,l),
(105,714,l),
(79,714,l),
(79,0,l),
(511,0,l),
(511,0,l)
);
}
);
};
layerId = m01;
shapes = (
{
closed = 1;
nodes = (
(489,0,l),
(489,25,l),
(105,25,l),
(105,714,l),
(79,714,l),
(79,0,l)
);
}
);
width = 548;
},
{
background = {
shapes = (
{
closed = 1;
nodes = (
(610,156,l),
(272,156,l),
(272,714,l),
(79,714,l),
(79,0,l),
(610,0,l),
(610,0,l)
);
}
);
};
layerId = "A1461942-0433-4891-A171-8512F51D8C86";
shapes = (
{
closed = 1;
nodes = (
(585,0,l),
(585,167,l),
(252,167,l),
(252,714,l),
(59,714,l),
(59,0,l)
);
}
);
width = 624;
}
);
note = uni14AA;
unicode = 5290;
},
{
color = 3;
glyphname = "m-canadian";
lastChange = "2022-05-09 14:03:10 +0000";
layers = (
{
background = {
shapes = (
{
closed = 1;
nodes = (
(296,364,l),
(73,364,l),
(73,714,l),
(49,714,l),
(49,342,l),
(296,342,l),
(296,342,l)
);
}
);
};
layerId = m01;
shapes = (
{
closed = 1;
nodes = (
(276,379,l),
(73,379,l),
(73,714,l),
(49,714,l),
(49,357,l),
(276,357,l)
);
}
);
width = 325;
},
{
background = {
shapes = (
{
closed = 1;
nodes = (
(335,425,l),
(157,425,l),
(157,714,l),
(39,714,l),
(39,317,l),
(335,317,l),
(335,317,l)
);
}
);
};
layerId = "A1461942-0433-4891-A171-8512F51D8C86";
shapes = (
{
closed = 1;
nodes = (
(321,463,l),
(155,463,l),
(155,714,l),
(39,714,l),
(39,357,l),
(321,357,l)
);
}
);
width = 360;
}
);
note = uni14BB;
unicode = 5307;
},
{
color = 3;
glyphname = "mWestCree-canadian";
lastChange = "2022-05-09 14:04:17 +0000";
layers = (
{
background = {
shapes = (
{
closed = 1;
nodes = (
(320,404,l),
(229,404,ls),
(111.872,404,o),
(73,457.398,o),
(73,548,cs),
(73,638.602,o),
(111.872,692,o),
(229,692,cs),
(320,692,l),
(320,714,l),
(228,714,ls),
(108,714,o),
(49,658.667,o),
(49,548,cs),
(49,437.333,o),
(108,382,o),
(228,382,cs),
(320,382,l),
(320,382,l)
);
}
);
};
layerId = m01;
shapes = (
{
closed = 1;
nodes = (
(304,357,l),
(304,379,l),
(223,379,ls),
(124,379,o),
(72,436,o),
(72,535,cs),
(72,634,o),
(124,692,o),
(223,692,cs),
(304,692,l),
(304,714,l),
(220,714,ls),
(113,714,o),
(49,644,o),
(49,535,cs),
(49,426,o),
(113,357,o),
(223,357,cs)
);
}
);
width = 343;
},
{
background = {
shapes = (
{
closed = 1;
nodes = (
(359,425,l),
(274,425,ls),
(183.016,425,o),
(147,450.979,o),
(147,517,cs),
(147,579.389,o),
(179.604,606,o),
(258,606,cs),
(359,606,l),
(359,714,l),
(265,714,ls),
(103.667,714,o),
(29,655.333,o),
(29,518,cs),
(29,379.333,o),
(105,317,o),
(277,317,cs),
(359,317,l),
(359,317,l)
);
}
);
};
layerId = "A1461942-0433-4891-A171-8512F51D8C86";
shapes = (
{
closed = 1;
nodes = (
(339,357,l),
(339,460,l),
(235,460,ls),
(184,460,o),
(155,484,o),
(155,535,cs),
(155,585,o),
(184,611,o),
(235,611,cs),
(339,611,l),
(339,714,l),
(227,714,ls),
(108,714,o),
(39,646,o),
(39,535,cs),
(39,423,o),
(108,357,o),
(227,357,cs)
);
}
);
width = 378;
}
);
note = uni14BC;
unicode = 5308;
},
{
color = 3;
glyphname = "mh-canadian";
lastChange = "2022-05-09 14:43:13 +0000";
layers = (
{
background = {
shapes = (
{
closed = 1;
nodes = (
(283,714,l),
(259,714,l),
(259,364,l),
(49,364,l),
(49,342,l),
(283,342,l),
(283,342,l)
);
}
);
};
layerId = m01;
shapes = (
{
closed = 1;
nodes = (
(276,357,l),
(276,714,l),
(252,714,l),
(252,379,l),
(49,379,l),
(49,357,l)
);
}
);
width = 325;
},
{
background = {
shapes = (
{
closed = 1;
nodes = (
(325,714,l),
(207,714,l),
(207,425,l),
(29,425,l),
(29,317,l),
(325,317,l),
(325,317,l)
);
}
);
};
layerId = "A1461942-0433-4891-A171-8512F51D8C86";
shapes = (
{
closed = 1;
nodes = (
(321,357,l),
(321,714,l),
(205,714,l),
(205,463,l),
(39,463,l),
(39,357,l)
);
}
);
width = 360;
}
);
note = uni14BD;
unicode = 5309;
},
{
color = 3;
glyphname = "mAthapascan-canadian";
lastChange = "2022-05-10 10:16:03 +0000";
layers = (
{
background = {
shapes = (
{
closed = 1;
nodes = (
(299,376,l),
(86,376,l),
(86,370,l),
(275,536,o),
(294,563,o),
(294,626,cs),
(294,676,o),
(258,726,o),
(180,726,cs),
(104,726,o),
(61,676,o),
(61,599,c),
(74,599,l),
(74,669,o),
(112,714,o),
(180,714,cs),
(252,714,o),
(281,670,o),
(281,627,cs),
(281,567,o),
(265,543,o),
(72,374,c),
(72,363,l),
(299,363,l)
);
}
);
};
layerId = m01;
shapes = (
{
closed = 1;
nodes = (
(328,357,l),
(328,379,l),
(115,379,l),
(115,364,l),
(282,509,o),
(302,557,o),
(302,619,cs),
(302,679,o),
(256,720,o),
(188,720,cs),
(114,720,o),
(69,672,o),
(69,593,c),
(92,593,l),
(92,662,o),
(127,698,o),
(190,698,cs),
(246,698,o),
(279,669,o),
(279,618,cs),
(279,561,o),
(267,525,o),
(86,366,c),
(86,357,l)
);
}
);
width = 373;
},
{
background = {
shapes = (
{
closed = 1;
nodes = (
(331,436,l),
(169,436,l),
(169,413,l),
(287,501,o),
(324,544,o),
(324,605,cs),
(324,675,o),
(270,720,o),
(189,720,cs),
(99,720,o),
(41,665,o),
(39,587,c),
(134,587,l),
(134,619,o),
(154,639,o),
(185,639,cs),
(214,639,o),
(230,625,o),
(230,600,cs),
(230,564,o),
(212,540,o),
(52,423,c),
(52,357,l),
(331,357,l)
);
}
);
};
layerId = "A1461942-0433-4891-A171-8512F51D8C86";
shapes = (
{
closed = 1;
nodes = (
(331,357,l),
(331,446,l),
(175,446,l),
(175,413,l),
(295,501,o),
(324,544,o),
(324,603,cs),
(324,678,o),
(270,720,o),
(187,720,cs),
(99,720,o),
(41,665,o),
(39,587,c),
(144,587,l),
(144,614,o),
(160,634,o),
(183,634,cs),
(207,634,o),
(220,620,o),
(220,598,cs),
(220,564,o),
(208,540,o),
(52,425,c),
(52,357,l)
);
}
);
width = 370;
}
);
note = uni14BE;
unicode = 5310;
},
{
color = 3;
glyphname = "mSayisi-canadian";
lastChange = "2022-05-09 14:57:38 +0000";
layers = (
{
background = {
shapes = (
{
closed = 1;
nodes = (
(545,25,l),
(119,25,l),
(119,14,l),
(497,346,o),
(535,400,o),
(535,526,cs),
(535,626,o),
(463,726,o),
(306,726,cs),
(155,726,o),
(69,625,o),
(69,472,c),
(95,472,l),
(95,612,o),
(170,701,o),
(306,701,cs),
(450,701,o),
(509,614,o),
(509,527,cs),
(509,408,o),
(476,360,o),
(91,21,c),
(91,0,l),
(545,0,l)
);
}
);
};
layerId = m01;
shapes = (
{
closed = 1;
nodes = (
(545,25,l),
(119,25,l),
(119,14,l),
(497,346,o),
(535,408,o),
(535,531,cs),
(535,631,o),
(463,726,o),
(306,726,cs),
(155,726,o),
(69,625,o),
(69,472,c),
(95,472,l),
(95,612,o),
(170,701,o),
(306,701,cs),
(450,701,o),
(509,619,o),
(509,532,cs),
(509,416,o),
(476,360,o),
(91,21,c),
(91,0,l),
(545,0,l)
);
}
);
width = 614;
},
{
background = {
shapes = (
{
closed = 1;
nodes = (
(1421,443,ls),
(1421,618,o),
(1313,729,o),
(1139,729,cs),
(967,729,o),
(849,620,o),
(849,452,cs),
(849,292,o),
(957,185,o),
(1107,185,cs),
(1178,185,o),
(1232,213,o),
(1242,240,c),
(1230,248,l),
(1230,0,l),
(1421,0,l)
);
},
{
closed = 1;
nodes = (
(1078,347,o),
(1038,387,o),
(1038,457,cs),
(1038,527,o),
(1075,567,o),
(1135,567,cs),
(1195,567,o),
(1232,527,o),
(1232,457,cs),
(1232,387,o),
(1192,347,o),
(1135,347,cs)
);
},
{
closed = 1;
nodes = (
(636,159,l),
(291,159,l),
(291,113,l),
(540,236,o),
(621,365,o),
(621,495,cs),
(621,638,o),
(512,729,o),
(350,729,cs),
(170,729,o),
(55,620,o),
(49,466,c),
(238,466,l),
(241,527,o),
(278,567,o),
(343,567,cs),
(401,567,o),
(432,538,o),
(432,480,cs),
(432,385,o),
(337,295,o),
(76,132,c),
(76,0,l),
(636,0,l)
);
}
);
};
layerId = "A1461942-0433-4891-A171-8512F51D8C86";
shapes = (
{
closed = 1;
nodes = (
(636,159,l),
(311,159,l),
(311,113,l),
(547,290,o),
(621,375,o),
(621,498,cs),
(621,638,o),
(512,729,o),
(350,729,cs),
(170,729,o),
(53,619,o),
(49,462,c),
(240,462,l),
(240,527,o),
(280,567,o),
(343,567,cs),
(401,567,o),
(432,538,o),
(432,488,cs),
(432,415,o),
(396,368,o),
(76,132,c),
(76,0,l),
(636,0,l)
);
}
);
width = 680;
}
);
note = uni14BF;
unicode = 5311;
},
{
color = 4;
glyphname = "ne-canadian";
lastChange = "2022-04-07 09:31:54 +0000";
layers = (
{
background = {
shapes = (
{
closed = 1;
nodes = (
(1794,-12,o),
(1902,97,o),
(1902,234,cs),
(1902,373,o),
(1792,481,o),
(1655,481,cs),
(1133,481,l),
(1133,456,l),
(1555,456,l),
(1470,421,o),
(1410,333,o),
(1410,234,cs),
(1410,97,o),
(1518,-12,o),
(1655,-12,cs)
);
},
{
closed = 1;
nodes = (
(1533,13,o),
(1437,110,o),
(1437,234,cs),
(1437,358,o),
(1531,456,o),
(1655,456,cs),
(1780,456,o),
(1875,359,o),
(1875,234,cs),
(1875,110,o),
(1779,13,o),
(1655,13,cs)
);
},
{
closed = 1;
nodes = (
(314,239,ls),
(314,86,o),
(409,-12,o),
(557,-12,cs),
(704,-12,o),
(800,86,o),
(800,234,cs),
(800,381,o),
(702,481,o),
(557,481,cs),
(442,481,o),
(356,418,o),
(335,329,c),
(340,330,l),
(340,714,l),
(314,714,l)
);
},
{
closed = 1;
nodes = (
(688,456,o),
(774,370,o),
(774,235,cs),
(774,100,o),
(690,13,o),
(557,13,cs),
(423,13,o),
(340,98,o),
(340,234,cs),
(340,369,o),
(424,456,o),
(557,456,cs)
);
}
);
};
layerId = m01;
shapes = (
{
closed = 1;
nodes = (
(705,-12,o),
(800,86,o),
(800,235,cs),
(800,381,o),
(706,481,o),
(553,481,cs),
(59,481,l),
(59,456,l),
(476,456,l),
(477,466,l),
(371,436,o),
(318,344,o),
(318,235,cs),
(318,86,o),
(414,-12,o),
(559,-12,cs)
);
},
{
closed = 1;
nodes = (
(426,13,o),
(344,99,o),
(344,235,cs),
(344,371,o),
(426,456,o),
(556,456,cs),
(692,456,o),
(774,370,o),
(774,235,cs),
(774,100,o),
(692,13,o),
(559,13,cs)
);
}
);
width = 869;
},
{
background = {
shapes = (
{
closed = 1;
nodes = (
(1896,-12,o),
(1962,132,o),
(1962,251,cs),
(1962,370,o),
(1896,514,o),
(1679,514,cs),
(1119,514,l),
(1119,358,l),
(1415,358,l),
(1402,325,o),
(1396,287,o),
(1396,251,cs),
(1396,132,o),
(1462,-12,o),
(1679,-12,cs)
);
},
{
closed = 1;
nodes = (
(1620,149,o),
(1590,190,o),
(1590,251,cs),
(1590,313,o),
(1620,353,o),
(1679,353,cs),
(1740,353,o),
(1768,313,o),
(1768,251,cs),
(1768,190,o),
(1740,149,o),
(1679,149,cs)
);
},
{
closed = 1;
nodes = (
(741,-15,o),
(862,95,o),
(862,250,cs),
(862,417,o),
(745,514,o),
(551,514,cs),
(39,514,l),
(39,350,l),
(360,350,l),
(323,384,l),
(294,345,o),
(280,289,o),
(280,239,cs),
(280,87,o),
(393,-15,o),
(570,-15,cs)
);
},
{
closed = 1;
nodes = (
(503,149,o),
(471,198,o),
(471,249,cs),
(471,300,o),
(503,350,o),
(570,350,cs),
(637,350,o),
(671,300,o),
(671,249,cs),
(671,198,o),
(637,149,o),
(570,149,cs)
);
}
);
};
layerId = "A1461942-0433-4891-A171-8512F51D8C86";
shapes = (
{
closed = 1;
nodes = (
(741,-15,o),
(862,95,o),
(862,250,cs),
(862,417,o),
(745,514,o),
(551,514,cs),
(39,514,l),
(39,347,l),
(360,347,l),
(323,384,l),
(294,345,o),
(280,289,o),
(280,239,cs),
(280,87,o),
(393,-15,o),
(570,-15,cs)
);
},
{
closed = 1;
nodes = (
(502,147,o),
(469,197,o),
(469,249,cs),
(469,301,o),
(502,352,o),
(570,352,cs),
(638,352,o),
(673,301,o),
(673,249,cs),
(673,197,o),
(638,147,o),
(570,147,cs)
);
}
);
width = 911;
}
);
note = uni14C0;
unicode = 5312;
},
{
color = 4;
glyphname = "ni-canadian";
lastChange = "2022-04-07 09:31:54 +0000";
layers = (
{
background = {
shapes = (
{
closed = 1;
nodes = (
(452.975,-12,o),
(561,96.601,o),
(561,234,cs),
(561,343,o),
(490,440,o),
(387,465,c),
(371,456,l),
(838,456,l),
(838,481,l),
(316,481,ls),
(178.95,481,o),
(69,372.763,o),
(69,234,cs),
(69,97.272,o),
(177.285,-12,o),
(316,-12,cs)
);
},
{
closed = 1;
nodes = (
(191.879,13,o),
(96,110.02,o),
(96,234,cs),
(96,358.395,o),
(191.926,456,o),
(316,456,cs),
(439.802,456,o),
(534,358.453,o),
(534,234,cs),
(534,109.921,o),
(439.265,13,o),
(316,13,cs)
);
}
);
};
layerId = m01;
shapes = (
{
closed = 1;
nodes = (
(455,-12,o),
(551,86,o),
(551,235,cs),
(551,344,o),
(496,436,o),
(390,466,c),
(393,456,l),
(810,456,l),
(810,481,l),
(315,481,ls),
(161,481,o),
(69,381,o),
(69,235,cs),
(69,86,o),
(164,-12,o),
(310,-12,cs)
);
},
{
closed = 1;
nodes = (
(177,13,o),
(95,100,o),
(95,235,cs),
(95,370,o),
(177,456,o),
(313,456,cs),
(443,456,o),
(525,371,o),
(525,235,cs),
(525,99,o),
(443,13,o),
(310,13,cs)
);
}
);
width = 869;
},
{
background = {
shapes = (
{
closed = 1;
nodes = (
(1449,-12,o),
(1515,132,o),
(1515,251,cs),
(1515,287,o),
(1509,325,o),
(1496,358,c),
(1792,358,l),
(1792,514,l),
(1232,514,ls),
(1015,514,o),
(949,370,o),
(949,251,cs),
(949,132,o),
(1015,-12,o),
(1232,-12,cs)
);
},
{
closed = 1;
nodes = (
(1171,149,o),
(1143,190,o),
(1143,251,cs),
(1143,313,o),
(1171,353,o),
(1232,353,cs),
(1291,353,o),
(1321,313,o),
(1321,251,cs),
(1321,190,o),
(1291,149,o),
(1232,149,cs)
);
},
{
closed = 1;
nodes = (
(518,-15,o),
(631,87,o),
(631,239,cs),
(631,289,o),
(617,345,o),
(588,384,c),
(551,350,l),
(872,350,l),
(872,514,l),
(360,514,ls),
(166,514,o),
(49,417,o),
(49,250,cs),
(49,132,o),
(129,-15,o),
(341,-15,cs)
);
},
{
closed = 1;
nodes = (
(274,149,o),
(240,198,o),
(240,249,cs),
(240,300,o),
(274,350,o),
(341,350,cs),
(408,350,o),
(440,300,o),
(440,249,cs),
(440,198,o),
(408,149,o),
(341,149,cs)
);
}
);
};
layerId = "A1461942-0433-4891-A171-8512F51D8C86";
shapes = (
{
closed = 1;
nodes = (
(518,-15,o),
(631,87,o),
(631,243,cs),
(631,293,o),
(617,349,o),
(588,388,c),
(551,347,l),
(872,347,l),
(872,514,l),
(365,514,ls),
(163,514,o),
(49,399,o),
(49,245,cs),
(49,94,o),
(167,-15,o),
(341,-15,cs)
);
},
{
closed = 1;
nodes = (
(273,147,o),
(238,197,o),
(238,249,cs),
(238,301,o),
(273,352,o),
(341,352,cs),
(409,352,o),
(442,301,o),
(442,249,cs),
(442,197,o),
(409,147,o),
(341,147,cs)
);
}
);
width = 911;
}
);
note = uni14C2;
unicode = 5314;
},
{
color = 4;
glyphname = "no-canadian";
lastChange = "2022-04-07 09:31:54 +0000";
layers = (
{
background = {
shapes = (
{
closed = 1;
nodes = (
(718.05,0,o),
(828,108.237,o),
(828,247,cs),
(828,383.728,o),
(719.715,493,o),
(581,493,cs),
(444.025,493,o),
(336,384.399,o),
(336,247,cs),
(336,148.333,o),
(395.667,59.667,o),
(481,25,c),
(59,25,l),
(59,0,l),
(581,0,l),
(581,0,l)
);
},
{
closed = 1;
nodes = (
(457.198,25,o),
(363,122.547,o),
(363,247,cs),
(363,370.882,o),
(458.731,468,o),
(581,468,cs),
(705.121,468,o),
(801,370.98,o),
(801,247,cs),
(801,122.411,o),
(706.083,25,o),
(581,25,cs)
);
}
);
};
layerId = m01;
shapes = (
{
closed = 1;
nodes = (
(555,0,ls),
(707,0,o),
(800,100,o),
(800,246,cs),
(800,395,o),
(705,493,o),
(559,493,cs),
(414,493,o),
(318,395,o),
(318,246,cs),
(318,137,o),
(371,45,o),
(475,15,c),
(476,25,l),
(59,25,l),
(59,0,l)
);
},
{
closed = 1;
nodes = (
(426,25,o),
(344,110,o),
(344,246,cs),
(344,382,o),
(426,468,o),
(559,468,cs),
(692,468,o),
(774,381,o),
(774,246,cs),
(774,111,o),
(692,25,o),
(556,25,cs)
);
}
);
width = 869;
},
{
background = {
shapes = (
{
closed = 1;
nodes = (
(815.879,0,o),
(882,144.032,o),
(882,263,cs),
(882,381.968,o),
(815.879,526,o),
(599,526,cs),
(382.121,526,o),
(316,381.968,o),
(316,263,cs),
(316,227,o),
(321.667,190.667,o),
(335,156,c),
(39,156,l),
(39,0,l),
(599,0,l),
(599,0,l)
);
},
{
closed = 1;
nodes = (
(540.148,161,o),
(510,202.076,o),
(510,263,cs),
(510,325.333,o),
(540.419,365,o),
(599,365,cs),
(659.588,365,o),
(688,325.297,o),
(688,263,cs),
(688,202.092,o),
(659.997,161,o),
(599,161,cs)
);
}
);
};
layerId = "A1461942-0433-4891-A171-8512F51D8C86";
shapes = (
{
closed = 1;
nodes = (
(561,0,ls),
(748,0,o),
(862,103,o),
(862,264,cs),
(862,419,o),
(746,529,o),
(570,529,cs),
(394,529,o),
(280,422,o),
(280,272,cs),
(280,224,o),
(294,169,o),
(325,130,c),
(360,167,l),
(39,167,l),
(39,0,l)
);
},
{
closed = 1;
nodes = (
(502,162,o),
(469,213,o),
(469,265,cs),
(469,317,o),
(502,367,o),
(570,367,cs),
(638,367,o),
(673,317,o),
(673,265,cs),
(673,213,o),
(638,162,o),
(570,162,cs)
);
}
);
width = 911;
}
);
note = uni14C4;
unicode = 5316;
},
{
color = 4;
glyphname = "na-canadian";
lastChange = "2022-04-07 09:31:54 +0000";
layers = (
{
background = {
shapes = (
{
closed = 1;
nodes = (
(838,25,l),
(416,25,l),
(505.784,62.584,o),
(561,150.81,o),
(561,247,cs),
(561,384.399,o),
(452.975,493,o),
(316,493,cs),
(177.285,493,o),
(69,383.728,o),
(69,247,cs),
(69,108.237,o),
(178.95,0,o),
(316,0,cs),
(838,0,l),
(838,0,l)
);
},
{
closed = 1;
nodes = (
(191.926,25,o),
(96,122.605,o),
(96,247,cs),
(96,370.98,o),
(191.879,468,o),
(316,468,cs),
(439.265,468,o),
(534,371.079,o),
(534,247,cs),
(534,122.547,o),
(439.802,25,o),
(316,25,cs)
);
}
);
};
layerId = m01;
shapes = (
{
closed = 1;
nodes = (
(810,0,l),
(810,25,l),
(393,25,l),
(392,15,l),
(496,45,o),
(551,137,o),
(551,246,cs),
(551,395,o),
(455,493,o),
(310,493,cs),
(164,493,o),
(69,395,o),
(69,245,cs),
(69,100,o),
(161,0,o),
(313,0,cs)
);
},
{
closed = 1;
nodes = (
(177,25,o),
(95,111,o),
(95,246,cs),
(95,381,o),
(177,468,o),
(310,468,cs),
(443,468,o),
(525,382,o),
(525,246,cs),
(525,110,o),
(443,25,o),
(313,25,cs)
);
}
);
width = 869;
},
{
background = {
shapes = (
{
closed = 1;
nodes = (
(892,156,l),
(596,156,l),
(610.144,190.35,o),
(615,227.287,o),
(615,263,cs),
(615,381.968,o),
(548.879,526,o),
(332,526,cs),
(115.121,526,o),
(49,381.968,o),
(49,263,cs),
(49,144.032,o),
(115.121,0,o),
(332,0,cs),
(892,0,l),
(892,0,l)
);
},
{
closed = 1;
nodes = (
(271.003,161,o),
(243,202.092,o),
(243,263,cs),
(243,325.297,o),
(271.412,365,o),
(332,365,cs),
(390.581,365,o),
(421,325.333,o),
(421,263,cs),
(421,202.076,o),
(390.852,161,o),
(332,161,cs)
);
}
);
};
layerId = "A1461942-0433-4891-A171-8512F51D8C86";
shapes = (
{
closed = 1;
nodes = (
(872,0,l),
(872,168,l),
(551,168,l),
(586,126,l),
(617,165,o),
(631,221,o),
(631,271,cs),
(631,427,o),
(518,529,o),
(341,529,cs),
(167,529,o),
(49,419,o),
(49,263,cs),
(49,111,o),
(160,0,o),
(355,0,cs)
);
},
{
closed = 1;
nodes = (
(273,162,o),
(238,213,o),
(238,265,cs),
(238,317,o),
(273,367,o),
(341,367,cs),
(409,367,o),
(442,317,o),
(442,265,cs),
(442,213,o),
(409,162,o),
(341,162,cs)
);
}
);
width = 911;
}
);
note = uni14C7;
unicode = 5319;
},
{
color = 3;
glyphname = "n-canadian";
lastChange = "2022-05-10 13:31:15 +0000";
layers = (
{
background = {
shapes = (
{
closed = 1;
nodes = (
(408,449,l),
(408,471,l),
(223,471,l),
(223,461,l),
(272,475,o),
(304,529,o),
(304,586,cs),
(304,666,o),
(250,720,o),
(176,720,cs),
(103,720,o),
(49,666,o),
(49,586,cs),
(49,505,o),
(103,449,o),
(182,449,cs)
);
},
{
closed = 1;
nodes = (
(113,470,o),
(71,516,o),
(71,586,cs),
(71,654,o),
(114,699,o),
(177,699,cs),
(238,699,o),
(282,654,o),
(282,585,cs),
(282,516,o),
(240,470,o),
(176,470,cs)
);
}
);
};
layerId = m01;
shapes = (
{
closed = 1;
nodes = (
(458,449,l),
(458,471,l),
(223,471,l),
(223,461,l),
(272,475,o),
(304,529,o),
(304,586,cs),
(304,666,o),
(250,720,o),
(176,720,cs),
(103,720,o),
(49,666,o),
(49,586,cs),
(49,505,o),
(103,449,o),
(182,449,cs)
);
},
{
closed = 1;
nodes = (
(114,471,o),
(72,517,o),
(72,586,cs),
(72,653,o),
(115,698,o),
(177,698,cs),
(237,698,o),
(281,653,o),
(281,585,cs),
(281,517,o),
(239,471,o),
(176,471,cs)
);
}
);
width = 507;
},
{
background = {
shapes = (
{
closed = 1;
nodes = (
(106,628,o),
(39,582,o),
(39,498,cs),
(39,417,o),
(95,357,o),
(176,357,cs),
(215,357,o),
(243,376,o),
(252,394,c),
(230,394,l),
(230,265,l),
(344,265,l),
(344,483,ls),
(344,569,o),
(283,628,o),
(186,628,cs)
);
},
{
closed = 1;
nodes = (
(217,542,o),
(236,524,o),
(236,493,cs),
(236,461,o),
(216,443,o),
(190,443,cs),
(163,443,o),
(143,461,o),
(143,493,cs),
(143,524,o),
(163,542,o),
(190,542,cs)
);
}
);
};
layerId = "A1461942-0433-4891-A171-8512F51D8C86";
shapes = (
{
closed = 1;
nodes = (
(474,449,l),
(474,552,l),
(300,552,l),
(300,513,l),
(320,524,o),
(340,552,o),
(340,591,cs),
(340,669,o),
(282,720,o),
(190,720,cs),
(100,720,o),
(39,666,o),
(39,584,cs),
(39,504,o),
(95,449,o),
(196,449,cs)
);
},
{
closed = 1;
nodes = (
(163,535,o),
(143,553,o),
(143,584,cs),
(143,616,o),
(163,634,o),
(190,634,cs),
(216,634,o),
(236,616,o),
(236,584,cs),
(236,553,o),
(217,535,o),
(190,535,cs)
);
}
);
width = 513;
}
);
note = uni14D0;
unicode = 5328;
},
{
color = 3;
glyphname = "ngCarrier-canadian";
lastChange = "2022-05-10 15:49:06 +0000";
layers = (
{
background = {
shapes = (
{
closed = 1;
nodes = (
(277.582,334,o),
(332,389.015,o),
(332,471,cs),
(332,714,l),
(308,714,l),
(308,471,ls),
(308,399.548,o),
(270.167,356,o),
(198,356,cs),
(126.792,356,o),
(83,399.836,o),
(83,471,cs),
(83,714,l),
(59,714,l),
(59,471,ls),
(59,389.035,o),
(120.198,334,o),
(198,334,cs)
);
}
);
};
color = 6;
layerId = m01;
shapes = (
{
closed = 1;
nodes = (
(291,183,o),
(349,244,o),
(349,351,cs),
(349,546,l),
(325,546,l),
(325,350,ls),
(325,251,o),
(278,205,o),
(199,205,cs),
(121,205,o),
(73,253,o),
(73,349,cs),
(73,546,l),
(49,546,l),
(49,348,ls),
(49,244,o),
(109,183,o),
(199,183,cs)
);
}
);
width = 398;
},
{
background = {
shapes = (
{
closed = 1;
nodes = (
(366.019,312,o),
(436,382.953,o),
(436,567,cs),
(436,714,l),
(318,714,l),
(318,562,ls),
(318,475.675,o),
(301.067,420,o),
(235,420,cs),
(166.498,420,o),
(147,470.289,o),
(147,562,cs),
(147,714,l),
(29,714,l),
(29,567,ls),
(29,443,o),
(55,370.333,o),
(115,337,cs),
(145,320.333,o),
(184.333,312,o),
(233,312,cs)
);
}
);
};
color = 6;
layerId = "A1461942-0433-4891-A171-8512F51D8C86";
shapes = (
{
closed = 1;
nodes = (
(326,183,o),
(392,251,o),
(392,363,cs),
(392,546,l),
(276,546,l),
(276,362,ls),
(276,310,o),
(254,287,o),
(215,287,cs),
(177,287,o),
(155,311,o),
(155,362,cs),
(155,546,l),
(39,546,l),
(39,363,ls),
(39,249,o),
(106,183,o),
(216,183,cs)
);
}
);
width = 431;
}
);
note = uni14D1;
unicode = 5329;
},
{
color = 3;
glyphname = "nh-canadian";
lastChange = "2022-05-10 13:31:27 +0000";
layers = (
{
background = {
shapes = (
{
closed = 1;
nodes = (
(325,449,ls),
(404,449,o),
(458,505,o),
(458,586,cs),
(458,666,o),
(404,720,o),
(331,720,cs),
(257,720,o),
(203,666,o),
(203,586,cs),
(203,529,o),
(235,475,o),
(284,461,c),
(284,471,l),
(99,471,l),
(99,449,l)
);
},
{
closed = 1;
nodes = (
(267,470,o),
(225,516,o),
(225,585,cs),
(225,654,o),
(269,699,o),
(330,699,cs),
(393,699,o),
(436,654,o),
(436,586,cs),
(436,516,o),
(394,470,o),
(331,470,cs)
);
}
);
};
layerId = m01;
shapes = (
{
closed = 1;
nodes = (
(325,449,ls),
(404,449,o),
(458,505,o),
(458,586,cs),
(458,666,o),
(404,720,o),
(331,720,cs),
(257,720,o),
(203,666,o),
(203,586,cs),
(203,529,o),
(235,475,o),
(284,461,c),
(284,471,l),
(49,471,l),
(49,449,l)
);
},
{
closed = 1;
nodes = (
(268,471,o),
(226,517,o),
(226,585,cs),
(226,653,o),
(270,698,o),
(330,698,cs),
(392,698,o),
(435,653,o),
(435,586,cs),
(435,517,o),
(393,471,o),
(331,471,cs)
);
}
);
width = 507;
},
{
background = {
shapes = (
{
closed = 1;
nodes = (
(528,367,o),
(581,405,o),
(606,460,cs),
(619,487,o),
(625,516,o),
(625,545,cs),
(625,602,o),
(600,659,o),
(547,694,cs),
(520,711,o),
(486,720,o),
(443,720,cs),
(358,720,o),
(304,681,o),
(279,629,cs),
(266,602,o),
(260,575,o),
(260,546,cs),
(260,519,o),
(265,499,o),
(276,475,c),
(69,475,l),
(69,367,l),
(443,367,l),
(443,367,l)
);
},
{
closed = 1;
nodes = (
(403,473,o),
(379,501,o),
(379,543,cs),
(379,586,o),
(405,614,o),
(444,614,cs),
(486,614,o),
(507,583,o),
(507,543,cs),
(507,503,o),
(486,473,o),
(444,473,cs)
);
}
);
};
layerId = "A1461942-0433-4891-A171-8512F51D8C86";
shapes = (
{
closed = 1;
nodes = (
(317,449,ls),
(418,449,o),
(474,504,o),
(474,584,cs),
(474,666,o),
(413,720,o),
(323,720,cs),
(231,720,o),
(173,669,o),
(173,591,cs),
(173,552,o),
(193,524,o),
(213,513,c),
(213,552,l),
(39,552,l),
(39,449,l)
);
},
{
closed = 1;
nodes = (
(296,535,o),
(277,553,o),
(277,584,cs),
(277,616,o),
(297,634,o),
(323,634,cs),
(350,634,o),
(370,616,o),
(370,584,cs),
(370,553,o),
(350,535,o),
(323,535,cs)
);
}
);
width = 513;
}
);
note = uni14D2;
unicode = 5330;
},
{
color = 3;
glyphname = "le-canadian";
lastChange = "2022-04-05 12:11:17 +0000";
layers = (
{
background = {
shapes = (
{
closed = 1;
nodes = (
(1781,0,o),
(1890,110,o),
(1890,249,cs),
(1890,388,o),
(1783,500,o),
(1643,500,cs),
(1159,500,l),
(1159,475,l),
(1643,475,ls),
(1768,475,o),
(1863,374,o),
(1863,249,cs),
(1863,124,o),
(1767,25,o),
(1643,25,cs),
(1585,25,l),
(1585,0,l),
(1643,0,l),
(1643,0,l)
);
},
{
closed = 1;
nodes = (
(705,0,o),
(800,98,o),
(800,247,cs),
(800,393,o),
(706,493,o),
(553,493,cs),
(59,493,l),
(59,468,l),
(476,468,l),
(477,478,l),
(371,448,o),
(318,356,o),
(318,247,cs),
(318,98,o),
(414,0,o),
(559,0,cs)
);
},
{
closed = 1;
nodes = (
(426,25,o),
(344,111,o),
(344,247,cs),
(344,383,o),
(426,468,o),
(556,468,cs),
(692,468,o),
(774,382,o),
(774,247,cs),
(774,112,o),
(692,25,o),
(559,25,cs)
);
}
);
};
layerId = m01;
shapes = (
{
closed = 1;
nodes = (
(553,0,ls),
(706,0,o),
(800,98,o),
(800,240,cs),
(800,384,o),
(712,481,o),
(547,481,cs),
(59,481,l),
(59,456,l),
(550,456,ls),
(696,456,o),
(774,372,o),
(774,240,cs),
(774,110,o),
(693,25,o),
(551,25,cs),
(494,25,l),
(494,0,l)
);
}
);
width = 869;
},
{
background = {
shapes = (
{
closed = 1;
nodes = (
(1975,15,o),
(2074,116,o),
(2074,281,cs),
(2074,389,o),
(2032,464,o),
(1948,504,cs),
(1906,523,o),
(1853,533,o),
(1790,533,cs),
(1239,533,l),
(1239,375,l),
(1795,375,ls),
(1874,375,o),
(1913,344,o),
(1913,277,cs),
(1913,211,o),
(1874,171,o),
(1817,171,cs),
(1665,171,l),
(1665,15,l),
(1813,15,l),
(1813,15,l)
);
},
{
closed = 1;
nodes = (
(741,0,o),
(862,110,o),
(862,265,cs),
(862,432,o),
(745,529,o),
(551,529,cs),
(39,529,l),
(39,365,l),
(360,365,l),
(323,399,l),
(294,360,o),
(280,304,o),
(280,254,cs),
(280,102,o),
(393,0,o),
(570,0,cs)
);
},
{
closed = 1;
nodes = (
(503,164,o),
(471,213,o),
(471,264,cs),
(471,315,o),
(503,365,o),
(570,365,cs),
(637,365,o),
(671,315,o),
(671,264,cs),
(671,213,o),
(637,164,o),
(570,164,cs)
);
}
);
};
layerId = "A1461942-0433-4891-A171-8512F51D8C86";
shapes = (
{
closed = 1;
nodes = (
(561,0,ls),
(743,0,o),
(862,97,o),
(862,257,cs),
(862,417,o),
(755,514,o),
(562,514,cs),
(39,514,l),
(39,347,l),
(562,347,ls),
(629,347,o),
(671,315,o),
(671,257,cs),
(671,199,o),
(625,167,o),
(556,167,cs),
(480,167,l),
(480,0,l)
);
}
);
width = 911;
}
);
note = uni14D3;
unicode = 5331;
},
{
color = 3;
glyphname = "li-canadian";
lastChange = "2022-04-05 12:59:15 +0000";
layers = (
{
background = {
shapes = (
{
closed = 1;
nodes = (
(1374,25,l),
(1316,25,ls),
(1192,25,o),
(1096,124,o),
(1096,249,cs),
(1096,374,o),
(1192,475,o),
(1316,475,cs),
(1800,475,l),
(1800,500,l),
(1316,500,ls),
(1177,500,o),
(1069,384,o),
(1069,249,cs),
(1069,112,o),
(1177,0,o),
(1316,0,cs),
(1374,0,l),
(1374,0,l)
);
},
{
closed = 1;
nodes = (
(455,-12,o),
(551,86,o),
(551,235,cs),
(551,344,o),
(496,436,o),
(390,466,c),
(393,456,l),
(810,456,l),
(810,481,l),
(315,481,ls),
(161,481,o),
(69,381,o),
(69,235,cs),
(69,86,o),
(164,-12,o),
(310,-12,cs)
);
},
{
closed = 1;
nodes = (
(177,13,o),
(95,100,o),
(95,235,cs),
(95,370,o),
(177,456,o),
(313,456,cs),
(443,456,o),
(525,371,o),
(525,235,cs),
(525,99,o),
(443,13,o),
(310,13,cs)
);
}
);
};
layerId = m01;
shapes = (
{
closed = 1;
nodes = (
(375,0,l),
(375,25,l),
(321,25,ls),
(173,25,o),
(95,110,o),
(95,238,cs),
(95,360,o),
(162,456,o),
(321,456,cs),
(810,456,l),
(810,481,l),
(321,481,ls),
(148,481,o),
(69,373,o),
(69,238,cs),
(69,98,o),
(161,0,o),
(316,0,cs)
);
}
);
width = 869;
},
{
background = {
shapes = (
{
closed = 1;
nodes = (
(1469,156,l),
(1327,156,ls),
(1263,156,o),
(1220,189,o),
(1220,259,cs),
(1220,331,o),
(1264,361,o),
(1330,361,cs),
(1894,361,l),
(1894,517,l),
(1332,517,ls),
(1143,517,o),
(1059,392,o),
(1059,258,cs),
(1059,129,o),
(1138,0,o),
(1332,0,cs),
(1469,0,l),
(1469,0,l)
);
},
{
closed = 1;
nodes = (
(518,-15,o),
(631,87,o),
(631,243,cs),
(631,293,o),
(617,349,o),
(588,388,c),
(551,347,l),
(872,347,l),
(872,514,l),
(365,514,ls),
(163,514,o),
(49,399,o),
(49,245,cs),
(49,94,o),
(167,-15,o),
(341,-15,cs)
);
},
{
closed = 1;
nodes = (
(274,149,o),
(240,198,o),
(240,249,cs),
(240,300,o),
(274,350,o),
(341,350,cs),
(408,350,o),
(440,300,o),
(440,249,cs),
(440,198,o),
(408,149,o),
(341,149,cs)
);
}
);
};
layerId = "A1461942-0433-4891-A171-8512F51D8C86";
shapes = (
{
closed = 1;
nodes = (
(431,0,l),
(431,167,l),
(352,167,ls),
(281,167,o),
(240,199,o),
(240,257,cs),
(240,313,o),
(278,347,o),
(350,347,cs),
(872,347,l),
(872,514,l),
(349,514,ls),
(166,514,o),
(49,416,o),
(49,254,cs),
(49,96,o),
(167,0,o),
(350,0,cs)
);
}
);
width = 911;
}
);
note = uni14D5;
unicode = 5333;
},
{
color = 3;
glyphname = "lo-canadian";
lastChange = "2022-04-05 13:08:54 +0000";
layers = (
{
background = {
shapes = (
{
closed = 1;
nodes = (
(1582,0,o),
(1690,116,o),
(1690,251,cs),
(1690,388,o),
(1582,500,o),
(1443,500,cs),
(1385,500,l),
(1385,475,l),
(1443,475,ls),
(1567,475,o),
(1663,376,o),
(1663,251,cs),
(1663,126,o),
(1568,25,o),
(1443,25,cs),
(959,25,l),
(959,0,l),
(1443,0,l),
(1443,0,l)
);
},
{
closed = 1;
nodes = (
(555,0,ls),
(707,0,o),
(800,100,o),
(800,246,cs),
(800,395,o),
(705,493,o),
(559,493,cs),
(414,493,o),
(318,395,o),
(318,246,cs),
(318,137,o),
(371,45,o),
(475,15,c),
(476,25,l),
(59,25,l),
(59,0,l)
);
},
{
closed = 1;
nodes = (
(426,25,o),
(344,110,o),
(344,246,cs),
(344,382,o),
(426,468,o),
(559,468,cs),
(692,468,o),
(774,381,o),
(774,246,cs),
(774,111,o),
(692,25,o),
(556,25,cs)
);
}
);
};
layerId = m01;
shapes = (
{
closed = 1;
nodes = (
(544,0,ls),
(710,0,o),
(800,97,o),
(800,241,cs),
(800,383,o),
(708,481,o),
(550,481,cs),
(494,481,l),
(494,456,l),
(549,456,ls),
(695,456,o),
(774,371,o),
(774,241,cs),
(774,109,o),
(695,25,o),
(546,25,cs),
(59,25,l),
(59,0,l)
);
}
);
width = 869;
},
{
background = {
shapes = (
{
closed = 1;
nodes = (
(1790,0,o),
(1874,125,o),
(1874,259,cs),
(1874,388,o),
(1795,517,o),
(1601,517,cs),
(1464,517,l),
(1464,361,l),
(1606,361,ls),
(1670,361,o),
(1713,328,o),
(1713,258,cs),
(1713,187,o),
(1669,156,o),
(1603,156,cs),
(1039,156,l),
(1039,0,l),
(1601,0,l),
(1601,0,l)
);
},
{
closed = 1;
nodes = (
(561,0,ls),
(748,0,o),
(862,103,o),
(862,264,cs),
(862,419,o),
(746,529,o),
(570,529,cs),
(394,529,o),
(280,422,o),
(280,272,cs),
(280,224,o),
(294,169,o),
(325,130,c),
(360,167,l),
(39,167,l),
(39,0,l)
);
},
{
closed = 1;
nodes = (
(503,164,o),
(471,214,o),
(471,265,cs),
(471,316,o),
(503,365,o),
(570,365,cs),
(637,365,o),
(671,316,o),
(671,265,cs),
(671,214,o),
(637,164,o),
(570,164,cs)
);
}
);
};
layerId = "A1461942-0433-4891-A171-8512F51D8C86";
shapes = (
{
closed = 1;
nodes = (
(559,0,ls),
(750,0,o),
(862,97,o),
(862,258,cs),
(862,421,o),
(742,514,o),
(569,514,cs),
(480,514,l),
(480,347,l),
(559,347,ls),
(633,347,o),
(671,316,o),
(671,258,cs),
(671,200,o),
(633,167,o),
(563,167,cs),
(39,167,l),
(39,0,l)
);
}
);
width = 911;
}
);
note = uni14D7;
unicode = 5335;
},
{
color = 3;
glyphname = "la-canadian";
lastChange = "2022-04-05 13:10:34 +0000";
layers = (
{
background = {
shapes = (
{
closed = 1;
nodes = (
(800,25,l),
(316,25,ls),
(192.022,25,o),
(96,126.08,o),
(96,251,cs),
(96,375.659,o),
(191.977,475,o),
(316,475,cs),
(374,475,l),
(374,500,l),
(316,500,ls),
(177.135,500,o),
(69,387.503,o),
(69,251,cs),
(69,115.602,o),
(177.127,0,o),
(316,0,cs),
(800,0,l),
(800,0,l)
);
}
);
};
layerId = m01;
shapes = (
{
closed = 1;
nodes = (
(810,0,l),
(810,25,l),
(328,25,ls),
(178,25,o),
(95,107,o),
(95,242,cs),
(95,372,o),
(171,456,o),
(318,456,cs),
(375,456,l),
(375,481,l),
(321,481,ls),
(156,481,o),
(69,384,o),
(69,242,cs),
(69,94,o),
(162,0,o),
(327,0,cs)
);
}
);
width = 869;
},
{
background = {
shapes = (
{
closed = 1;
nodes = (
(1884,156,l),
(1320,156,ls),
(1254,156,o),
(1210,187,o),
(1210,258,cs),
(1210,326,o),
(1249,361,o),
(1317,361,cs),
(1459,361,l),
(1459,517,l),
(1322,517,ls),
(1128,517,o),
(1049,388,o),
(1049,259,cs),
(1049,125,o),
(1133,0,o),
(1322,0,cs),
(1884,0,l),
(1884,0,l)
);
},
{
closed = 1;
nodes = (
(872,0,l),
(872,168,l),
(551,168,l),
(586,126,l),
(617,165,o),
(631,221,o),
(631,271,cs),
(631,427,o),
(518,529,o),
(341,529,cs),
(167,529,o),
(49,419,o),
(49,263,cs),
(49,111,o),
(160,0,o),
(355,0,cs)
);
},
{
closed = 1;
nodes = (
(274,164,o),
(240,214,o),
(240,265,cs),
(240,316,o),
(274,365,o),
(341,365,cs),
(408,365,o),
(440,316,o),
(440,265,cs),
(440,214,o),
(408,164,o),
(341,164,cs)
);
}
);
};
layerId = "A1461942-0433-4891-A171-8512F51D8C86";
shapes = (
{
closed = 1;
nodes = (
(872,0,l),
(872,167,l),
(350,167,ls),
(274,167,o),
(240,201,o),
(240,256,cs),
(240,315,o),
(280,347,o),
(347,347,cs),
(431,347,l),
(431,514,l),
(345,514,ls),
(165,514,o),
(49,412,o),
(49,255,cs),
(49,96,o),
(162,0,o),
(348,0,cs)
);
}
);
width = 911;
}
);
note = uni14DA;
unicode = 5338;
},
{
color = 3;
glyphname = "l-canadian";
lastChange = "2022-05-09 15:57:21 +0000";
layers = (
{
background = {
shapes = (
{
closed = 1;
nodes = (
(483,423,l),
(205,423,ls),
(131.467,423,o),
(73,481.712,o),
(73,557,cs),
(73,632.434,o),
(131.033,691,o),
(206,691,cs),
(230,691,l),
(230,714,l),
(205,714,ls),
(117.236,714,o),
(49,646.064,o),
(49,557,cs),
(49,469.376,o),
(117.376,401,o),
(205,401,cs),
(483,401,l),
(483,401,l)
);
}
);
};
layerId = m01;
shapes = (
{
closed = 1;
nodes = (
(453,357,l),
(453,379,l),
(233,379,ls),
(124,379,o),
(72,437,o),
(72,536,cs),
(72,635,o),
(124,692,o),
(233,692,cs),
(253,692,l),
(253,714,l),
(233,714,ls),
(113,714,o),
(49,645,o),
(49,536,cs),
(49,427,o),
(113,357,o),
(230,357,cs)
);
}
);
width = 502;
},
{
background = {
shapes = (
{
closed = 1;
nodes = (
(516,469,l),
(211,469,ls),
(171.055,469,o),
(148,494.365,o),
(148,537,cs),
(148,579.936,o),
(171.519,608,o),
(211,608,cs),
(255,608,l),
(255,714,l),
(212,714,ls),
(126.667,714,o),
(73.333,675.333,o),
(48,622,cs),
(35.333,595.333,o),
(29,567.667,o),
(29,539,cs),
(29,480.333,o),
(53.5,421.667,o),
(107.5,387,cs),
(134.5,369.667,o),
(169.333,361,o),
(212,361,cs),
(516,361,l),
(516,361,l)
);
}
);
};
layerId = "A1461942-0433-4891-A171-8512F51D8C86";
shapes = (
{
closed = 1;
nodes = (
(457,357,l),
(457,460,l),
(245,460,ls),
(184,460,o),
(155,486,o),
(155,536,cs),
(155,587,o),
(184,611,o),
(245,611,cs),
(257,611,l),
(257,714,l),
(237,714,ls),
(108,714,o),
(39,648,o),
(39,536,cs),
(39,425,o),
(108,357,o),
(237,357,cs)
);
}
);
width = 496;
}
);
note = uni14EA;
unicode = 5354;
},
{
color = 3;
glyphname = "lWestCree-canadian";
lastChange = "2022-05-10 10:42:22 +0000";
layers = (
{
background = {
shapes = (
{
closed = 1;
nodes = (
(319,369,l),
(319,387,l),
(61,475,l),
(61,455,l),
(319,538,l),
(319,556,l),
(61,640,l),
(61,621,l),
(319,709,l),
(319,726,l),
(310,726,l),
(49,637,l),
(49,623,l),
(308,540,l),
(308,554,l),
(49,472,l),
(49,458,l),
(310,369,l)
);
}
);
};
layerId = m01;
shapes = (
{
closed = 1;
nodes = (
(319,369,l),
(319,386,l),
(71,471,l),
(71,460,l),
(319,539,l),
(319,555,l),
(71,635,l),
(71,624,l),
(319,709,l),
(319,726,l),
(310,726,l),
(49,637,l),
(49,622,l),
(298,542,l),
(298,552,l),
(49,473,l),
(49,458,l),
(310,369,l)
);
}
);
width = 368;
},
{
background = {
shapes = (
{
closed = 1;
nodes = (
(314,372,l),
(314,435,l),
(146,502,l),
(146,467,l),
(314,533,l),
(314,568,l),
(146,636,l),
(146,598,l),
(314,665,l),
(314,729,l),
(293,729,l),
(39,632,l),
(39,605,l),
(217,539,l),
(217,562,l),
(39,496,l),
(39,469,l),
(293,372,l)
);
}
);
};
layerId = "A1461942-0433-4891-A171-8512F51D8C86";
shapes = (
{
closed = 1;
nodes = (
(314,372,l),
(314,445,l),
(146,512,l),
(146,462,l),
(314,528,l),
(314,573,l),
(146,641,l),
(146,588,l),
(314,655,l),
(314,729,l),
(293,729,l),
(39,632,l),
(39,600,l),
(217,534,l),
(217,567,l),
(39,501,l),
(39,469,l),
(293,372,l)
);
}
);
width = 353;
}
);
note = uni14EB;
unicode = 5355;
},
{
color = 3;
glyphname = "mediall-canadian";
lastChange = "2022-04-13 12:03:18 +0000";
layers = (
{
background = {
shapes = (
{
closed = 1;
nodes = (
(1520,13,l),
(1078,179,l),
(1520,344,l),
(1520,370,l),
(1078,535,l),
(1520,701,l),
(1520,726,l),
(1513,726,l),
(1039,547,l),
(1039,523,l),
(1486,357,l),
(1039,191,l),
(1039,167,l),
(1513,-12,l),
(1520,-12,l),
(1520,-12,l)
);
},
{
closed = 1;
nodes = (
(635,347,l),
(635,367,l),
(22,726,l),
(9,726,l),
(9,705,l),
(616,351,l),
(616,362,l),
(9,8,l),
(9,-12,l),
(22,-12,l)
);
}
);
};
guides = (
{
angle = 200.3923;
pos = (635,705);
}
);
layerId = m01;
shapes = (
{
closed = 1;
nodes = (
(598,-12,l),
(598,8,l),
(57,191,l),
(57,175,l),
(598,346,l),
(598,366,l),
(57,539,l),
(57,525,l),
(598,707,l),
(598,726,l),
(585,726,l),
(39,542,l),
(39,522,l),
(580,349,l),
(580,363,l),
(39,192,l),
(39,172,l),
(585,-12,l)
);
}
);
width = 677;
},
{
background = {
shapes = (
{
closed = 1;
nodes = (
(1883,127,l),
(1600,225,l),
(1884,323,l),
(1884,390,l),
(1600,488,l),
(1883,586,l),
(1883,725,l),
(1838,725,l),
(1329,553,l),
(1329,455,l),
(1605,357,l),
(1329,258,l),
(1329,160,l),
(1838,-12,l),
(1883,-12,l),
(1883,-12,l)
);
},
{
closed = 1;
nodes = (
(623,-15,l),
(623,143,l),
(202,374,l),
(202,338,l),
(623,569,l),
(623,729,l),
(578,729,l),
(-42,385,l),
(-42,329,l),
(578,-15,l)
);
}
);
};
guides = (
{
angle = -19.7397;
pos = (304,377);
},
{
angle = 199.7397;
pos = (304,337);
}
);
layerId = "A1461942-0433-4891-A171-8512F51D8C86";
shapes = (
{
closed = 1;
nodes = (
(603,-15,l),
(603,117,l),
(253,256,l),
(253,182,l),
(603,321,l),
(603,393,l),
(253,536,l),
(253,456,l),
(603,596,l),
(603,729,l),
(558,729,l),
(29,527,l),
(29,471,l),
(399,332,l),
(399,382,l),
(29,243,l),
(29,187,l),
(558,-15,l)
);
}
);
width = 662;
}
);
note = uni14EC;
unicode = 5356;
},
{
color = 4;
glyphname = "se-canadian";
lastChange = "2022-04-13 16:47:49 +0000";
layers = (
{
background = {
shapes = (
{
closed = 1;
nodes = (
(454,305,l),
(418,305,ls),
(213,305,o),
(95,426,o),
(95,631,cs),
(95,714,l),
(69,714,l),
(69,627,ls),
(69,415,o),
(201,280,o),
(415,280,cs),
(443,280,l),
(428,295,l),
(428,0,l),
(454,0,l)
);
}
);
};
layerId = m01;
shapes = (
{
closed = 1;
nodes = (
(454,305,l),
(418,305,ls),
(213,305,o),
(95,426,o),
(95,631,cs),
(95,714,l),
(69,714,l),
(69,627,ls),
(69,415,o),
(201,280,o),
(415,280,cs),
(443,280,l),
(428,295,l),
(428,0,l),
(454,0,l)
);
}
);
width = 533;
},
{
background = {
shapes = (
{
closed = 1;
nodes = (
(550,388,l),
(502,388,ls),
(323,388,o),
(240,458,o),
(240,646,cs),
(240,714,l),
(49,714,l),
(49,636,ls),
(49,365,o),
(205,221,o),
(461,221,cs),
(504,221,l),
(359,287,l),
(359,0,l),
(550,0,l)
);
}
);
};
layerId = "A1461942-0433-4891-A171-8512F51D8C86";
shapes = (
{
closed = 1;
nodes = (
(550,377,l),
(502,377,ls),
(323,377,o),
(240,447,o),
(240,635,cs),
(240,714,l),
(49,714,l),
(49,623,ls),
(49,353,o),
(205,210,o),
(461,210,cs),
(504,210,l),
(359,266,l),
(359,0,l),
(550,0,l)
);
}
);
width = 609;
}
);
note = uni14ED;
unicode = 5357;
},
{
color = 3;
glyphname = "si-canadian";
lastChange = "2022-04-06 13:16:24 +0000";
layers = (
{
background = {
shapes = (
{
closed = 1;
nodes = (
(115,258,l),
(125,258,ls),
(269,258,o),
(379,304,o),
(439,406,cs),
(468,457,o),
(483,523,o),
(483,604,cs),
(483,714,l),
(457,714,l),
(457,612,ls),
(457,386,o),
(334,283,o),
(117,283,cs),
(89,283,l),
(89,0,l),
(115,0,l),
(115,0,l)
);
}
);
};
layerId = m01;
shapes = (
{
closed = 1;
nodes = (
(105,0,l),
(105,295,l),
(90,280,l),
(118,280,ls),
(332,280,o),
(464,415,o),
(464,627,cs),
(464,714,l),
(438,714,l),
(438,631,ls),
(438,426,o),
(320,305,o),
(115,305,cs),
(79,305,l),
(79,0,l)
);
}
);
width = 533;
},
{
background = {
shapes = (
{
closed = 1;
nodes = (
(261,256,l),
(271,256,ls),
(479,256,o),
(603,392,o),
(603,629,cs),
(603,714,l),
(411,714,l),
(411,647,ls),
(411,514,o),
(374,448,o),
(297,422,cs),
(258,409,o),
(208,402,o),
(147,402,cs),
(69,402,l),
(69,0,l),
(261,0,l),
(261,0,l)
);
}
);
};
layerId = "A1461942-0433-4891-A171-8512F51D8C86";
shapes = (
{
closed = 1;
nodes = (
(250,0,l),
(250,287,l),
(105,221,l),
(148,221,ls),
(404,221,o),
(560,365,o),
(560,636,cs),
(560,714,l),
(369,714,l),
(369,646,ls),
(369,458,o),
(286,388,o),
(107,388,cs),
(59,388,l),
(59,0,l)
);
}
);
width = 609;
}
);
note = uni14EF;
unicode = 5359;
},
{
color = 3;
glyphname = "so-canadian";
lastChange = "2022-04-06 13:16:20 +0000";
layers = (
{
background = {
shapes = (
{
closed = 1;
nodes = (
(95,102,ls),
(95,327.321,o),
(218.446,431,o),
(435,431,cs),
(463,431,l),
(463,714,l),
(437,714,l),
(437,456,l),
(427,456,ls),
(284.333,456,o),
(172.833,410.5,o),
(113.5,308.5,cs),
(83.833,257.5,o),
(69,191.333,o),
(69,110,cs),
(69,0,l),
(95,0,l),
(95,0,l)
);
}
);
};
layerId = m01;
shapes = (
{
closed = 1;
nodes = (
(95,0,l),
(95,83,ls),
(95,288,o),
(213,409,o),
(418,409,cs),
(454,409,l),
(454,714,l),
(428,714,l),
(428,419,l),
(443,434,l),
(415,434,ls),
(201,434,o),
(69,299,o),
(69,87,cs),
(69,0,l)
);
}
);
width = 533;
},
{
background = {
shapes = (
{
closed = 1;
nodes = (
(241,67,ls),
(241,201.667,o),
(277.5,266.5,o),
(355.5,292.5,cs),
(394.5,305.5,o),
(444.333,312,o),
(505,312,cs),
(583,312,l),
(583,714,l),
(391,714,l),
(391,458,l),
(381,458,ls),
(174.669,458,o),
(49,323.216,o),
(49,85,cs),
(49,0,l),
(241,0,l),
(241,0,l)
);
}
);
};
layerId = "A1461942-0433-4891-A171-8512F51D8C86";
shapes = (
{
closed = 1;
nodes = (
(240,0,l),
(240,68,ls),
(240,256,o),
(323,326,o),
(502,326,cs),
(550,326,l),
(550,714,l),
(359,714,l),
(359,427,l),
(504,493,l),
(461,493,ls),
(205,493,o),
(49,349,o),
(49,78,cs),
(49,0,l)
);
}
);
width = 609;
}
);
note = uni14F1;
unicode = 5361;
},
{
color = 3;
glyphname = "sa-canadian";
lastChange = "2022-05-09 19:44:08 +0000";
layers = (
{
background = {
shapes = (
{
closed = 1;
nodes = (
(473,110,ls),
(473,272.667,o),
(410.833,373.167,o),
(303.5,420.5,cs),
(249.833,444.167,o),
(187,456,o),
(115,456,cs),
(105,456,l),
(105,714,l),
(79,714,l),
(79,431,l),
(107,431,ls),
(323.744,431,o),
(447,327.608,o),
(447,102,cs),
(447,0,l),
(473,0,l),
(473,0,l)
);
}
);
};
layerId = m01;
shapes = (
{
closed = 1;
nodes = (
(464,0,l),
(464,87,ls),
(464,299,o),
(332,434,o),
(118,434,cs),
(90,434,l),
(105,419,l),
(105,714,l),
(79,714,l),
(79,409,l),
(115,409,ls),
(320,409,o),
(438,288,o),
(438,83,cs),
(438,0,l)
);
}
);
width = 533;
},
{
background = {
shapes = (
{
closed = 1;
nodes = (
(593,85,ls),
(593,322.345,o),
(469.037,458,o),
(261,458,cs),
(251,458,l),
(251,714,l),
(59,714,l),
(59,312,l),
(137,312,ls),
(259.667,312,o),
(335.667,290.5,o),
(373,220.5,cs),
(391.667,185.5,o),
(401,134.333,o),
(401,67,cs),
(401,0,l),
(593,0,l),
(593,0,l)
);
}
);
};
layerId = "A1461942-0433-4891-A171-8512F51D8C86";
shapes = (
{
closed = 1;
nodes = (
(560,0,l),
(560,78,ls),
(560,349,o),
(404,493,o),
(148,493,cs),
(105,493,l),
(250,427,l),
(250,714,l),
(59,714,l),
(59,326,l),
(107,326,ls),
(286,326,o),
(369,256,o),
(369,68,cs),
(369,0,l)
);
}
);
width = 609;
}
);
note = uni14F4;
unicode = 5364;
},
{
color = 3;
glyphname = "s-canadian";
lastChange = "2022-05-09 20:00:35 +0000";
layers = (
{
background = {
shapes = (
{
closed = 1;
nodes = (
(262,387,ls),
(262,523,o),
(200,586,o),
(49,586,cs),
(43,586,l),
(43,714,l),
(19,714,l),
(19,564,l),
(47,564,ls),
(189,564,o),
(238,507,o),
(238,382,cs),
(238,342,l),
(262,342,l),
(262,342,l)
);
}
);
};
layerId = m01;
shapes = (
{
closed = 1;
nodes = (
(273,357,l),
(273,401,ls),
(273,507,o),
(215,586,o),
(95,586,cs),
(66,586,l),
(73,567,l),
(73,714,l),
(49,714,l),
(49,562,l),
(87,562,ls),
(200,562,o),
(249,501,o),
(249,399,cs),
(249,357,l)
);
}
);
width = 322;
},
{
background = {
shapes = (
{
closed = 1;
nodes = (
(349,405,ls),
(349,539.667,o),
(292.667,599,o),
(162,599,cs),
(147,599,l),
(147,714,l),
(29,714,l),
(29,491,l),
(87,491,ls),
(161.667,491,o),
(201.667,479.333,o),
(219,446,cs),
(227.667,429.333,o),
(232,406,o),
(232,376,cs),
(232,317,l),
(349,317,l),
(349,317,l)
);
}
);
};
layerId = "A1461942-0433-4891-A171-8512F51D8C86";
shapes = (
{
closed = 1;
nodes = (
(330,357,l),
(330,406,ls),
(330,538,o),
(252,614,o),
(134,614,cs),
(82,614,l),
(155,571,l),
(155,714,l),
(39,714,l),
(39,520,l),
(93,520,ls),
(173,520,o),
(214,485,o),
(214,401,cs),
(214,357,l)
);
}
);
width = 369;
}
);
note = uni1505;
unicode = 5381;
},
{
color = 3;
glyphname = "sAthapascan-canadian";
lastChange = "2022-05-09 19:41:12 +0000";
layers = (
{
background = {
shapes = (
{
closed = 1;
nodes = (
(838,351,o),
(884,389,o),
(884,444,cs),
(884,484,o),
(861,509,o),
(819,527,cs),
(739,562,ls),
(701,579,o),
(687,595,o),
(687,627,cs),
(687,670,o),
(720,700,o),
(774,700,cs),
(832,700,o),
(865,670,o),
(863,617,c),
(883,617,l),
(885,679,o),
(842,720,o),
(774,720,cs),
(711,720,o),
(665,682,o),
(665,627,cs),
(665,587,o),
(688,562,o),
(730,544,cs),
(810,509,ls),
(848,492,o),
(862,476,o),
(862,444,cs),
(862,400,o),
(829,370,o),
(775,370,cs),
(717,370,o),
(684,401,o),
(686,454,c),
(666,454,l),
(664,392,o),
(707,351,o),
(775,351,cs)
);
},
{
closed = 1;
nodes = (
(412,449,l),
(412,471,l),
(227,471,l),
(227,461,l),
(276,475,o),
(308,529,o),
(308,586,cs),
(308,666,o),
(254,720,o),
(180,720,cs),
(107,720,o),
(53,666,o),
(53,586,cs),
(53,505,o),
(107,449,o),
(186,449,cs)
);
},
{
closed = 1;
nodes = (
(117,470,o),
(75,516,o),
(75,586,cs),
(75,654,o),
(118,699,o),
(181,699,cs),
(242,699,o),
(286,654,o),
(286,585,cs),
(286,516,o),
(244,470,o),
(180,470,cs)
);
}
);
};
color = 6;
layerId = m01;
shapes = (
{
closed = 1;
nodes = (
(253,183,o),
(301,221,o),
(301,275,cs),
(301,316,o),
(279,343,o),
(228,361,cs),
(139,392,ls),
(96,407,o),
(78,427,o),
(78,458,cs),
(78,502,o),
(115,532,o),
(179,532,cs),
(243,532,o),
(279,502,o),
(281,449,c),
(303,449,l),
(301,511,o),
(254,552,o),
(178,552,cs),
(106,552,o),
(56,513,o),
(56,459,cs),
(56,419,o),
(81,390,o),
(129,373,cs),
(218,342,ls),
(262,327,o),
(280,308,o),
(280,276,cs),
(280,231,o),
(240,202,o),
(176,202,cs),
(110,202,o),
(74,231,o),
(71,290,c),
(49,290,l),
(52,222,o),
(96,183,o),
(176,183,cs)
);
}
);
width = 352;
},
{
background = {
shapes = (
{
closed = 1;
nodes = (
(430,351,l),
(430,454,l),
(306,454,l),
(306,415,l),
(326,426,o),
(346,454,o),
(346,493,cs),
(346,571,o),
(288,622,o),
(196,622,cs),
(106,622,o),
(45,568,o),
(45,486,cs),
(45,406,o),
(101,351,o),
(202,351,cs)
);
},
{
closed = 1;
nodes = (
(169,437,o),
(149,455,o),
(149,486,cs),
(149,518,o),
(169,536,o),
(196,536,cs),
(222,536,o),
(242,518,o),
(242,486,cs),
(242,455,o),
(223,437,o),
(196,437,cs)
);
}
);
};
color = 6;
layerId = "A1461942-0433-4891-A171-8512F51D8C86";
shapes = (
{
closed = 1;
nodes = (
(288,183,o),
(347,232,o),
(347,294,cs),
(347,341,o),
(323,376,o),
(265,392,cs),
(173,418,ls),
(155,423,o),
(151,432,o),
(151,441,cs),
(151,454,o),
(163,466,o),
(192,466,cs),
(222,466,o),
(239,454,o),
(239,427,c),
(347,427,l),
(345,508,o),
(286,552,o),
(194,552,cs),
(105,552,o),
(45,507,o),
(45,440,cs),
(45,393,o),
(74,356,o),
(127,341,cs),
(219,315,ls),
(237,310,o),
(241,303,o),
(241,294,cs),
(241,280,o),
(227,269,o),
(201,269,cs),
(166,269,o),
(149,281,o),
(147,308,c),
(39,308,l),
(42,227,o),
(101,183,o),
(198,183,cs)
);
}
);
width = 386;
}
);
note = uni1506;
unicode = 5382;
},
{
color = 3;
glyphname = "sw-canadian";
lastChange = "2022-05-09 20:00:43 +0000";
layers = (
{
background = {
shapes = (
{
closed = 1;
nodes = (
(73,382,ls),
(73,506.856,o),
(122.555,564,o),
(264,564,cs),
(292,564,l),
(292,714,l),
(268,714,l),
(268,586,l),
(262,586,ls),
(112.667,586,o),
(49,523,o),
(49,387,cs),
(49,342,l),
(73,342,l),
(73,342,l)
);
}
);
};
layerId = m01;
shapes = (
{
closed = 1;
nodes = (
(73,357,l),
(73,399,ls),
(73,501,o),
(122,562,o),
(235,562,cs),
(273,562,l),
(273,714,l),
(249,714,l),
(249,567,l),
(256,586,l),
(227,586,ls),
(107,586,o),
(49,507,o),
(49,401,cs),
(49,357,l)
);
}
);
width = 322;
},
{
background = {
shapes = (
{
closed = 1;
nodes = (
(146,376,ls),
(146,436,o),
(161.333,467.667,o),
(204,481,cs),
(225.333,487.667,o),
(254.333,491,o),
(291,491,cs),
(349,491,l),
(349,714,l),
(231,714,l),
(231,599,l),
(216,599,ls),
(86.667,599,o),
(29,539.667,o),
(29,405,cs),
(29,317,l),
(146,317,l),
(146,317,l)
);
}
);
};
layerId = "A1461942-0433-4891-A171-8512F51D8C86";
shapes = (
{
closed = 1;
nodes = (
(155,357,l),
(155,401,ls),
(155,485,o),
(196,520,o),
(276,520,cs),
(330,520,l),
(330,714,l),
(214,714,l),
(214,571,l),
(267,614,l),
(235,614,ls),
(117,614,o),
(39,538,o),
(39,406,cs),
(39,357,l)
);
}
);
width = 369;
}
);
note = uni1507;
unicode = 5383;
},
{
color = 3;
glyphname = "sBlackfoot-canadian";
lastChange = "2022-05-09 20:04:28 +0000";
layers = (
{
background = {
shapes = (
{
closed = 1;
nodes = (
(389,364,l),
(223,364,ls),
(96.835,364,o),
(73,445.778,o),
(73,513,cs),
(73,702,l),
(49,702,l),
(49,515,ls),
(49,400.333,o),
(108.333,342,o),
(223,342,cs),
(389,342,l),
(389,342,l)
);
}
);
};
layerId = m01;
shapes = (
{
closed = 1;
nodes = (
(283,357,l),
(283,379,l),
(186,379,ls),
(111,379,o),
(73,415,o),
(73,495,cs),
(73,714,l),
(49,714,l),
(49,497,ls),
(49,405,o),
(97,357,o),
(189,357,c)
);
}
);
width = 431;
},
{
background = {
shapes = (
{
closed = 1;
nodes = (
(417,426,l),
(293,426,ls),
(191.409,426,o),
(148,441.426,o),
(148,562,cs),
(148,702,l),
(29,702,l),
(29,526,ls),
(29,383.333,o),
(99.333,317,o),
(214,317,cs),
(417,317,l),
(417,317,l)
);
}
);
};
layerId = "A1461942-0433-4891-A171-8512F51D8C86";
shapes = (
{
closed = 1;
nodes = (
(340,357,l),
(340,460,l),
(220,460,ls),
(179,460,o),
(155,483,o),
(155,523,cs),
(155,714,l),
(39,714,l),
(39,524,ls),
(39,419,o),
(103,357,o),
(209,357,c)
);
}
);
width = 379;
}
);
note = uni1508;
unicode = 5384;
},
{
color = 3;
glyphname = "moosecreesk-canadian";
lastChange = "2022-05-10 12:38:50 +0000";
layers = (
{
background = {
shapes = (
{
closed = 1;
nodes = (
(251,215,o),
(304,274,o),
(304,354,cs),
(304,507,o),
(246,586,o),
(121,586,cs),
(66,586,l),
(73,567,l),
(73,714,l),
(49,714,l),
(49,562,l),
(113,562,ls),
(229,562,o),
(271,501,o),
(276,404,c),
(290,392,l),
(281,446,o),
(235,486,o),
(176,486,cs),
(103,486,o),
(49,432,o),
(49,352,cs),
(49,271,o),
(103,215,o),
(177,215,cs)
);
},
{
closed = 1;
nodes = (
(113,236,o),
(71,282,o),
(71,352,cs),
(71,420,o),
(114,465,o),
(177,465,cs),
(238,465,o),
(282,420,o),
(282,351,cs),
(282,286,o),
(243,236,o),
(176,236,cs)
);
}
);
};
layerId = m01;
shapes = (
{
closed = 1;
nodes = (
(251,225,o),
(304,284,o),
(304,364,cs),
(304,507,o),
(245,586,o),
(112,586,cs),
(66,586,l),
(73,567,l),
(73,714,l),
(49,714,l),
(49,562,l),
(115,562,ls),
(229,562,o),
(269,501,o),
(276,414,c),
(290,402,l),
(281,456,o),
(235,496,o),
(176,496,cs),
(103,496,o),
(49,442,o),
(49,362,cs),
(49,281,o),
(103,225,o),
(177,225,cs)
);
},
{
closed = 1;
nodes = (
(113,246,o),
(71,292,o),
(71,362,cs),
(71,430,o),
(114,475,o),
(177,475,cs),
(238,475,o),
(282,430,o),
(282,361,cs),
(282,296,o),
(243,246,o),
(176,246,cs)
);
}
);
width = 353;
},
{
background = {
shapes = (
{
closed = 1;
nodes = (
(290,215,o),
(354,274,o),
(354,400,cs),
(354,538,o),
(276,614,o),
(158,614,cs),
(103,614,l),
(155,569,l),
(155,714,l),
(39,714,l),
(39,520,l),
(122,520,ls),
(202,520,o),
(229,485,o),
(238,445,c),
(262,445,l),
(253,463,o),
(225,482,o),
(184,482,cs),
(105,482,o),
(49,428,o),
(49,351,cs),
(49,267,o),
(116,215,o),
(196,215,cs)
);
},
{
closed = 1;
nodes = (
(173,301,o),
(153,319,o),
(153,350,cs),
(153,382,o),
(173,400,o),
(200,400,cs),
(226,400,o),
(246,382,o),
(246,350,cs),
(246,319,o),
(227,301,o),
(200,301,cs)
);
}
);
};
layerId = "A1461942-0433-4891-A171-8512F51D8C86";
shapes = (
{
closed = 1;
nodes = (
(290,225,o),
(354,284,o),
(354,390,cs),
(354,528,o),
(276,614,o),
(138,614,cs),
(103,614,l),
(155,569,l),
(155,714,l),
(39,714,l),
(39,520,l),
(102,520,ls),
(200,520,o),
(227,495,o),
(236,455,c),
(262,455,l),
(253,473,o),
(225,492,o),
(184,492,cs),
(105,492,o),
(49,438,o),
(49,361,cs),
(49,277,o),
(116,225,o),
(196,225,cs)
);
},
{
closed = 1;
nodes = (
(173,311,o),
(153,329,o),
(153,360,cs),
(153,392,o),
(173,410,o),
(200,410,cs),
(226,410,o),
(246,392,o),
(246,360,cs),
(246,329,o),
(227,311,o),
(200,311,cs)
);
}
);
width = 393;
}
);
note = uni1509;
unicode = 5385;
},
{
color = 3;
glyphname = "skwNaskapi-canadian";
lastChange = "2022-05-10 12:38:41 +0000";
layers = (
{
background = {
shapes = (
{
closed = 1;
nodes = (
(205.667,274,o),
(246,310.667,o),
(246,364,cs),
(246,418.362,o),
(206.673,461,o),
(123,461,cs),
(68,461,l),
(68,441,l),
(119,441,ls),
(193.95,441,o),
(222,407.491,o),
(222,364,cs),
(222,322.667,o),
(194.333,296,o),
(153,296,cs),
(107.667,296,o),
(73,327.667,o),
(73,405,cs),
(73,478.333,o),
(103.667,516,o),
(157,532,cs),
(183.667,540,o),
(215.333,544,o),
(252,544,cs),
(276,544,l),
(276,714,l),
(252,714,l),
(252,566,l),
(242,566,ls),
(170,566,o),
(108.5,548.667,o),
(74.5,502,cs),
(57.5,478.667,o),
(49,446.333,o),
(49,405,cs),
(49,313,o),
(96.333,274,o),
(151,274,cs)
);
}
);
};
layerId = m01;
shapes = (
{
closed = 1;
nodes = (
(250,225,o),
(304,281,o),
(304,362,cs),
(304,442,o),
(250,496,o),
(177,496,cs),
(118,496,o),
(72,456,o),
(63,402,c),
(77,414,l),
(84,501,o),
(124,562,o),
(238,562,cs),
(304,562,l),
(304,714,l),
(280,714,l),
(280,567,l),
(287,586,l),
(241,586,ls),
(108,586,o),
(49,507,o),
(49,364,cs),
(49,284,o),
(102,225,o),
(176,225,cs)
);
},
{
closed = 1;
nodes = (
(110,246,o),
(71,296,o),
(71,361,cs),
(71,430,o),
(115,475,o),
(176,475,cs),
(239,475,o),
(282,430,o),
(282,362,cs),
(282,292,o),
(240,246,o),
(177,246,cs)
);
}
);
width = 353;
},
{
background = {
shapes = (
{
closed = 1;
nodes = (
(282.667,234,o),
(329,275.667,o),
(329,345,cs),
(329,435.508,o),
(253.281,469,o),
(133,469,cs),
(122,469,l),
(122,400,l),
(138,400,ls),
(196.616,400,o),
(221,377.9,o),
(221,349,cs),
(221,327.667,o),
(210.667,308,o),
(184,308,cs),
(157.333,308,o),
(142,324.333,o),
(142,375,cs),
(142,417.667,o),
(153,457.167,o),
(193,480.5,cs),
(213,492.167,o),
(242,498,o),
(280,498,cs),
(349,498,l),
(349,714,l),
(231,714,l),
(231,599,l),
(214,599,ls),
(95.033,599,o),
(29,541.048,o),
(29,417,cs),
(29,305,o),
(84,234,o),
(196,234,cs)
);
}
);
};
layerId = "A1461942-0433-4891-A171-8512F51D8C86";
shapes = (
{
closed = 1;
nodes = (
(277,225,o),
(344,277,o),
(344,361,cs),
(344,438,o),
(288,492,o),
(209,492,cs),
(168,492,o),
(140,473,o),
(131,455,c),
(157,455,l),
(166,495,o),
(193,520,o),
(291,520,cs),
(354,520,l),
(354,714,l),
(238,714,l),
(238,569,l),
(290,614,l),
(255,614,ls),
(117,614,o),
(39,528,o),
(39,390,cs),
(39,284,o),
(103,225,o),
(197,225,cs)
);
},
{
closed = 1;
nodes = (
(166,311,o),
(147,329,o),
(147,360,cs),
(147,392,o),
(167,410,o),
(193,410,cs),
(220,410,o),
(240,392,o),
(240,360,cs),
(240,329,o),
(220,311,o),
(193,311,cs)
);
}
);
width = 393;
}
);
note = uni150A;
unicode = 5386;
},
{
glyphname = "swNaskapi-canadian";
lastChange = "2022-04-04 12:28:08 +0000";
layers = (
{
background = {
shapes = (
{
closed = 1;
nodes = (
(274,384,ls),
(274,468,o),
(254.667,517.333,o),
(204,540,cs),
(178.667,551.333,o),
(144.333,557,o),
(101,557,cs),
(95,557,l),
(95,665,l),
(71,665,l),
(71,535,l),
(93,535,ls),
(179.667,535,o),
(222,515.667,o),
(238,469,cs),
(246,445.667,o),
(250,414.667,o),
(250,376,cs),
(250,349,l),
(274,349,l),
(274,349,l)
);
},
{
closed = 1;
nodes = (
(280.667,244,o),
(295,258.333,o),
(295,277,cs),
(295,295.667,o),
(280.667,310,o),
(262,310,cs),
(243.333,310,o),
(228,295.667,o),
(228,277,cs),
(228,258.333,o),
(243.333,244,o),
(262,244,cs)
);
},
{
closed = 1;
nodes = (
(101.667,704,o),
(116,718.333,o),
(116,737,cs),
(116,755.667,o),
(101.667,770,o),
(83,770,cs),
(64.333,770,o),
(49,755.667,o),
(49,737,cs),
(49,718.333,o),
(64.333,704,o),
(83,704,cs)
);
}
);
};
layerId = m01;
shapes = (
{
closed = 1;
nodes = (
(274,384,ls),
(274,468,o),
(254.667,517.333,o),
(204,540,cs),
(178.667,551.333,o),
(144.333,557,o),
(101,557,cs),
(95,557,l),
(95,665,l),
(71,665,l),
(71,535,l),
(93,535,ls),
(179.667,535,o),
(222,515.667,o),
(238,469,cs),
(246,445.667,o),
(250,414.667,o),
(250,376,cs),
(250,349,l),
(274,349,l),
(274,349,l)
);
},
{
closed = 1;
nodes = (
(280.667,244,o),
(295,258.333,o),
(295,277,cs),
(295,295.667,o),
(280.667,310,o),
(262,310,cs),
(243.333,310,o),
(228,295.667,o),
(228,277,cs),
(228,258.333,o),
(243.333,244,o),
(262,244,cs)
);
},
{
closed = 1;
nodes = (
(101.667,704,o),
(116,718.333,o),
(116,737,cs),
(116,755.667,o),
(101.667,770,o),
(83,770,cs),
(64.333,770,o),
(49,755.667,o),
(49,737,cs),
(49,718.333,o),
(64.333,704,o),
(83,704,cs)
);
}
);
width = 344;
},
{
background = {
shapes = (
{
closed = 1;
nodes = (
(372,384,ls),
(372,516.29,o),
(315.606,578,o),
(185,578,cs),
(170,578,l),
(170,667,l),
(52,667,l),
(52,470,l),
(110,470,ls),
(184.667,470,o),
(224.667,458.333,o),
(242,425,cs),
(250.667,408.333,o),
(255,385,o),
(255,355,cs),
(255,322,l),
(372,322,l),
(372,322,l)
);
},
{
closed = 1;
nodes = (
(357.667,125,o),
(395,162.333,o),
(395,209,cs),
(395,255.667,o),
(357.667,293,o),
(311,293,cs),
(264.333,293,o),
(227,255.667,o),
(227,209,cs),
(227,162.333,o),
(264.333,125,o),
(311,125,cs)
);
},
{
closed = 1;
nodes = (
(159.667,696,o),
(197,733.333,o),
(197,780,cs),
(197,826.667,o),
(159.667,864,o),
(113,864,cs),
(66.333,864,o),
(29,826.667,o),
(29,780,cs),
(29,733.333,o),
(66.333,696,o),
(113,696,cs)
);
}
);
};
layerId = "A1461942-0433-4891-A171-8512F51D8C86";
shapes = (
{
closed = 1;
nodes = (
(372,384,ls),
(372,516.29,o),
(315.606,578,o),
(185,578,cs),
(170,578,l),
(170,667,l),
(52,667,l),
(52,470,l),
(110,470,ls),
(184.667,470,o),
(224.667,458.333,o),
(242,425,cs),
(250.667,408.333,o),
(255,385,o),
(255,355,cs),
(255,322,l),
(372,322,l),
(372,322,l)
);
},
{
closed = 1;
nodes = (
(357.667,125,o),
(395,162.333,o),
(395,209,cs),
(395,255.667,o),
(357.667,293,o),
(311,293,cs),
(264.333,293,o),
(227,255.667,o),
(227,209,cs),
(227,162.333,o),
(264.333,125,o),
(311,125,cs)
);
},
{
closed = 1;
nodes = (
(159.667,696,o),
(197,733.333,o),
(197,780,cs),
(197,826.667,o),
(159.667,864,o),
(113,864,cs),
(66.333,864,o),
(29,826.667,o),
(29,780,cs),
(29,733.333,o),
(66.333,696,o),
(113,696,cs)
);
}
);
width = 424;
}
);
note = uni150B;
unicode = 5387;
},
{
glyphname = "spwaNaskapi-canadian";
lastChange = "2022-04-04 12:28:08 +0000";
layers = (
{
background = {
shapes = (
{
closed = 1;
nodes = (
(673,14,l),
(83,358,l),
(673,703,l),
(673,726,l),
(663,726,l),
(49,367,l),
(49,349,l),
(663,-10,l),
(673,-10,l),
(673,-10,l)
);
},
{
closed = 1;
nodes = (
(137.667,500,o),
(152,514.333,o),
(152,533,cs),
(152,551.667,o),
(137.667,566,o),
(119,566,cs),
(100.333,566,o),
(85,551.667,o),
(85,533,cs),
(85,514.333,o),
(100.333,500,o),
(119,500,cs)
);
},
{
closed = 1;
nodes = (
(366,649,ls),
(366,733,o),
(346.667,782.333,o),
(296,805,cs),
(270.667,816.333,o),
(236.333,822,o),
(193,822,cs),
(187,822,l),
(187,930,l),
(167,930,l),
(167,803,l),
(185,803,ls),
(271.667,803,o),
(315.667,781.833,o),
(333,734.5,cs),
(341.667,710.833,o),
(346,679.667,o),
(346,641,cs),
(346,614,l),
(366,614,l),
(366,614,l)
);
},
{
closed = 1;
nodes = (
(540.667,733,o),
(555,747.333,o),
(555,766,cs),
(555,784.667,o),
(540.667,799,o),
(522,799,cs),
(503.333,799,o),
(488,784.667,o),
(488,766,cs),
(488,747.333,o),
(503.333,733,o),
(522,733,cs)
);
}
);
};
layerId = m01;
shapes = (
{
closed = 1;
nodes = (
(673,14,l),
(83,358,l),
(673,703,l),
(673,726,l),
(663,726,l),
(49,367,l),
(49,349,l),
(663,-10,l),
(673,-10,l),
(673,-10,l)
);
},
{
closed = 1;
nodes = (
(137.667,500,o),
(152,514.333,o),
(152,533,cs),
(152,551.667,o),
(137.667,566,o),
(119,566,cs),
(100.333,566,o),
(85,551.667,o),
(85,533,cs),
(85,514.333,o),
(100.333,500,o),
(119,500,cs)
);
},
{
closed = 1;
nodes = (
(366,649,ls),
(366,733,o),
(346.667,782.333,o),
(296,805,cs),
(270.667,816.333,o),
(236.333,822,o),
(193,822,cs),
(187,822,l),
(187,930,l),
(167,930,l),
(167,803,l),
(185,803,ls),
(271.667,803,o),
(315.667,781.833,o),
(333,734.5,cs),
(341.667,710.833,o),
(346,679.667,o),
(346,641,cs),
(346,614,l),
(366,614,l),
(366,614,l)
);
},
{
closed = 1;
nodes = (
(540.667,733,o),
(555,747.333,o),
(555,766,cs),
(555,784.667,o),
(540.667,799,o),
(522,799,cs),
(503.333,799,o),
(488,784.667,o),
(488,766,cs),
(488,747.333,o),
(503.333,733,o),
(522,733,cs)
);
}
);
width = 732;
},
{
background = {
shapes = (
{
closed = 1;
nodes = (
(693,160,l),
(340,358,l),
(693,556,l),
(693,725,l),
(648,725,l),
(29,380,l),
(29,335,l),
(648,-10,l),
(693,-10,l),
(693,-10,l)
);
},
{
closed = 1;
nodes = (
(163.667,500,o),
(201,537.333,o),
(201,584,cs),
(201,630.667,o),
(163.667,668,o),
(117,668,cs),
(70.333,668,o),
(33,630.667,o),
(33,584,cs),
(33,537.333,o),
(70.333,500,o),
(117,500,cs)
);
},
{
closed = 1;
nodes = (
(400,677,ls),
(400,809.29,o),
(343.606,871,o),
(213,871,cs),
(198,871,l),
(198,960,l),
(80,960,l),
(80,763,l),
(138,763,ls),
(212.667,763,o),
(252.667,751.333,o),
(270,718,cs),
(278.667,701.333,o),
(283,678,o),
(283,648,cs),
(283,610,l),
(400,610,l),
(400,610,l)
);
},
{
closed = 1;
nodes = (
(567.667,732,o),
(605,769.333,o),
(605,816,cs),
(605,862.667,o),
(567.667,900,o),
(521,900,cs),
(474.333,900,o),
(437,862.667,o),
(437,816,cs),
(437,769.333,o),
(474.333,732,o),
(521,732,cs)
);
}
);
};
layerId = "A1461942-0433-4891-A171-8512F51D8C86";
shapes = (
{
closed = 1;
nodes = (
(693,160,l),
(340,358,l),
(693,556,l),
(693,725,l),
(648,725,l),
(29,380,l),
(29,335,l),
(648,-10,l),
(693,-10,l),
(693,-10,l)
);
},
{
closed = 1;
nodes = (
(163.667,500,o),
(201,537.333,o),
(201,584,cs),
(201,630.667,o),
(163.667,668,o),
(117,668,cs),
(70.333,668,o),
(33,630.667,o),
(33,584,cs),
(33,537.333,o),
(70.333,500,o),
(117,500,cs)
);
},
{
closed = 1;
nodes = (
(400,677,ls),
(400,809.29,o),
(343.606,871,o),
(213,871,cs),
(198,871,l),
(198,960,l),
(80,960,l),
(80,763,l),
(138,763,ls),
(212.667,763,o),
(252.667,751.333,o),
(270,718,cs),
(278.667,701.333,o),
(283,678,o),
(283,648,cs),
(283,610,l),
(400,610,l),
(400,610,l)
);
},
{
closed = 1;
nodes = (
(567.667,732,o),
(605,769.333,o),
(605,816,cs),
(605,862.667,o),
(567.667,900,o),
(521,900,cs),
(474.333,900,o),
(437,862.667,o),
(437,816,cs),
(437,769.333,o),
(474.333,732,o),
(521,732,cs)
);
}
);
width = 732;
}
);
note = uni150C;
unicode = 5388;
},
{
color = 4;
glyphname = "she-canadian";
lastChange = "2022-05-06 12:58:24 +0000";
layers = (
{
background = {
shapes = (
{
closed = 1;
nodes = (
(713,-12,o),
(763,84,o),
(763,237,cs),
(763,282,l),
(737,282,l),
(737,238,ls),
(737,94,o),
(696,13,o),
(577,13,cs),
(460,13,o),
(417,94,o),
(417,238,cs),
(417,477,ls),
(417,632,o),
(367,726,o),
(231,726,cs),
(95,726,o),
(45,632,o),
(45,477,cs),
(45,432,l),
(71,432,l),
(71,476,ls),
(71,620,o),
(114,701,o),
(231,701,cs),
(350,701,o),
(391,620,o),
(391,476,cs),
(391,237,ls),
(391,84,o),
(441,-12,o),
(577,-12,cs)
);
}
);
};
layerId = m01;
shapes = (
{
closed = 1;
nodes = (
(857,-12,o),
(938,83,o),
(938,245,cs),
(938,304,l),
(912,304,l),
(912,247,ls),
(912,95,o),
(843,13,o),
(720,13,cs),
(594,13,o),
(534,97,o),
(524,242,cs),
(509,469,ls),
(498,628,o),
(425,726,o),
(291,726,cs),
(153,726,o),
(69,628,o),
(69,469,cs),
(69,410,l),
(95,410,l),
(95,469,ls),
(95,615,o),
(168,701,o),
(291,701,cs),
(410,701,o),
(474,615,o),
(483,472,cs),
(498,245,ls),
(509,81,o),
(582,-12,o),
(720,-12,cs)
);
}
);
width = 1007;
},
{
background = {
shapes = (
{
closed = 1;
nodes = (
(848,-15,o),
(949,93,o),
(949,273,cs),
(949,324,l),
(758,324,l),
(758,268,ls),
(758,187,o),
(730,151,o),
(678,151,cs),
(623,151,o),
(594,190,o),
(594,271,cs),
(594,443,ls),
(594,629,o),
(495,729,o),
(331,729,cs),
(155,729,o),
(49,621,o),
(49,441,cs),
(49,390,l),
(240,390,l),
(240,451,ls),
(240,525,o),
(269,563,o),
(323,563,cs),
(375,563,o),
(404,526,o),
(404,450,cs),
(404,271,ls),
(404,88,o),
(498,-15,o),
(675,-15,cs)
);
}
);
};
layerId = "A1461942-0433-4891-A171-8512F51D8C86";
shapes = (
{
closed = 1;
nodes = (
(858,-15,o),
(959,93,o),
(959,273,cs),
(959,324,l),
(768,324,l),
(768,268,ls),
(768,187,o),
(740,151,o),
(688,151,cs),
(633,151,o),
(609,190,o),
(604,271,cs),
(594,443,ls),
(583,629,o),
(495,729,o),
(331,729,cs),
(155,729,o),
(49,621,o),
(49,441,cs),
(49,390,l),
(240,390,l),
(240,451,ls),
(240,525,o),
(269,563,o),
(323,563,cs),
(375,563,o),
(400,526,o),
(404,450,cs),
(414,271,ls),
(424,88,o),
(508,-15,o),
(685,-15,cs)
);
}
);
width = 1008;
}
);
note = uni1510;
unicode = 5392;
},
{
color = 4;
glyphname = "shi-canadian";
lastChange = "2022-05-06 12:58:21 +0000";
layers = (
{
background = {
shapes = (
{
closed = 1;
nodes = (
(391,-12,o),
(441,83.667,o),
(441,237,cs),
(441,476,ls),
(441,620,o),
(483.667,701,o),
(601,701,cs),
(719.667,701,o),
(761,620,o),
(761,476,cs),
(761,432,l),
(787,432,l),
(787,477,ls),
(787,631.667,o),
(737,726,o),
(601,726,cs),
(465,726,o),
(415,631.667,o),
(415,477,cs),
(415,238,ls),
(415,94,o),
(373.667,13,o),
(255,13,cs),
(137.667,13,o),
(95,94,o),
(95,238,cs),
(95,282,l),
(69,282,l),
(69,237,ls),
(69,83.667,o),
(119,-12,o),
(255,-12,cs)
);
}
);
};
layerId = m01;
shapes = (
{
closed = 1;
nodes = (
(425,-12,o),
(498,81,o),
(509,245,cs),
(524,472,ls),
(533,615,o),
(597,701,o),
(716,701,cs),
(839,701,o),
(912,615,o),
(912,469,cs),
(912,410,l),
(938,410,l),
(938,469,ls),
(938,628,o),
(854,726,o),
(716,726,cs),
(582,726,o),
(509,628,o),
(498,469,cs),
(483,242,ls),
(473,97,o),
(413,13,o),
(287,13,cs),
(164,13,o),
(95,95,o),
(95,247,cs),
(95,304,l),
(69,304,l),
(69,245,ls),
(69,83,o),
(150,-12,o),
(287,-12,cs)
);
}
);
width = 1007;
},
{
background = {
shapes = (
{
closed = 1;
nodes = (
(442.667,-12,o),
(528,70,o),
(528,230,cs),
(528,484,ls),
(528,550.667,o),
(543.667,573,o),
(577,573,cs),
(615.667,573,o),
(628,542.667,o),
(628,484,cs),
(628,415,l),
(818,415,l),
(818,465,ls),
(818,643.667,o),
(740.667,726,o),
(582,726,cs),
(424.667,726,o),
(339,644,o),
(339,484,cs),
(339,230,ls),
(339,166,o),
(325,141,o),
(289,141,cs),
(253,141,o),
(239,167.333,o),
(239,230,cs),
(239,299,l),
(49,299,l),
(49,249,ls),
(49,70.333,o),
(126.667,-12,o),
(284,-12,cs)
);
}
);
};
layerId = "A1461942-0433-4891-A171-8512F51D8C86";
shapes = (
{
closed = 1;
nodes = (
(500,-15,o),
(584,88,o),
(594,271,cs),
(604,450,ls),
(608,526,o),
(633,563,o),
(685,563,cs),
(739,563,o),
(768,525,o),
(768,451,cs),
(768,390,l),
(959,390,l),
(959,441,ls),
(959,621,o),
(853,729,o),
(677,729,cs),
(513,729,o),
(425,629,o),
(414,443,cs),
(404,271,ls),
(399,190,o),
(375,151,o),
(320,151,cs),
(268,151,o),
(240,187,o),
(240,268,cs),
(240,324,l),
(49,324,l),
(49,273,ls),
(49,93,o),
(150,-15,o),
(323,-15,cs)
);
}
);
width = 1008;
}
);
note = uni1511;
unicode = 5393;
},
{
color = 4;
glyphname = "sho-canadian";
lastChange = "2022-05-06 13:07:32 +0000";
layers = (
{
background = {
shapes = (
{
closed = 1;
nodes = (
(1387,13,l),
(1240,22,o),
(1195,144,o),
(1195,241,cs),
(1195,379,o),
(1275,468,o),
(1391,468,cs),
(1474,468,o),
(1523,428,o),
(1565,332,cs),
(1651,137,ls),
(1695,37,o),
(1752,-12,o),
(1847,-12,cs),
(1979,-12,o),
(2069,90,o),
(2069,240,cs),
(2069,374,o),
(1998,482,o),
(1853,493,c),
(1851,468,l),
(1998,459,o),
(2043,337,o),
(2043,240,cs),
(2043,102,o),
(1963,13,o),
(1847,13,cs),
(1764,13,o),
(1715,53,o),
(1673,149,cs),
(1587,344,ls),
(1543,444,o),
(1486,493,o),
(1391,493,cs),
(1259,493,o),
(1169,391,o),
(1169,241,cs),
(1169,107,o),
(1240,-1,o),
(1385,-12,c)
);
},
{
closed = 1;
nodes = (
(735,468,l),
(866,468,o),
(943,380,o),
(943,240,cs),
(943,102,o),
(863,13,o),
(747,13,cs),
(664,13,o),
(615,53,o),
(573,149,cs),
(487,344,ls),
(443,444,o),
(386,493,o),
(291,493,cs),
(159,493,o),
(69,391,o),
(69,241,cs),
(69,107,o),
(140,-1,o),
(285,-12,c),
(287,13,l),
(140,22,o),
(95,144,o),
(95,241,cs),
(95,379,o),
(175,468,o),
(291,468,cs),
(374,468,o),
(423,428,o),
(465,332,cs),
(551,137,ls),
(595,37,o),
(652,-12,o),
(747,-12,cs),
(879,-12,o),
(969,90,o),
(969,240,cs),
(969,396,o),
(877,493,o),
(735,493,c)
);
}
);
};
layerId = m01;
shapes = (
{
closed = 1;
nodes = (
(303,13,l),
(172,13,o),
(95,101,o),
(95,241,cs),
(95,379,o),
(175,468,o),
(291,468,cs),
(374,468,o),
(421,428,o),
(464,332,cs),
(552,137,ls),
(597,37,o),
(652,-12,o),
(747,-12,cs),
(879,-12,o),
(969,90,o),
(969,240,cs),
(969,396,o),
(877,493,o),
(735,493,c),
(735,468,l),
(866,468,o),
(943,380,o),
(943,240,cs),
(943,102,o),
(863,13,o),
(747,13,cs),
(664,13,o),
(617,53,o),
(574,149,cs),
(486,344,ls),
(441,444,o),
(386,493,o),
(291,493,cs),
(159,493,o),
(69,391,o),
(69,241,cs),
(69,85,o),
(161,-12,o),
(303,-12,c)
);
}
);
width = 1038;
},
{
background = {
shapes = (
{
closed = 1;
nodes = (
(1443,152,l),
(1375,152,o),
(1338,190,o),
(1338,259,cs),
(1338,330,o),
(1371,365,o),
(1416,365,cs),
(1447,365,o),
(1470,350,o),
(1494,299,cs),
(1563,155,ls),
(1627,21,o),
(1701,-15,o),
(1806,-15,cs),
(1967,-15,o),
(2079,103,o),
(2079,262,cs),
(2079,424,o),
(1967,529,o),
(1800,529,c),
(1785,362,l),
(1851,362,o),
(1890,322,o),
(1890,255,cs),
(1890,184,o),
(1857,149,o),
(1812,149,cs),
(1781,149,o),
(1757,165,o),
(1733,215,cs),
(1665,359,ls),
(1601,493,o),
(1527,529,o),
(1422,529,cs),
(1260,529,o),
(1149,421,o),
(1149,262,cs),
(1149,100,o),
(1261,-15,o),
(1428,-15,c)
);
},
{
closed = 1;
nodes = (
(675,362,l),
(753,362,o),
(790,324,o),
(790,255,cs),
(790,184,o),
(757,149,o),
(712,149,cs),
(681,149,o),
(658,164,o),
(634,215,cs),
(565,359,ls),
(510,473,o),
(438,529,o),
(318,529,cs),
(161,529,o),
(49,411,o),
(49,252,cs),
(49,90,o),
(161,-15,o),
(353,-15,c),
(353,152,l),
(277,152,o),
(238,192,o),
(238,259,cs),
(238,330,o),
(271,365,o),
(316,365,cs),
(347,365,o),
(371,349,o),
(395,299,cs),
(463,155,ls),
(517,41,o),
(590,-15,o),
(710,-15,cs),
(868,-15,o),
(979,93,o),
(979,252,cs),
(979,424,o),
(867,529,o),
(675,529,c)
);
}
);
};
layerId = "A1461942-0433-4891-A171-8512F51D8C86";
shapes = (
{
closed = 1;
nodes = (
(353,152,l),
(275,152,o),
(238,190,o),
(238,259,cs),
(238,330,o),
(271,365,o),
(316,365,cs),
(347,365,o),
(370,350,o),
(394,299,cs),
(463,155,ls),
(518,41,o),
(590,-15,o),
(710,-15,cs),
(867,-15,o),
(979,93,o),
(979,252,cs),
(979,424,o),
(867,529,o),
(675,529,c),
(675,362,l),
(753,362,o),
(790,324,o),
(790,255,cs),
(790,184,o),
(757,149,o),
(712,149,cs),
(681,149,o),
(657,165,o),
(633,215,cs),
(565,359,ls),
(511,473,o),
(438,529,o),
(318,529,cs),
(160,529,o),
(49,421,o),
(49,262,cs),
(49,90,o),
(161,-15,o),
(353,-15,c)
);
}
);
width = 1028;
}
);
note = uni1513;
unicode = 5395;
},
{
color = 4;
glyphname = "sha-canadian";
lastChange = "2022-05-06 13:08:08 +0000";
layers = (
{
background = {
shapes = (
{
closed = 1;
nodes = (
(386,-12,o),
(443,37,o),
(487,137,cs),
(573,332,ls),
(615,428,o),
(664,468,o),
(747,468,cs),
(863,468,o),
(943,379,o),
(943,241,cs),
(943,144,o),
(898,22,o),
(751,13,c),
(753,-12,l),
(898,-1,o),
(969,107,o),
(969,241,cs),
(969,391,o),
(879,493,o),
(747,493,cs),
(652,493,o),
(595,444,o),
(551,344,cs),
(465,149,ls),
(423,53,o),
(374,13,o),
(291,13,cs),
(175,13,o),
(95,102,o),
(95,240,cs),
(95,337,o),
(140,459,o),
(287,468,c),
(285,493,l),
(140,482,o),
(69,374,o),
(69,240,cs),
(69,90,o),
(159,-12,o),
(291,-12,cs)
);
}
);
};
layerId = m01;
shapes = (
{
closed = 1;
nodes = (
(386,-12,o),
(441,37,o),
(486,137,cs),
(574,332,ls),
(617,428,o),
(664,468,o),
(747,468,cs),
(863,468,o),
(943,379,o),
(943,241,cs),
(943,101,o),
(866,13,o),
(735,13,c),
(735,-12,l),
(877,-12,o),
(969,85,o),
(969,241,cs),
(969,391,o),
(879,493,o),
(747,493,cs),
(652,493,o),
(597,444,o),
(552,344,cs),
(464,149,ls),
(421,53,o),
(374,13,o),
(291,13,cs),
(175,13,o),
(95,102,o),
(95,240,cs),
(95,380,o),
(172,468,o),
(303,468,c),
(303,493,l),
(161,493,o),
(69,396,o),
(69,240,cs),
(69,90,o),
(159,-12,o),
(291,-12,cs)
);
}
);
width = 1008;
},
{
background = {
shapes = (
{
closed = 1;
nodes = (
(417,-15,o),
(500,20,o),
(561,147,cs),
(633,299,ls),
(657,349,o),
(681,365,o),
(712,365,cs),
(757,365,o),
(790,330,o),
(790,259,cs),
(790,192,o),
(751,152,o),
(685,152,c),
(700,-15,l),
(867,-15,o),
(979,100,o),
(979,267,cs),
(979,424,o),
(877,529,o),
(713,529,cs),
(611,529,o),
(528,494,o),
(467,367,cs),
(395,215,ls),
(371,164,o),
(347,149,o),
(316,149,cs),
(271,149,o),
(238,184,o),
(238,255,cs),
(238,324,o),
(275,362,o),
(343,362,c),
(328,529,l),
(161,529,o),
(49,414,o),
(49,247,cs),
(49,91,o),
(150,-15,o),
(315,-15,cs)
);
}
);
};
layerId = "A1461942-0433-4891-A171-8512F51D8C86";
shapes = (
{
closed = 1;
nodes = (
(438,-15,o),
(511,41,o),
(565,155,cs),
(633,299,ls),
(657,349,o),
(681,365,o),
(712,365,cs),
(757,365,o),
(790,330,o),
(790,259,cs),
(790,190,o),
(753,152,o),
(675,152,c),
(675,-15,l),
(867,-15,o),
(979,90,o),
(979,262,cs),
(979,421,o),
(867,529,o),
(710,529,cs),
(590,529,o),
(518,473,o),
(463,359,cs),
(394,215,ls),
(370,164,o),
(347,149,o),
(316,149,cs),
(271,149,o),
(238,184,o),
(238,255,cs),
(238,324,o),
(275,362,o),
(353,362,c),
(353,529,l),
(161,529,o),
(49,424,o),
(49,252,cs),
(49,93,o),
(160,-15,o),
(318,-15,cs)
);
}
);
width = 1028;
}
);
note = uni1515;
unicode = 5397;
},
{
color = 3;
glyphname = "sh-canadian";
lastChange = "2022-05-09 21:08:22 +0000";
layers = (
{
background = {
shapes = (
{
closed = 1;
nodes = (
(541,436,o),
(585,497,o),
(585,578,cs),
(585,665,o),
(535,720,o),
(456,720,cs),
(401,720,o),
(369,692,o),
(342,645,cs),
(329,622,o),
(314,594,o),
(297,563,cs),
(270,512,o),
(246,471,o),
(214,448,cs),
(198,436,o),
(179,430,o),
(156,430,cs),
(95,430,o),
(53,477,o),
(53,552,cs),
(53,631,o),
(97,674,o),
(165,705,c),
(156,726,l),
(73,693,o),
(29,632,o),
(29,549,cs),
(29,464,o),
(82,407,o),
(159,407,cs),
(214,407,o),
(246,433,o),
(275,477,cs),
(289,499,o),
(304,525,o),
(319,554,cs),
(347,606,o),
(368,652,o),
(400,678,cs),
(415,691,o),
(435,697,o),
(459,697,cs),
(520,697,o),
(561,650,o),
(561,578,cs),
(561,507,o),
(522,454,o),
(449,423,c),
(458,401,l),
(458,401,l)
);
}
);
};
layerId = m01;
shapes = (
{
closed = 1;
nodes = (
(281,351,o),
(325,387,o),
(357,460,cs),
(417,598,ls),
(448,669,o),
(484,698,o),
(544,698,cs),
(625,698,o),
(684,637,o),
(684,536,cs),
(684,434,o),
(627,373,o),
(536,373,c),
(536,351,l),
(639,351,o),
(707,422,o),
(707,536,cs),
(707,645,o),
(641,720,o),
(544,720,cs),
(475,720,o),
(431,684,o),
(399,611,cs),
(339,473,ls),
(308,402,o),
(272,373,o),
(211,373,cs),
(130,373,o),
(72,434,o),
(72,535,cs),
(72,637,o),
(128,698,o),
(220,698,c),
(220,720,l),
(116,720,o),
(49,649,o),
(49,535,cs),
(49,426,o),
(115,351,o),
(211,351,cs)
);
}
);
width = 756;
},
{
background = {
shapes = (
{
closed = 1;
nodes = (
(596,402,o),
(648,466,o),
(648,563,cs),
(648,660,o),
(597,725,o),
(494,725,cs),
(447,725,o),
(414,710,o),
(373,670,cs),
(352,649,o),
(327,621,o),
(297,584,cs),
(246,521,o),
(210,467,o),
(172,467,cs),
(151,467,o),
(137,487,o),
(137,518,cs),
(137,567,o),
(162,604,o),
(203,645,c),
(130,725,l),
(69,676,o),
(19,608,o),
(19,517,cs),
(19,420,o),
(76,359,o),
(169,359,cs),
(232,359,o),
(272,386,o),
(308,428,cs),
(326,449,o),
(345,471,o),
(365,496,cs),
(415,559,o),
(448,596,o),
(467,609,cs),
(476,614,o),
(484,617,o),
(491,617,cs),
(518,617,o),
(530,595,o),
(530,559,cs),
(530,508,o),
(507,471,o),
(468,440,c),
(536,358,l),
(536,358,l)
);
}
);
};
layerId = "A1461942-0433-4891-A171-8512F51D8C86";
shapes = (
{
closed = 1;
nodes = (
(297,351,o),
(339,389,o),
(377,466,cs),
(426,564,ls),
(443,598,o),
(458,609,o),
(481,609,cs),
(512,609,o),
(534,585,o),
(534,540,cs),
(534,490,o),
(508,464,o),
(448,464,c),
(448,351,l),
(578,351,o),
(654,422,o),
(654,539,cs),
(654,647,o),
(580,720,o),
(485,720,cs),
(396,720,o),
(350,676,o),
(315,605,cs),
(266,507,ls),
(249,472,o),
(235,462,o),
(212,462,cs),
(181,462,o),
(159,486,o),
(159,531,cs),
(159,581,o),
(185,607,o),
(245,607,c),
(245,720,l),
(115,720,o),
(39,649,o),
(39,532,cs),
(39,424,o),
(112,351,o),
(217,351,cs)
);
}
);
width = 693;
}
);
note = uni1525;
unicode = 5413;
},
{
color = 3;
glyphname = "ye-canadian";
lastChange = "2022-04-21 13:54:30 +0000";
layers = (
{
background = {
shapes = (
{
closed = 1;
nodes = (
(853,297,l),
(451,297,l),
(787,711,l),
(766,726,l),
(412,290,l),
(412,272,l),
(827,272,l),
(827,0,l),
(853,0,l),
(853,0,l)
);
},
{
closed = 1;
nodes = (
(503,0,l),
(503,297,l),
(60,297,l),
(60,280,l),
(511,708,l),
(495,726,l),
(39,292,l),
(39,272,l),
(477,272,l),
(477,0,l)
);
}
);
};
layerId = m01;
shapes = (
{
closed = 1;
nodes = (
(503,0,l),
(503,305,l),
(60,305,l),
(62,288,l),
(513,708,l),
(495,726,l),
(39,300,l),
(39,280,l),
(477,280,l),
(477,0,l)
);
}
);
width = 582;
},
{
background = {
shapes = (
{
closed = 1;
nodes = (
(1393,376,l),
(1145,376,l),
(1323,628,l),
(1178,726,l),
(853,265,l),
(853,220,l),
(1200,220,l),
(1200,0,l),
(1393,0,l),
(1393,0,l)
);
},
{
closed = 1;
nodes = (
(593,0,l),
(593,387,l),
(276,387,l),
(276,274,l),
(613,608,l),
(488,726,l),
(29,265,l),
(29,220,l),
(402,220,l),
(402,0,l)
);
}
);
};
guides = (
{
angle = 225.1246;
pos = (613,608);
}
);
layerId = "A1461942-0433-4891-A171-8512F51D8C86";
shapes = (
{
closed = 1;
nodes = (
(593,0,l),
(593,377,l),
(276,377,l),
(276,264,l),
(613,608,l),
(488,726,l),
(29,255,l),
(29,210,l),
(402,210,l),
(402,0,l)
);
}
);
width = 652;
}
);
note = uni1526;
unicode = 5414;
},
{
color = 3;
glyphname = "yi-canadian";
lastChange = "2022-05-06 10:16:38 +0000";
layers = (
{
background = {
shapes = (
{
closed = 1;
nodes = (
(795,272,l),
(1210,272,l),
(1210,290,l),
(856,726,l),
(835,711,l),
(1171,297,l),
(769,297,l),
(769,0,l),
(795,0,l),
(795,0,l)
);
},
{
closed = 1;
nodes = (
(105,280,l),
(543,280,l),
(543,300,l),
(87,726,l),
(69,708,l),
(520,288,l),
(522,305,l),
(79,305,l),
(79,0,l),
(105,0,l)
);
}
);
};
layerId = m01;
shapes = (
{
closed = 1;
nodes = (
(105,0,l),
(105,280,l),
(543,280,l),
(543,300,l),
(87,726,l),
(70,708,l),
(521,288,l),
(522,305,l),
(79,305,l),
(79,0,l)
);
}
);
width = 582;
},
{
background = {
shapes = (
{
closed = 1;
nodes = (
(1052,220,l),
(1399,220,l),
(1399,265,l),
(1074,726,l),
(929,628,l),
(1107,376,l),
(859,376,l),
(859,0,l),
(1052,0,l),
(1052,0,l)
);
},
{
closed = 1;
nodes = (
(250,0,l),
(250,210,l),
(623,210,l),
(623,255,l),
(164,726,l),
(39,608,l),
(376,264,l),
(376,377,l),
(59,377,l),
(59,0,l)
);
}
);
};
layerId = "A1461942-0433-4891-A171-8512F51D8C86";
shapes = (
{
closed = 1;
nodes = (
(250,0,l),
(250,210,l),
(623,210,l),
(623,255,l),
(164,726,l),
(42,610,l),
(379,266,l),
(379,377,l),
(59,377,l),
(59,0,l)
);
}
);
width = 652;
}
);
note = uni1528;
unicode = 5416;
},
{
color = 3;
glyphname = "yo-canadian";
lastChange = "2022-05-06 11:06:32 +0000";
layers = (
{
background = {
shapes = (
{
closed = 1;
nodes = (
(57,417,l),
(459,417,l),
(459,714,l),
(433,714,l),
(433,442,l),
(18,442,l),
(18,424,l),
(372,-12,l),
(393,3,l),
(393,3,l)
);
}
);
};
layerId = m01;
shapes = (
{
closed = 1;
nodes = (
(512,6,l),
(61,426,l),
(60,409,l),
(503,409,l),
(503,714,l),
(477,714,l),
(477,434,l),
(39,434,l),
(39,414,l),
(495,-12,l)
);
}
);
width = 591;
},
{
background = {
shapes = (
{
closed = 1;
nodes = (
(308,338,l),
(556,338,l),
(556,714,l),
(363,714,l),
(363,494,l),
(16,494,l),
(16,449,l),
(341,-12,l),
(486,86,l),
(486,86,l)
);
}
);
};
layerId = "A1461942-0433-4891-A171-8512F51D8C86";
shapes = (
{
closed = 1;
nodes = (
(610,104,l),
(273,448,l),
(273,337,l),
(593,337,l),
(593,714,l),
(402,714,l),
(402,504,l),
(29,504,l),
(29,459,l),
(488,-12,l)
);
}
);
width = 649;
}
);
note = uni152A;
unicode = 5418;
},
{
color = 3;
glyphname = "ya-canadian";
lastChange = "2022-05-10 09:16:22 +0000";
layers = (
{
background = {
shapes = (
{
closed = 1;
nodes = (
(540,442,l),
(125,442,l),
(125,714,l),
(99,714,l),
(99,417,l),
(501,417,l),
(165,3,l),
(186,-12,l),
(540,424,l),
(540,424,l)
);
}
);
};
layerId = m01;
shapes = (
{
closed = 1;
nodes = (
(543,414,l),
(543,434,l),
(105,434,l),
(105,714,l),
(79,714,l),
(79,409,l),
(522,409,l),
(520,426,l),
(69,6,l),
(87,-12,l)
);
}
);
width = 582;
},
{
background = {
shapes = (
{
closed = 1;
nodes = (
(599,494,l),
(252,494,l),
(252,714,l),
(59,714,l),
(59,338,l),
(307,338,l),
(129,86,l),
(274,-12,l),
(599,449,l),
(599,449,l)
);
}
);
};
layerId = "A1461942-0433-4891-A171-8512F51D8C86";
shapes = (
{
closed = 1;
nodes = (
(623,459,l),
(623,504,l),
(250,504,l),
(250,714,l),
(59,714,l),
(59,337,l),
(376,337,l),
(376,450,l),
(39,106,l),
(164,-12,l)
);
}
);
width = 662;
}
);
note = uni152D;
unicode = 5421;
},
{
color = 3;
glyphname = "y-canadian";
lastChange = "2022-05-10 13:42:02 +0000";
layers = (
{
background = {
shapes = (
{
closed = 1;
nodes = (
(299,582,l),
(78,582,l),
(78,714,l),
(54,714,l),
(54,560,l),
(261,560,l),
(77,340,l),
(95,326,l),
(299,570,l),
(299,570,l)
);
}
);
};
layerId = m01;
shapes = (
{
closed = 1;
nodes = (
(292,562,l),
(292,574,l),
(73,574,l),
(73,714,l),
(49,714,l),
(49,552,l),
(271,552,l),
(270,570,l),
(49,365,l),
(64,349,l)
);
}
);
width = 341;
},
{
background = {
shapes = (
{
closed = 1;
nodes = (
(359,589,l),
(147,589,l),
(147,714,l),
(29,714,l),
(29,480,l),
(172,480,l),
(72,340,l),
(160,279,l),
(359,561,l),
(359,561,l)
);
}
);
};
layerId = "A1461942-0433-4891-A171-8512F51D8C86";
shapes = (
{
closed = 1;
nodes = (
(341,577,l),
(341,609,l),
(155,609,l),
(155,714,l),
(39,714,l),
(39,506,l),
(198,506,l),
(198,582,l),
(39,410,l),
(122,341,l)
);
}
);
width = 380;
}
);
note = uni153E;
unicode = 5438;
},
{
color = 3;
glyphname = "biblecreey-canadian";
lastChange = "2022-05-10 10:07:56 +0000";
layers = (
{
background = {
shapes = (
{
closed = 1;
nodes = (
(140,662,l),
(258,342,l),
(263,342,l),
(380,662,l),
(452,342,l),
(472,342,l),
(472,350,l),
(391,714,l),
(376,714,l),
(260,400,l),
(144,714,l),
(129,714,l),
(48,350,l),
(48,342,l),
(68,342,l),
(68,342,l)
);
}
);
};
layerId = m01;
shapes = (
{
closed = 1;
nodes = (
(155,682,l),
(143,682,l),
(256,357,l),
(264,357,l),
(377,682,l),
(365,682,l),
(451,357,l),
(471,357,l),
(471,365,l),
(380,714,l),
(366,714,l),
(254,391,l),
(266,391,l),
(154,714,l),
(140,714,l),
(49,365,l),
(49,357,l),
(69,357,l)
);
}
);
width = 520;
},
{
background = {
shapes = (
{
closed = 1;
nodes = (
(182,525,l),
(270,316,l),
(331,316,l),
(419,525,l),
(458,317,l),
(562,317,l),
(562,350,l),
(489,714,l),
(399,714,l),
(304,486,l),
(202,714,l),
(112,714,l),
(39,350,l),
(39,317,l),
(143,317,l),
(143,317,l)
);
}
);
};
guides = (
{
angle = 245.8209;
pos = (441,592);
}
);
layerId = "A1461942-0433-4891-A171-8512F51D8C86";
shapes = (
{
closed = 1;
nodes = (
(210,587,l),
(158,587,l),
(258,357,l),
(322,357,l),
(422,587,l),
(370,587,l),
(437,358,l),
(541,358,l),
(541,387,l),
(451,714,l),
(368,714,l),
(261,469,l),
(319,469,l),
(212,714,l),
(129,714,l),
(39,387,l),
(39,358,l),
(143,358,l)
);
}
);
width = 580;
}
);
note = uni153F;
unicode = 5439;
},
{
color = 3;
glyphname = "yWestCree-canadian";
lastChange = "2022-05-10 09:28:20 +0000";
layers = (
{
background = {
shapes = (
{
closed = 1;
nodes = (
(211,356,l),
(352,356,l),
(352,378,l),
(211,378,l),
(211,528,l),
(189,528,l),
(189,378,l),
(49,378,l),
(49,356,l),
(189,356,l),
(189,205,l),
(211,205,l),
(211,205,l)
);
}
);
};
layerId = m01;
shapes = (
{
closed = 1;
nodes = (
(240,189,l),
(240,546,l),
(216,546,l),
(216,189,l)
);
},
{
closed = 1;
nodes = (
(405,358,l),
(405,380,l),
(49,380,l),
(49,358,l)
);
}
);
width = 454;
},
{
background = {
shapes = (
{
closed = 1;
nodes = (
(255,315,l),
(365,315,l),
(365,421,l),
(255,421,l),
(255,534,l),
(139,534,l),
(139,421,l),
(29,421,l),
(29,315,l),
(139,315,l),
(139,202,l),
(255,202,l),
(255,202,l)
);
}
);
};
layerId = "A1461942-0433-4891-A171-8512F51D8C86";
shapes = (
{
closed = 1;
nodes = (
(281,189,l),
(281,546,l),
(167,546,l),
(167,189,l)
);
},
{
closed = 1;
nodes = (
(407,317,l),
(407,421,l),
(39,421,l),
(39,317,l)
);
}
);
width = 446;
}
);
note = uni1540;
unicode = 5440;
},
{
color = 3;
glyphname = "yiSayisi-canadian";
lastChange = "2022-05-10 12:31:16 +0000";
layers = (
{
background = {
shapes = (
{
closed = 1;
nodes = (
(87,528,l),
(58,528,l),
(309,206,l),
(339,206,l),
(339,206,l)
);
},
{
closed = 1;
nodes = (
(332,528,l),
(303,528,l),
(51,206,l),
(81,206,l),
(81,206,l)
);
}
);
};
layerId = m01;
shapes = (
{
closed = 1;
nodes = (
(278,189,l),
(278,195,l),
(174,372,l),
(169,381,l),
(72,546,l),
(52,546,l),
(52,539,l),
(153,368,l),
(159,358,l),
(258,189,l)
);
},
{
closed = 1;
nodes = (
(70,189,l),
(168,358,l),
(174,368,l),
(275,539,l),
(275,546,l),
(255,546,l),
(158,381,l),
(153,372,l),
(49,195,l),
(49,189,l)
);
}
);
width = 327;
},
{
background = {
shapes = (
{
closed = 1;
nodes = (
(22,553,l),
(-109,553,l),
(143,206,l),
(274,206,l),
(274,206,l)
);
},
{
closed = 1;
nodes = (
(274,553,l),
(143,553,l),
(-109,206,l),
(22,206,l),
(22,206,l)
);
}
);
};
layerId = "A1461942-0433-4891-A171-8512F51D8C86";
shapes = (
{
closed = 1;
nodes = (
(353,189,l),
(353,211,l),
(243,388,l),
(214,427,l),
(140,546,l),
(40,546,l),
(40,523,l),
(147,354,l),
(172,321,l),
(253,189,l)
);
},
{
closed = 1;
nodes = (
(139,189,l),
(220,331,l),
(244,344,l),
(352,523,l),
(352,546,l),
(252,546,l),
(178,417,l),
(149,398,l),
(39,211,l),
(39,189,l)
);
}
);
width = 392;
}
);
note = uni1541;
unicode = 5441;
},
{
color = 3;
glyphname = "re-canadian";
lastChange = "2022-04-07 11:12:27 +0000";
layers = (
{
background = {
shapes = (
{
closed = 1;
nodes = (
(2689,-10,o),
(2792,79,o),
(2792,252,cs),
(2792,475,l),
(3038,475,l),
(3038,500,l),
(2766,500,l),
(2766,244,ls),
(2766,92,o),
(2673,15,o),
(2530,15,cs),
(2381,15,o),
(2295,96,o),
(2295,256,cs),
(2295,500,l),
(2269,500,l),
(2269,254,ls),
(2269,82,o),
(2363,-10,o),
(2529,-10,cs)
);
},
{
closed = 1;
nodes = (
(1456,-12,o),
(1551,86,o),
(1551,235,cs),
(1551,456,l),
(1851,456,l),
(1851,481,l),
(1525,481,l),
(1525,235,ls),
(1525,100,o),
(1443,13,o),
(1310,13,cs),
(1177,13,o),
(1095,100,o),
(1095,235,cs),
(1095,481,l),
(1069,481,l),
(1069,235,ls),
(1069,86,o),
(1164,-12,o),
(1310,-12,cs)
);
},
{
closed = 1;
nodes = (
(455,-12,o),
(551,86,o),
(551,235,cs),
(551,344,o),
(496,436,o),
(390,466,c),
(393,456,l),
(810,456,l),
(810,481,l),
(315,481,ls),
(161,481,o),
(69,381,o),
(69,235,cs),
(69,86,o),
(164,-12,o),
(310,-12,cs)
);
},
{
closed = 1;
nodes = (
(177,13,o),
(95,100,o),
(95,235,cs),
(95,370,o),
(177,456,o),
(313,456,cs),
(443,456,o),
(525,371,o),
(525,235,cs),
(525,99,o),
(443,13,o),
(310,13,cs)
);
}
);
};
layerId = m01;
shapes = (
{
closed = 1;
nodes = (
(446,-12,o),
(531,87,o),
(531,248,cs),
(531,456,l),
(851,456,l),
(851,481,l),
(505,481,l),
(505,248,ls),
(505,101,o),
(433,13,o),
(300,13,cs),
(167,13,o),
(95,101,o),
(95,248,cs),
(95,481,l),
(69,481,l),
(69,248,ls),
(69,87,o),
(154,-12,o),
(300,-12,cs)
);
}
);
width = 910;
},
{
background = {
shapes = (
{
closed = 1;
nodes = (
(2692,-12,o),
(2819,107,o),
(2819,311,cs),
(2819,361,l),
(3037,361,l),
(3037,517,l),
(2626,517,l),
(2626,293,ls),
(2626,202,o),
(2575,151,o),
(2484,151,cs),
(2395,151,o),
(2342,202,o),
(2342,293,cs),
(2342,517,l),
(2149,517,l),
(2149,311,ls),
(2149,112,o),
(2272,-12,o),
(2485,-12,cs)
);
},
{
closed = 1;
nodes = (
(1518,-15,o),
(1631,94,o),
(1631,246,cs),
(1631,347,l),
(1872,347,l),
(1872,514,l),
(1440,514,l),
(1440,249,ls),
(1440,186,o),
(1402,147,o),
(1340,147,cs),
(1278,147,o),
(1240,186,o),
(1240,249,cs),
(1240,514,l),
(1049,514,l),
(1049,246,ls),
(1049,94,o),
(1162,-15,o),
(1340,-15,cs)
);
},
{
closed = 1;
nodes = (
(518,-15,o),
(631,87,o),
(631,243,cs),
(631,293,o),
(617,349,o),
(588,388,c),
(551,347,l),
(872,347,l),
(872,514,l),
(365,514,ls),
(163,514,o),
(49,399,o),
(49,245,cs),
(49,94,o),
(167,-15,o),
(341,-15,cs)
);
},
{
closed = 1;
nodes = (
(273,147,o),
(238,197,o),
(238,249,cs),
(238,301,o),
(273,352,o),
(341,352,cs),
(409,352,o),
(442,301,o),
(442,249,cs),
(442,197,o),
(409,147,o),
(341,147,cs)
);
}
);
};
layerId = "A1461942-0433-4891-A171-8512F51D8C86";
shapes = (
{
closed = 1;
nodes = (
(515,-15,o),
(624,93,o),
(624,253,cs),
(624,347,l),
(908,347,l),
(908,514,l),
(436,514,l),
(436,271,ls),
(436,191,o),
(401,149,o),
(339,149,cs),
(277,149,o),
(242,191,o),
(242,271,cs),
(242,514,l),
(49,514,l),
(49,253,ls),
(49,93,o),
(160,-15,o),
(338,-15,cs)
);
}
);
width = 947;
}
);
note = uni1542;
unicode = 5442;
},
{
color = 3;
glyphname = "reRCree-canadian";
lastChange = "2022-04-07 11:13:17 +0000";
layers = (
{
background = {
shapes = (
{
closed = 1;
nodes = (
(744,-10,o),
(838,81,o),
(838,254,cs),
(838,500,l),
(812,500,l),
(812,256,ls),
(812,96,o),
(726,15,o),
(577,15,cs),
(436,15,o),
(341,92,o),
(341,244,cs),
(341,500,l),
(69,500,l),
(69,475,l),
(315,475,l),
(315,252,ls),
(315,79,o),
(418,-10,o),
(578,-10,cs)
);
}
);
};
layerId = m01;
shapes = (
{
closed = 1;
nodes = (
(758,-12,o),
(841,87,o),
(841,248,cs),
(841,481,l),
(815,481,l),
(815,248,ls),
(815,101,o),
(745,13,o),
(612,13,cs),
(479,13,o),
(405,97,o),
(405,244,cs),
(405,481,l),
(59,481,l),
(59,456,l),
(379,456,l),
(379,244,ls),
(379,83,o),
(466,-12,o),
(612,-12,cs)
);
}
);
width = 910;
},
{
background = {
shapes = (
{
closed = 1;
nodes = (
(803.887,-12,o),
(927,111.291,o),
(927,311,cs),
(927,517,l),
(734,517,l),
(734,293,ls),
(734,202.333,o),
(682.667,151,o),
(592,151,cs),
(501.333,151,o),
(450,202.333,o),
(450,293,cs),
(450,517,l),
(39,517,l),
(39,361,l),
(257,361,l),
(257,311,ls),
(257,110.607,o),
(381.996,-12,o),
(591,-12,cs)
);
}
);
};
layerId = "A1461942-0433-4891-A171-8512F51D8C86";
shapes = (
{
closed = 1;
nodes = (
(787,-15,o),
(898,93,o),
(898,253,cs),
(898,514,l),
(705,514,l),
(705,271,ls),
(705,191,o),
(670,149,o),
(608,149,cs),
(546,149,o),
(511,188,o),
(511,268,cs),
(511,514,l),
(39,514,l),
(39,347,l),
(323,347,l),
(323,251,ls),
(323,92,o),
(432,-15,o),
(609,-15,cs)
);
}
);
width = 947;
}
);
note = uni1543;
unicode = 5443;
},
{
color = 3;
glyphname = "leWestCree-canadian";
lastChange = "2022-04-07 11:46:20 +0000";
layers = (
{
background = {
shapes = (
{
closed = 1;
nodes = (
(321,259,ls),
(321,411,o),
(416,488,o),
(557,488,cs),
(706,488,o),
(792,407,o),
(792,247,cs),
(792,0,l),
(818,0,l),
(818,249,ls),
(818,422,o),
(724,513,o),
(558,513,cs),
(398,513,o),
(295,424,o),
(295,251,cs),
(295,25,l),
(49,25,l),
(49,0,l),
(321,0,l),
(321,0,l)
);
}
);
};
layerId = m01;
shapes = (
{
closed = 1;
nodes = (
(405,0,l),
(405,233,ls),
(405,380,o),
(477,468,o),
(610,468,cs),
(743,468,o),
(815,380,o),
(815,233,cs),
(815,0,l),
(841,0,l),
(841,233,ls),
(841,394,o),
(756,493,o),
(610,493,cs),
(464,493,o),
(379,394,o),
(379,233,cs),
(379,25,l),
(59,25,l),
(59,0,l)
);
}
);
width = 910;
},
{
background = {
shapes = (
{
closed = 1;
nodes = (
(450,224,ls),
(450,314.667,o),
(501.333,366,o),
(592,366,cs),
(682.667,366,o),
(734,314.667,o),
(734,224,cs),
(734,0,l),
(927,0,l),
(927,206,ls),
(927,405.709,o),
(803.887,529,o),
(591,529,cs),
(381.734,529,o),
(257,407.476,o),
(257,206,cs),
(257,156,l),
(39,156,l),
(39,0,l),
(450,0,l),
(450,0,l)
);
}
);
};
layerId = "A1461942-0433-4891-A171-8512F51D8C86";
shapes = (
{
closed = 1;
nodes = (
(511,0,l),
(511,233,ls),
(511,323,o),
(548,365,o),
(611,365,cs),
(672,365,o),
(705,323,o),
(705,243,cs),
(705,0,l),
(898,0,l),
(898,261,ls),
(898,421,o),
(795,529,o),
(613,529,cs),
(440,529,o),
(323,421,o),
(323,251,cs),
(323,167,l),
(39,167,l),
(39,0,l)
);
}
);
width = 947;
}
);
note = uni1544;
unicode = 5444;
},
{
color = 3;
glyphname = "ri-canadian";
lastChange = "2022-04-07 11:49:28 +0000";
layers = (
{
background = {
shapes = (
{
closed = 1;
nodes = (
(105,247,ls),
(105,407,o),
(191,488,o),
(340,488,cs),
(483,488,o),
(576,411,o),
(576,259,cs),
(576,0,l),
(848,0,l),
(848,25,l),
(602,25,l),
(602,251,ls),
(602,424,o),
(499,513,o),
(339,513,cs),
(173,513,o),
(79,422,o),
(79,249,cs),
(79,0,l),
(105,0,l),
(105,0,l)
);
}
);
};
layerId = m01;
shapes = (
{
closed = 1;
nodes = (
(95,0,l),
(95,233,ls),
(95,380,o),
(165,468,o),
(298,468,cs),
(431,468,o),
(505,384,o),
(505,237,cs),
(505,0,l),
(851,0,l),
(851,25,l),
(531,25,l),
(531,237,ls),
(531,398,o),
(444,493,o),
(298,493,cs),
(152,493,o),
(69,394,o),
(69,233,cs),
(69,0,l)
);
}
);
width = 910;
},
{
background = {
shapes = (
{
closed = 1;
nodes = (
(252,224,ls),
(252,315,o),
(305,366,o),
(394,366,cs),
(485,366,o),
(536,315,o),
(536,224,cs),
(536,0,l),
(947,0,l),
(947,156,l),
(729,156,l),
(729,206,ls),
(729,413,o),
(599,529,o),
(396,529,cs),
(182,529,o),
(59,406,o),
(59,206,cs),
(59,0,l),
(252,0,l),
(252,0,l)
);
}
);
};
layerId = "A1461942-0433-4891-A171-8512F51D8C86";
shapes = (
{
closed = 1;
nodes = (
(242,0,l),
(242,243,ls),
(242,323,o),
(277,365,o),
(339,365,cs),
(401,365,o),
(436,326,o),
(436,246,cs),
(436,0,l),
(908,0,l),
(908,167,l),
(624,167,l),
(624,264,ls),
(624,423,o),
(522,529,o),
(341,529,cs),
(166,529,o),
(49,421,o),
(49,256,cs),
(49,0,l)
);
}
);
width = 957;
}
);
note = uni1546;
unicode = 5446;
},
{
color = 1;
glyphname = "ro-canadian";
lastChange = "2022-04-13 16:54:27 +0000";
layers = (
{
background = {
shapes = (
{
closed = 1;
nodes = (
(705,233,l),
(833,233,ls),
(989,233,o),
(1083,331,o),
(1083,473,cs),
(1083,617,o),
(995,714,o),
(830,714,cs),
(679,714,l),
(679,689,l),
(833,689,ls),
(979,689,o),
(1057,605,o),
(1057,473,cs),
(1057,343,o),
(976,258,o),
(834,258,cs),
(679,258,l),
(679,0,l),
(705,0,l)
);
},
{
closed = 1;
nodes = (
(105,280,l),
(233,280,ls),
(389,280,o),
(483,368,o),
(483,497,cs),
(483,626,o),
(395,714,o),
(230,714,cs),
(79,714,l),
(79,689,l),
(233,689,ls),
(379,689,o),
(457,614,o),
(457,497,cs),
(457,381,o),
(376,305,o),
(234,305,cs),
(79,305,l),
(79,0,l),
(105,0,l)
);
}
);
};
layerId = m01;
shapes = (
{
closed = 1;
nodes = (
(105,0,l),
(105,280,l),
(233,280,ls),
(389,280,o),
(483,368,o),
(483,497,cs),
(483,626,o),
(395,714,o),
(230,714,cs),
(79,714,l),
(79,689,l),
(233,689,ls),
(379,689,o),
(457,614,o),
(457,497,cs),
(457,381,o),
(376,305,o),
(234,305,cs),
(79,305,l),
(79,0,l)
);
}
);
width = 552;
},
{
background = {
shapes = (
{
closed = 1;
nodes = (
(250,200,l),
(292,200,ls),
(464,200,o),
(583,297,o),
(583,454,cs),
(583,617,o),
(476,714,o),
(273,714,cs),
(59,714,l),
(59,547,l),
(282,547,ls),
(348,547,o),
(392,515,o),
(392,457,cs),
(392,399,o),
(348,367,o),
(282,367,cs),
(59,367,l),
(59,1,l),
(250,1,l)
);
}
);
};
layerId = "A1461942-0433-4891-A171-8512F51D8C86";
shapes = (
{
closed = 1;
nodes = (
(250,1,l),
(250,210,l),
(302,210,ls),
(472,210,o),
(583,308,o),
(583,459,cs),
(583,622,o),
(472,714,o),
(273,714,cs),
(59,714,l),
(59,547,l),
(288,547,ls),
(351,547,o),
(392,517,o),
(392,462,cs),
(392,407,o),
(351,377,o),
(288,377,cs),
(59,377,l),
(59,1,l)
);
}
);
width = 632;
}
);
note = uni1548;
unicode = 5448;
},
{
color = 1;
glyphname = "loWestCree-canadian";
lastChange = "2022-04-21 14:03:41 +0000";
layers = (
{
background = {
shapes = (
{
closed = 1;
nodes = (
(230,0,ls),
(395,0,o),
(483,97,o),
(483,241,cs),
(483,383,o),
(389,481,o),
(233,481,cs),
(105,481,l),
(105,714,l),
(79,714,l),
(79,456,l),
(234,456,ls),
(376,456,o),
(457,371,o),
(457,241,cs),
(457,109,o),
(379,25,o),
(233,25,cs),
(79,25,l),
(79,0,l)
);
}
);
};
layerId = m01;
shapes = (
{
closed = 1;
nodes = (
(220,0,ls),
(385,0,o),
(473,88,o),
(473,217,cs),
(473,346,o),
(379,434,o),
(223,434,cs),
(95,434,l),
(95,714,l),
(69,714,l),
(69,409,l),
(224,409,ls),
(366,409,o),
(447,333,o),
(447,217,cs),
(447,100,o),
(369,25,o),
(223,25,cs),
(69,25,l),
(69,0,l)
);
}
);
width = 552;
},
{
background = {
shapes = (
{
closed = 1;
nodes = (
(273,1,ls),
(476,1,o),
(583,98,o),
(583,261,cs),
(583,418,o),
(464,515,o),
(292,515,cs),
(250,515,l),
(250,714,l),
(59,714,l),
(59,348,l),
(282,348,ls),
(348,348,o),
(392,316,o),
(392,258,cs),
(392,200,o),
(348,168,o),
(282,168,cs),
(59,168,l),
(59,1,l)
);
}
);
};
layerId = "A1461942-0433-4891-A171-8512F51D8C86";
shapes = (
{
closed = 1;
nodes = (
(273,1,ls),
(472,1,o),
(583,93,o),
(583,256,cs),
(583,407,o),
(472,505,o),
(302,505,cs),
(250,505,l),
(250,714,l),
(59,714,l),
(59,338,l),
(288,338,ls),
(351,338,o),
(392,308,o),
(392,253,cs),
(392,198,o),
(351,168,o),
(288,168,cs),
(59,168,l),
(59,1,l)
);
}
);
width = 632;
}
);
note = uni154A;
unicode = 5450;
},
{
color = 1;
glyphname = "ra-canadian";
lastChange = "2022-04-21 13:32:39 +0000";
layers = (
{
background = {
shapes = (
{
closed = 1;
nodes = (
(473,0,l),
(473,258,l),
(318,258,ls),
(176,258,o),
(95,343,o),
(95,473,cs),
(95,605,o),
(173,689,o),
(319,689,cs),
(473,689,l),
(473,714,l),
(322,714,ls),
(157,714,o),
(69,617,o),
(69,473,cs),
(69,331,o),
(163,233,o),
(319,233,cs),
(447,233,l),
(447,0,l)
);
}
);
};
layerId = m01;
shapes = (
{
closed = 1;
nodes = (
(473,0,l),
(473,305,l),
(318,305,ls),
(176,305,o),
(95,381,o),
(95,497,cs),
(95,614,o),
(173,689,o),
(319,689,cs),
(473,689,l),
(473,714,l),
(322,714,ls),
(157,714,o),
(69,626,o),
(69,497,cs),
(69,368,o),
(163,280,o),
(319,280,cs),
(447,280,l),
(447,0,l)
);
}
);
width = 552;
},
{
background = {
shapes = (
{
closed = 1;
nodes = (
(583,1,l),
(583,367,l),
(360,367,ls),
(294,367,o),
(250,399,o),
(250,457,cs),
(250,515,o),
(294,547,o),
(360,547,cs),
(583,547,l),
(583,714,l),
(369,714,ls),
(166,714,o),
(59,617,o),
(59,454,cs),
(59,297,o),
(178,200,o),
(350,200,cs),
(392,200,l),
(392,1,l)
);
}
);
};
layerId = "A1461942-0433-4891-A171-8512F51D8C86";
shapes = (
{
closed = 1;
nodes = (
(583,1,l),
(583,377,l),
(354,377,ls),
(291,377,o),
(250,407,o),
(250,462,cs),
(250,517,o),
(291,547,o),
(354,547,cs),
(583,547,l),
(583,714,l),
(369,714,ls),
(170,714,o),
(59,622,o),
(59,459,cs),
(59,308,o),
(170,210,o),
(340,210,cs),
(392,210,l),
(392,1,l)
);
}
);
width = 632;
}
);
note = uni154B;
unicode = 5451;
},
{
color = 1;
glyphname = "laWestCree-canadian";
lastChange = "2022-04-13 16:55:50 +0000";
layers = (
{
background = {
shapes = (
{
closed = 1;
nodes = (
(473,0,l),
(473,25,l),
(319,25,ls),
(173,25,o),
(95,109,o),
(95,241,cs),
(95,371,o),
(176,456,o),
(318,456,cs),
(473,456,l),
(473,714,l),
(447,714,l),
(447,481,l),
(319,481,ls),
(163,481,o),
(69,383,o),
(69,241,cs),
(69,97,o),
(157,0,o),
(322,0,cs)
);
}
);
};
layerId = m01;
shapes = (
{
closed = 1;
nodes = (
(473,0,l),
(473,25,l),
(319,25,ls),
(173,25,o),
(95,100,o),
(95,217,cs),
(95,333,o),
(176,409,o),
(318,409,cs),
(473,409,l),
(473,714,l),
(447,714,l),
(447,434,l),
(319,434,ls),
(163,434,o),
(69,346,o),
(69,217,cs),
(69,88,o),
(157,0,o),
(322,0,cs)
);
}
);
width = 552;
},
{
background = {
shapes = (
{
closed = 1;
nodes = (
(573,1,l),
(573,168,l),
(350,168,ls),
(284,168,o),
(240,200,o),
(240,258,cs),
(240,316,o),
(284,348,o),
(350,348,cs),
(573,348,l),
(573,714,l),
(382,714,l),
(382,515,l),
(340,515,ls),
(168,515,o),
(49,418,o),
(49,261,cs),
(49,98,o),
(156,1,o),
(359,1,cs)
);
}
);
};
layerId = "A1461942-0433-4891-A171-8512F51D8C86";
shapes = (
{
closed = 1;
nodes = (
(583,1,l),
(583,168,l),
(354,168,ls),
(291,168,o),
(250,198,o),
(250,253,cs),
(250,308,o),
(291,338,o),
(354,338,cs),
(583,338,l),
(583,714,l),
(392,714,l),
(392,505,l),
(340,505,ls),
(170,505,o),
(59,407,o),
(59,256,cs),
(59,93,o),
(170,1,o),
(369,1,cs)
);
}
);
width = 632;
}
);
note = uni154D;
unicode = 5453;
},
{
color = 3;
glyphname = "r-canadian";
lastChange = "2022-05-10 10:35:32 +0000";
layers = (
{
background = {
shapes = (
{
closed = 1;
nodes = (
(275,488,l),
(177,488,ls),
(108,488,o),
(54,514,o),
(54,590,cs),
(54,666,o),
(108,692,o),
(177,692,cs),
(275,692,l),
(275,714,l),
(177,714,ls),
(92,714,o),
(29,673,o),
(29,590,cs),
(29,507,o),
(92,466,o),
(177,466,cs),
(251,466,l),
(251,342,l),
(275,342,l),
(275,342,l)
);
}
);
};
layerId = m01;
shapes = (
{
closed = 1;
nodes = (
(253,357,l),
(253,518,l),
(174,518,ls),
(103,518,o),
(72,552,o),
(72,605,cs),
(72,658,o),
(101,692,o),
(174,692,cs),
(253,692,l),
(253,714,l),
(176,714,ls),
(93,714,o),
(49,670,o),
(49,605,cs),
(49,539,o),
(96,495,o),
(174,495,cs),
(229,495,l),
(229,357,l)
);
}
);
width = 302;
},
{
background = {
shapes = (
{
closed = 1;
nodes = (
(352,509,l),
(226,509,ls),
(160.667,509,o),
(147,528.667,o),
(147,558,cs),
(147,587.333,o),
(164.667,606,o),
(226,606,cs),
(352,606,l),
(352,714,l),
(223,714,ls),
(105.667,714,o),
(29,654.333,o),
(29,557,cs),
(29,457,o),
(103,401,o),
(223,401,cs),
(234,401,l),
(234,317,l),
(352,317,l),
(352,317,l)
);
}
);
};
layerId = "A1461942-0433-4891-A171-8512F51D8C86";
shapes = (
{
closed = 1;
nodes = (
(309,357,l),
(309,550,l),
(196,550,ls),
(168,550,o),
(151,561,o),
(151,586,cs),
(151,610,o),
(169,622,o),
(196,622,cs),
(309,622,l),
(309,714,l),
(194,714,ls),
(95,714,o),
(39,668,o),
(39,584,cs),
(39,507,o),
(95,458,o),
(180,458,cs),
(195,458,l),
(195,357,l)
);
}
);
width = 348;
}
);
note = uni1550;
unicode = 5456;
},
{
color = 3;
glyphname = "rWestCree-canadian";
lastChange = "2022-05-10 10:42:38 +0000";
layers = (
{
background = {
shapes = (
{
closed = 1;
nodes = (
(329,426,l),
(329,442,l),
(103,524,l),
(329,605,l),
(329,621,l),
(64,725,l),
(59,725,l),
(59,704,l),
(290,614,l),
(59,531,l),
(59,516,l),
(290,434,l),
(59,343,l),
(59,322,l),
(64,322,l),
(64,322,l)
);
}
);
};
layerId = m01;
shapes = (
{
closed = 1;
nodes = (
(58,369,l),
(319,458,l),
(319,473,l),
(70,552,l),
(70,542,l),
(319,622,l),
(319,637,l),
(58,726,l),
(49,726,l),
(49,709,l),
(297,624,l),
(297,635,l),
(49,555,l),
(49,539,l),
(297,460,l),
(297,471,l),
(49,386,l),
(49,369,l)
);
}
);
width = 368;
},
{
background = {
shapes = (
{
closed = 1;
nodes = (
(367,391,l),
(367,450,l),
(214,508,l),
(367,565,l),
(367,623,l),
(66,725,l),
(40,725,l),
(40,632,l),
(197,584,l),
(39,531,l),
(39,482,l),
(197,430,l),
(40,382,l),
(40,289,l),
(66,289,l),
(66,289,l)
);
}
);
};
layerId = "A1461942-0433-4891-A171-8512F51D8C86";
shapes = (
{
closed = 1;
nodes = (
(60,372,l),
(314,469,l),
(314,501,l),
(136,567,l),
(136,534,l),
(314,600,l),
(314,632,l),
(60,729,l),
(39,729,l),
(39,655,l),
(207,588,l),
(207,641,l),
(39,573,l),
(39,528,l),
(207,462,l),
(207,512,l),
(39,445,l),
(39,372,l)
);
}
);
width = 353;
}
);
note = uni1551;
unicode = 5457;
},
{
color = 3;
glyphname = "rMedial-canadian";
lastChange = "2022-05-06 09:36:41 +0000";
layers = (
{
background = {
shapes = (
{
closed = 1;
nodes = (
(611,173,l),
(611,193,l),
(92,363,l),
(92,350,l),
(611,520,l),
(611,540,l),
(82,714,l),
(69,714,l),
(69,693,l),
(590,523,l),
(590,536,l),
(69,367,l),
(69,347,l),
(590,177,l),
(590,190,l),
(69,21,l),
(69,0,l),
(82,0,l)
);
}
);
};
guides = (
{
angle = 161.8636;
pos = (352,278);
},
{
angle = 198.1364;
pos = (82,0);
},
{
angle = 161.8636;
pos = (352,625);
},
{
angle = 198.1364;
pos = (82,347);
}
);
layerId = m01;
shapes = (
{
closed = 1;
nodes = (
(601,173,l),
(601,193,l),
(92,364,l),
(92,351,l),
(601,520,l),
(601,540,l),
(82,714,l),
(69,714,l),
(69,693,l),
(580,523,l),
(580,536,l),
(69,367,l),
(69,347,l),
(580,176,l),
(580,190,l),
(69,21,l),
(69,0,l),
(82,0,l)
);
}
);
width = 670;
},
{
background = {
shapes = (
{
closed = 1;
nodes = (
(719,169,l),
(719,225,l),
(247,406,l),
(247,309,l),
(719,490,l),
(719,546,l),
(105,714,l),
(59,714,l),
(59,572,l),
(503,453,l),
(503,552,l),
(59,385,l),
(59,329,l),
(503,162,l),
(503,261,l),
(59,142,l),
(59,0,l),
(105,0,l)
);
}
);
};
guides = (
{
angle = 200.6126;
pos = (281,469);
},
{
angle = 200.6126;
pos = (381,363);
}
);
layerId = "A1461942-0433-4891-A171-8512F51D8C86";
shapes = (
{
closed = 1;
nodes = (
(719,169,l),
(719,225,l),
(247,406,l),
(247,311,l),
(719,490,l),
(719,546,l),
(105,714,l),
(59,714,l),
(59,572,l),
(503,453,l),
(503,550,l),
(59,385,l),
(59,329,l),
(503,162,l),
(503,261,l),
(59,142,l),
(59,0,l),
(105,0,l)
);
}
);
width = 778;
}
);
note = uni1552;
unicode = 5458;
},
{
color = 1;
glyphname = "fe-canadian";
lastChange = "2022-04-13 16:06:17 +0000";
layers = (
{
background = {
shapes = (
{
closed = 1;
nodes = (
(1100,726,o),
(1035,650,o),
(1035,531,cs),
(1035,488,o),
(1046,444,o),
(1063,412,cs),
(1288,0,l),
(1313,0,l),
(1654,701,l),
(1654,714,l),
(1631,714,l),
(1297,19,l),
(1304,19,l),
(1110,378,l),
(1109,364,l),
(1139,344,o),
(1173,336,o),
(1202,336,cs),
(1303,336,o),
(1369,413,o),
(1369,531,cs),
(1369,649,o),
(1303,726,o),
(1202,726,cs)
);
},
{
closed = 1;
nodes = (
(1293,701,o),
(1344,635,o),
(1344,531,cs),
(1344,424,o),
(1293,361,o),
(1202,361,cs),
(1111,361,o),
(1060,424,o),
(1060,531,cs),
(1060,636,o),
(1111,701,o),
(1202,701,cs)
);
},
{
closed = 1;
nodes = (
(419,0,l),
(754,701,l),
(754,714,l),
(731,714,l),
(403,19,l),
(411,19,l),
(83,714,l),
(59,714,l),
(59,701,l),
(394,0,l)
);
}
);
};
layerId = m01;
shapes = (
{
closed = 1;
nodes = (
(206,726,o),
(141,650,o),
(141,531,cs),
(141,488,o),
(152,444,o),
(169,412,cs),
(394,0,l),
(419,0,l),
(754,701,l),
(754,714,l),
(731,714,l),
(403,19,l),
(410,19,l),
(215,378,l),
(215,364,l),
(245,344,o),
(279,336,o),
(308,336,cs),
(409,336,o),
(475,413,o),
(475,531,cs),
(475,649,o),
(409,726,o),
(308,726,cs)
);
},
{
closed = 1;
nodes = (
(399,701,o),
(450,635,o),
(450,531,cs),
(450,424,o),
(399,361,o),
(308,361,cs),
(217,361,o),
(166,424,o),
(166,531,cs),
(166,636,o),
(217,701,o),
(308,701,cs)
);
}
);
width = 813;
},
{
background = {
shapes = (
{
closed = 1;
nodes = (
(1133,729,o),
(1049,640,o),
(1049,525,cs),
(1049,470,o),
(1066,422,o),
(1100,371,cs),
(1360,-15,l),
(1416,-15,l),
(1823,669,l),
(1823,714,l),
(1656,714,l),
(1358,208,l),
(1393,208,l),
(1290,365,l),
(1172,357,l),
(1199,322,o),
(1230,307,o),
(1276,307,cs),
(1379,307,o),
(1474,396,o),
(1474,520,cs),
(1474,640,o),
(1391,729,o),
(1262,729,cs)
);
},
{
closed = 1;
nodes = (
(1295,589,o),
(1316,567,o),
(1316,520,cs),
(1316,473,o),
(1294,447,o),
(1261,447,cs),
(1229,447,o),
(1206,473,o),
(1206,518,cs),
(1206,563,o),
(1229,589,o),
(1262,589,cs)
);
},
{
closed = 1;
nodes = (
(459,0,l),
(823,669,l),
(823,714,l),
(657,714,l),
(405,247,l),
(470,247,l),
(222,714,l),
(39,714,l),
(39,669,l),
(403,0,l)
);
}
);
};
guides = (
{
angle = -54.9769;
pos = (393,223);
}
);
layerId = "A1461942-0433-4891-A171-8512F51D8C86";
shapes = (
{
closed = 1;
nodes = (
(133,729,o),
(49,640,o),
(49,525,cs),
(49,470,o),
(65,421,o),
(100,371,cs),
(360,0,l),
(416,0,l),
(823,669,l),
(823,714,l),
(661,714,l),
(362,223,l),
(391,223,l),
(299,357,l),
(172,357,l),
(199,322,o),
(230,307,o),
(276,307,cs),
(379,307,o),
(474,396,o),
(474,520,cs),
(474,640,o),
(391,729,o),
(262,729,cs)
);
},
{
closed = 1;
nodes = (
(295,589,o),
(316,567,o),
(316,520,cs),
(316,473,o),
(294,447,o),
(261,447,cs),
(229,447,o),
(206,473,o),
(206,518,cs),
(206,563,o),
(229,589,o),
(262,589,cs)
);
}
);
width = 862;
}
);
note = uni1553;
unicode = 5459;
},
{
color = 1;
glyphname = "fi-canadian";
lastChange = "2022-04-13 16:11:49 +0000";
layers = (
{
background = {
shapes = (
{
closed = 1;
nodes = (
(82,0,l),
(410,695,l),
(402,695,l),
(730,0,l),
(754,0,l),
(754,13,l),
(419,714,l),
(394,714,l),
(59,13,l),
(59,0,l)
);
}
);
};
layerId = m01;
shapes = (
{
closed = 1;
nodes = (
(403,-12,o),
(469,65,o),
(469,183,cs),
(469,301,o),
(403,378,o),
(302,378,cs),
(273,378,o),
(239,370,o),
(209,350,c),
(210,336,l),
(411,695,l),
(402,695,l),
(730,0,l),
(754,0,l),
(754,13,l),
(419,714,l),
(394,714,l),
(163,302,ls),
(146,271,o),
(135,226,o),
(135,183,cs),
(135,64,o),
(200,-12,o),
(302,-12,cs)
);
},
{
closed = 1;
nodes = (
(211,13,o),
(160,78,o),
(160,183,cs),
(160,290,o),
(211,353,o),
(302,353,cs),
(393,353,o),
(444,290,o),
(444,183,cs),
(444,79,o),
(393,13,o),
(302,13,cs)
);
}
);
width = 813;
},
{
background = {
shapes = (
{
closed = 1;
nodes = (
(1191,-15,o),
(1274,74,o),
(1274,194,cs),
(1274,318,o),
(1179,407,o),
(1076,407,cs),
(1030,407,o),
(999,392,o),
(972,357,c),
(1090,349,l),
(1193,506,l),
(1158,506,l),
(1456,0,l),
(1623,0,l),
(1623,45,l),
(1216,729,l),
(1160,729,l),
(900,343,ls),
(866,293,o),
(849,244,o),
(849,189,cs),
(849,74,o),
(933,-15,o),
(1062,-15,cs)
);
},
{
closed = 1;
nodes = (
(1029,125,o),
(1006,151,o),
(1006,196,cs),
(1006,241,o),
(1029,267,o),
(1061,267,cs),
(1094,267,o),
(1116,241,o),
(1116,194,cs),
(1116,147,o),
(1095,125,o),
(1062,125,cs)
);
},
{
closed = 1;
nodes = (
(212,0,l),
(467,470,l),
(400,470,l),
(647,0,l),
(823,0,l),
(823,45,l),
(459,714,l),
(403,714,l),
(39,45,l),
(39,0,l)
);
}
);
};
guides = (
{
angle = 120.7539;
pos = (426,387);
},
{
angle = 234.9769;
pos = (393,491);
}
);
layerId = "A1461942-0433-4891-A171-8512F51D8C86";
shapes = (
{
closed = 1;
nodes = (
(388,-15,o),
(471,74,o),
(471,194,cs),
(471,318,o),
(376,407,o),
(273,407,cs),
(227,407,o),
(196,392,o),
(169,357,c),
(299,357,l),
(393,491,l),
(356,491,l),
(658,0,l),
(823,0,l),
(823,45,l),
(416,714,l),
(360,714,l),
(97,343,ls),
(62,293,o),
(46,244,o),
(46,189,cs),
(46,74,o),
(130,-15,o),
(259,-15,cs)
);
},
{
closed = 1;
nodes = (
(226,125,o),
(203,151,o),
(203,196,cs),
(203,241,o),
(226,267,o),
(258,267,cs),
(291,267,o),
(313,241,o),
(313,194,cs),
(313,147,o),
(292,125,o),
(259,125,cs)
);
}
);
width = 862;
}
);
note = uni1555;
unicode = 5461;
},
{
color = 1;
glyphname = "fo-canadian";
lastChange = "2022-04-13 16:15:08 +0000";
layers = (
{
background = {
shapes = (
{
closed = 1;
nodes = (
(1202,0,l),
(1815,347,l),
(1815,361,l),
(1446,684,ls),
(1415,711,o),
(1372,728,o),
(1326,728,cs),
(1224,728,o),
(1159,652,o),
(1159,533,cs),
(1159,414,o),
(1224,338,o),
(1326,338,cs),
(1427,338,o),
(1492,415,o),
(1492,533,cs),
(1492,590,o),
(1478,631,o),
(1454,662,c),
(1450,648,l),
(1792,348,l),
(1791,360,l),
(1189,21,l),
(1189,0,l)
);
},
{
closed = 1;
nodes = (
(1235,363,o),
(1184,428,o),
(1184,533,cs),
(1184,640,o),
(1235,703,o),
(1326,703,cs),
(1417,703,o),
(1468,640,o),
(1468,533,cs),
(1468,429,o),
(1417,363,o),
(1326,363,cs)
);
},
{
closed = 1;
nodes = (
(102,0,l),
(705,347,l),
(705,367,l),
(102,714,l),
(89,714,l),
(89,693,l),
(686,351,l),
(686,363,l),
(89,21,l),
(89,0,l)
);
}
);
};
guides = (
{
angle = 138.8179;
pos = (682,348);
}
);
layerId = m01;
shapes = (
{
closed = 1;
nodes = (
(102,0,l),
(705,347,l),
(705,367,l),
(336,684,ls),
(305,711,o),
(262,728,o),
(216,728,cs),
(114,728,o),
(49,652,o),
(49,533,cs),
(49,414,o),
(114,338,o),
(216,338,cs),
(317,338,o),
(382,415,o),
(382,533,cs),
(382,590,o),
(368,631,o),
(344,662,c),
(340,649,l),
(682,355,l),
(681,360,l),
(89,21,l),
(89,0,l)
);
},
{
closed = 1;
nodes = (
(125,363,o),
(74,428,o),
(74,533,cs),
(74,640,o),
(125,703,o),
(216,703,cs),
(307,703,o),
(358,640,o),
(358,533,cs),
(358,429,o),
(307,363,o),
(216,363,cs)
);
}
);
width = 744;
},
{
background = {
shapes = (
{
closed = 1;
nodes = (
(1104,-15,l),
(1724,329,l),
(1724,383,l),
(1382,672,ls),
(1334,712,o),
(1282,729,o),
(1234,729,cs),
(1128,729,o),
(1019,658,o),
(1019,515,cs),
(1019,395,o),
(1102,306,o),
(1225,306,cs),
(1349,306,o),
(1428,395,o),
(1428,515,cs),
(1428,535,o),
(1418,582,o),
(1405,609,c),
(1352,484,l),
(1491,367,l),
(1518,396,l),
(1059,145,l),
(1059,-15,l)
);
},
{
closed = 1;
nodes = (
(1199,446,o),
(1176,472,o),
(1176,517,cs),
(1176,562,o),
(1199,588,o),
(1232,588,cs),
(1265,588,o),
(1286,566,o),
(1286,519,cs),
(1286,472,o),
(1264,446,o),
(1231,446,cs)
);
},
{
closed = 1;
nodes = (
(104,0,l),
(714,329,l),
(714,385,l),
(104,714,l),
(59,714,l),
(59,546,l),
(470,330,l),
(470,386,l),
(59,170,l),
(59,0,l)
);
}
);
};
guides = (
{
angle = 138.961;
pos = (352,484);
}
);
layerId = "A1461942-0433-4891-A171-8512F51D8C86";
shapes = (
{
closed = 1;
nodes = (
(104,0,l),
(714,329,l),
(714,383,l),
(382,672,ls),
(335,713,o),
(282,729,o),
(234,729,cs),
(128,729,o),
(19,658,o),
(19,515,cs),
(19,395,o),
(102,306,o),
(225,306,cs),
(349,306,o),
(428,395,o),
(428,515,cs),
(428,535,o),
(418,582,o),
(405,609,c),
(352,484,l),
(508,351,l),
(508,397,l),
(59,160,l),
(59,0,l)
);
},
{
closed = 1;
nodes = (
(199,446,o),
(176,472,o),
(176,517,cs),
(176,562,o),
(199,588,o),
(232,588,cs),
(265,588,o),
(286,566,o),
(286,519,cs),
(286,472,o),
(264,446,o),
(231,446,cs)
);
}
);
width = 743;
}
);
note = uni1557;
unicode = 5463;
},
{
color = 1;
glyphname = "fa-canadian";
lastChange = "2022-05-10 10:46:41 +0000";
layers = (
{
background = {
shapes = (
{
closed = 1;
nodes = (
(665,21,l),
(73,360,l),
(72,355,l),
(414,649,l),
(410,662,l),
(386,631,o),
(372,590,o),
(372,533,cs),
(372,415,o),
(437,338,o),
(538,338,cs),
(640,338,o),
(705,414,o),
(705,533,cs),
(705,652,o),
(640,728,o),
(538,728,cs),
(492,728,o),
(449,711,o),
(418,684,cs),
(49,367,l),
(49,347,l),
(652,0,l),
(665,0,l)
);
},
{
closed = 1;
nodes = (
(447,363,o),
(396,429,o),
(396,533,cs),
(396,640,o),
(447,703,o),
(538,703,cs),
(629,703,o),
(680,640,o),
(680,533,cs),
(680,428,o),
(629,363,o),
(538,363,cs)
);
}
);
};
layerId = m01;
shapes = (
{
closed = 1;
nodes = (
(665,0,l),
(665,21,l),
(68,363,l),
(72,356,l),
(414,650,l),
(410,662,l),
(386,631,o),
(372,590,o),
(372,533,cs),
(372,415,o),
(437,338,o),
(538,338,cs),
(640,338,o),
(705,414,o),
(705,533,cs),
(705,652,o),
(640,728,o),
(538,728,cs),
(492,728,o),
(449,711,o),
(418,684,cs),
(49,367,l),
(49,347,l),
(652,0,l)
);
},
{
closed = 1;
nodes = (
(447,363,o),
(396,429,o),
(396,533,cs),
(396,640,o),
(447,703,o),
(538,703,cs),
(629,703,o),
(680,640,o),
(680,533,cs),
(680,428,o),
(629,363,o),
(538,363,cs)
);
}
);
width = 754;
},
{
background = {
shapes = (
{
closed = 1;
nodes = (
(1594,-15,l),
(1594,145,l),
(1135,396,l),
(1162,367,l),
(1301,484,l),
(1248,609,l),
(1235,582,o),
(1225,535,o),
(1225,515,cs),
(1225,395,o),
(1304,306,o),
(1428,306,cs),
(1551,306,o),
(1634,395,o),
(1634,515,cs),
(1634,658,o),
(1525,729,o),
(1419,729,cs),
(1371,729,o),
(1319,712,o),
(1271,672,cs),
(929,383,l),
(929,329,l),
(1549,-15,l)
);
},
{
closed = 1;
nodes = (
(1389,446,o),
(1367,472,o),
(1367,519,cs),
(1367,566,o),
(1388,588,o),
(1421,588,cs),
(1454,588,o),
(1477,562,o),
(1477,517,cs),
(1477,472,o),
(1454,446,o),
(1422,446,cs)
);
},
{
closed = 1;
nodes = (
(684,0,l),
(684,168,l),
(273,384,l),
(273,328,l),
(684,544,l),
(684,714,l),
(639,714,l),
(29,385,l),
(29,329,l),
(639,0,l)
);
}
);
};
guides = (
{
angle = 221.039;
pos = (391,489);
}
);
layerId = "A1461942-0433-4891-A171-8512F51D8C86";
shapes = (
{
closed = 1;
nodes = (
(684,0,l),
(684,158,l),
(235,394,l),
(235,358,l),
(391,491,l),
(338,609,l),
(325,582,o),
(315,535,o),
(315,515,cs),
(315,395,o),
(394,306,o),
(518,306,cs),
(641,306,o),
(724,395,o),
(724,515,cs),
(724,658,o),
(615,729,o),
(509,729,cs),
(461,729,o),
(408,713,o),
(361,672,cs),
(29,383,l),
(29,329,l),
(639,0,l)
);
},
{
closed = 1;
nodes = (
(479,446,o),
(457,472,o),
(457,519,cs),
(457,566,o),
(478,588,o),
(511,588,cs),
(544,588,o),
(567,562,o),
(567,517,cs),
(567,472,o),
(544,446,o),
(512,446,cs)
);
}
);
width = 743;
}
);
note = uni1559;
unicode = 5465;
},
{
color = 3;
glyphname = "f-canadian";
lastChange = "2022-05-10 12:27:42 +0000";
layers = (
{
background = {
shapes = (
{
closed = 1;
nodes = (
(357,357,l),
(357,375,l),
(69,541,l),
(69,531,l),
(357,696,l),
(357,714,l),
(345,714,l),
(49,543,l),
(49,529,l),
(345,357,l)
);
}
);
};
layerId = m01;
shapes = (
{
closed = 1;
nodes = (
(357,357,l),
(357,376,l),
(69,542,l),
(69,533,l),
(229,668,l),
(229,687,l),
(217,672,o),
(210,651,o),
(210,623,cs),
(210,564,o),
(242,526,o),
(293,526,cs),
(344,526,o),
(376,563,o),
(376,623,cs),
(376,682,o),
(344,720,o),
(293,720,cs),
(270,720,o),
(249,711,o),
(227,693,cs),
(49,543,l),
(49,529,l),
(345,357,l)
);
},
{
closed = 1;
nodes = (
(253,546,o),
(231,574,o),
(231,623,cs),
(231,672,o),
(253,700,o),
(293,700,cs),
(332,700,o),
(355,673,o),
(355,623,cs),
(355,573,o),
(332,546,o),
(293,546,cs)
);
}
);
width = 425;
},
{
background = {
shapes = (
{
closed = 1;
nodes = (
(367,357,l),
(367,451,l),
(161,559,l),
(161,511,l),
(367,619,l),
(367,714,l),
(344,714,l),
(39,550,l),
(39,522,l),
(344,357,l)
);
}
);
};
guides = (
{
angle = 220.7493;
pos = (239,619);
}
);
layerId = "A1461942-0433-4891-A171-8512F51D8C86";
shapes = (
{
closed = 1;
nodes = (
(367,357,l),
(367,434,l),
(142,550,l),
(142,534,l),
(219,604,l),
(195,660,l),
(188,647,o),
(183,623,o),
(183,613,cs),
(183,554,o),
(225,509,o),
(284,509,cs),
(344,509,o),
(385,554,o),
(385,613,cs),
(385,685,o),
(333,720,o),
(280,720,cs),
(256,720,o),
(224,710,o),
(198,687,cs),
(39,547,l),
(39,519,l),
(344,357,l)
);
},
{
closed = 1;
nodes = (
(266,579,o),
(255,592,o),
(255,615,cs),
(255,639,o),
(266,650,o),
(282,650,cs),
(298,650,o),
(310,637,o),
(310,614,cs),
(310,592,o),
(298,579,o),
(283,579,cs)
);
}
);
width = 424;
}
);
note = uni155D;
unicode = 5469;
},
{
color = 4;
glyphname = "the-canadian";
lastChange = "2022-04-22 12:26:31 +0000";
layers = (
{
background = {
shapes = (
{
closed = 1;
nodes = (
(568,-12,o),
(689,115,o),
(689,329,cs),
(689,714,l),
(663,714,l),
(663,325,ls),
(663,127,o),
(555,14,o),
(384,14,cs),
(219,14,o),
(104,112,o),
(104,313,cs),
(104,458,l),
(98,456,l),
(106,384,o),
(171,336,o),
(246,336,cs),
(347,336,o),
(413,413,o),
(413,531,cs),
(413,649,o),
(347,726,o),
(246,726,cs),
(144,726,o),
(79,650,o),
(79,532,cs),
(79,323,ls),
(79,105,o),
(203,-12,o),
(384,-12,cs)
);
},
{
closed = 1;
nodes = (
(155,361,o),
(104,424,o),
(104,531,cs),
(104,636,o),
(155,701,o),
(246,701,cs),
(337,701,o),
(388,635,o),
(388,531,cs),
(388,424,o),
(337,361,o),
(246,361,cs)
);
}
);
};
layerId = m01;
shapes = (
{
closed = 1;
nodes = (
(568,-12,o),
(689,115,o),
(689,329,cs),
(689,714,l),
(663,714,l),
(663,325,ls),
(663,127,o),
(555,13,o),
(384,13,cs),
(219,13,o),
(104,112,o),
(104,313,cs),
(104,458,l),
(98,456,l),
(106,384,o),
(171,336,o),
(246,336,cs),
(347,336,o),
(413,413,o),
(413,531,cs),
(413,649,o),
(347,726,o),
(246,726,cs),
(144,726,o),
(79,650,o),
(79,532,cs),
(79,323,ls),
(79,105,o),
(203,-12,o),
(384,-12,cs)
);
},
{
closed = 1;
nodes = (
(155,361,o),
(104,424,o),
(104,531,cs),
(104,636,o),
(155,701,o),
(246,701,cs),
(337,701,o),
(388,635,o),
(388,531,cs),
(388,424,o),
(337,361,o),
(246,361,cs)
);
}
);
width = 768;
},
{
background = {
shapes = (
{
closed = 1;
nodes = (
(639,-15,o),
(777,121,o),
(777,347,cs),
(777,714,l),
(584,714,l),
(584,341,ls),
(584,215,o),
(525,152,o),
(418,152,cs),
(308,152,o),
(245,198,o),
(245,320,cs),
(245,403,l),
(188,339,l),
(217,303,o),
(253,287,o),
(302,287,cs),
(417,287,o),
(494,375,o),
(494,508,cs),
(494,641,o),
(417,729,o),
(288,729,cs),
(146,729,o),
(59,623,o),
(59,460,cs),
(59,357,ls),
(59,115,o),
(194,-15,o),
(419,-15,cs)
);
},
{
closed = 1;
nodes = (
(256,427,o),
(236,455,o),
(236,508,cs),
(236,561,o),
(257,589,o),
(290,589,cs),
(325,589,o),
(346,562,o),
(346,510,cs),
(346,458,o),
(324,427,o),
(289,427,cs)
);
}
);
};
layerId = "A1461942-0433-4891-A171-8512F51D8C86";
shapes = (
{
closed = 1;
nodes = (
(639,-15,o),
(777,121,o),
(777,347,cs),
(777,714,l),
(584,714,l),
(584,341,ls),
(584,215,o),
(525,152,o),
(413,152,cs),
(308,152,o),
(245,198,o),
(245,310,cs),
(245,403,l),
(185,339,l),
(213,303,o),
(249,287,o),
(296,287,cs),
(409,287,o),
(484,375,o),
(484,508,cs),
(484,641,o),
(407,729,o),
(278,729,cs),
(142,729,o),
(59,633,o),
(59,470,cs),
(59,367,ls),
(59,115,o),
(194,-15,o),
(419,-15,cs)
);
},
{
closed = 1;
nodes = (
(236,427,o),
(216,455,o),
(216,508,cs),
(216,561,o),
(237,589,o),
(270,589,cs),
(305,589,o),
(326,562,o),
(326,510,cs),
(326,458,o),
(304,427,o),
(269,427,cs)
);
}
);
width = 836;
}
);
note = uni155E;
unicode = 5470;
},
{
color = 4;
glyphname = "theNCree-canadian";
lastChange = "2022-04-22 12:26:37 +0000";
layers = (
{
background = {
shapes = (
{
closed = 1;
nodes = (
(560,-12,o),
(679,105,o),
(679,323,cs),
(679,492,ls),
(679,652,o),
(610,726,o),
(509,726,cs),
(402,726,o),
(339,652,o),
(339,528,cs),
(339,399,o),
(409,313,o),
(566,313,cs),
(658,313,l),
(658,337,l),
(568,337,ls),
(421,337,o),
(365,412,o),
(365,528,cs),
(365,640,o),
(415,701,o),
(509,701,cs),
(595,701,o),
(653,643,o),
(653,494,cs),
(653,324,ls),
(653,116,o),
(547,14,o),
(379,14,cs),
(208,14,o),
(105,127,o),
(105,325,cs),
(105,714,l),
(79,714,l),
(79,329,ls),
(79,115,o),
(195,-12,o),
(379,-12,cs)
);
}
);
};
layerId = m01;
shapes = (
{
closed = 1;
nodes = (
(565,-12,o),
(689,105,o),
(689,323,cs),
(689,532,ls),
(689,650,o),
(624,726,o),
(522,726,cs),
(421,726,o),
(355,649,o),
(355,531,cs),
(355,413,o),
(421,336,o),
(522,336,cs),
(597,336,o),
(662,384,o),
(670,456,c),
(664,458,l),
(664,313,ls),
(664,112,o),
(549,13,o),
(384,13,cs),
(213,13,o),
(105,127,o),
(105,325,cs),
(105,714,l),
(79,714,l),
(79,329,ls),
(79,115,o),
(200,-12,o),
(384,-12,cs)
);
},
{
closed = 1;
nodes = (
(431,361,o),
(380,424,o),
(380,531,cs),
(380,635,o),
(431,701,o),
(522,701,cs),
(613,701,o),
(664,636,o),
(664,531,cs),
(664,424,o),
(613,361,o),
(522,361,cs)
);
}
);
width = 768;
},
{
background = {
shapes = (
{
closed = 1;
nodes = (
(637,-15,o),
(767,115,o),
(767,357,cs),
(767,448,ls),
(767,611,o),
(693,729,o),
(534,729,cs),
(398,729,o),
(311,646,o),
(311,505,cs),
(311,368,o),
(401,280,o),
(562,280,cs),
(642,280,l),
(642,420,l),
(566,420,ls),
(502,420,o),
(476,452,o),
(476,512,cs),
(476,562,o),
(498,586,o),
(529,586,cs),
(560,586,o),
(578,563,o),
(578,505,cs),
(578,317,ls),
(578,198,o),
(523,152,o),
(413,152,cs),
(306,152,o),
(252,215,o),
(252,341,cs),
(252,714,l),
(59,714,l),
(59,347,ls),
(59,121,o),
(192,-15,o),
(412,-15,cs)
);
}
);
};
layerId = "A1461942-0433-4891-A171-8512F51D8C86";
shapes = (
{
closed = 1;
nodes = (
(642,-15,o),
(777,115,o),
(777,367,cs),
(777,470,ls),
(777,633,o),
(694,729,o),
(558,729,cs),
(429,729,o),
(352,641,o),
(352,508,cs),
(352,375,o),
(427,287,o),
(540,287,cs),
(587,287,o),
(623,303,o),
(651,339,c),
(591,403,l),
(591,310,ls),
(591,198,o),
(528,152,o),
(423,152,cs),
(311,152,o),
(252,215,o),
(252,341,cs),
(252,714,l),
(59,714,l),
(59,347,ls),
(59,121,o),
(197,-15,o),
(417,-15,cs)
);
},
{
closed = 1;
nodes = (
(532,427,o),
(510,458,o),
(510,510,cs),
(510,562,o),
(531,589,o),
(566,589,cs),
(599,589,o),
(620,561,o),
(620,508,cs),
(620,455,o),
(600,427,o),
(567,427,cs)
);
}
);
width = 836;
}
);
note = uni155F;
unicode = 5471;
},
